<?xml version="1.0" encoding="UTF-8"?>
<!-- Generated by Pixelmator Pro 3.6.18 -->
<svg width="3493" height="1365" viewBox="0 0 3493 1365" xmlns="http://www.w3.org/2000/svg">
    <g id="Path">
        <path id="path1" fill="#000000" fill-rule="evenodd" stroke="none" d="M 494.385986 268.747925 L 491 268.75 C 489.63443 268.750732 488.268188 268.748779 486.901489 268.746826 C 477.074493 268.732544 467.224548 268.718262 457.445313 269.714355 L 455 270 C 390.559265 276.838135 327.826233 301.617676 276.511719 341.265625 C 275.341888 342.17804 274.171356 343.0896 273 344 C 255.437729 357.165405 240.041336 374.073181 226.304688 391.113281 L 224 394 C 186.18811 440.60968 169.707703 497.515686 164.440308 556.523926 L 164.25 558.6875 C 163.532928 566.757568 163.028366 572.436035 162.674652 578.123901 C 161.834778 591.628906 161.845306 605.186768 161.880798 650.936035 C 161.8862 657.552124 161.887177 664.168213 161.886505 670.784302 C 161.88504 683.019775 161.887238 695.255127 161.893158 707.49054 C 161.899109 719.628418 161.903748 731.766357 161.904907 743.904236 L 161.905121 746.199341 L 161.906097 757.745422 C 161.908112 784.925354 161.914246 812.105225 161.923706 839.285156 C 161.932922 865.706604 161.940399 892.127991 161.944672 918.549438 L 161.945465 923.531189 C 161.947693 937.26178 161.949799 950.99231 161.951843 964.7229 C 161.959625 1017.237549 161.959625 1017.237549 162 1154 L 420 1154 L 420 635.487915 C 419.859406 635.202698 419.785339 634.896729 419.783936 634.569458 C 419.753662 627.731201 419.729156 620.893005 419.71991 614.054688 C 419.71637 610.428589 419.714813 606.80249 419.695801 603.176392 C 419.693024 602.724731 419.690155 602.272644 419.687256 601.820129 C 419.534668 577.884949 419.374573 552.775879 435 533 C 454.687164 511.398804 490.818298 509.313171 515.980469 522.570313 C 527.100342 529.263245 533.392029 538.042908 537.042969 550.582031 C 540.891174 567.835571 540.234741 586.480835 531 602 C 521.418213 615.062256 508.431335 622.292725 492.809814 625.78833 L 490.3125 626.3125 C 484.476501 627.570435 478.695099 628.119629 472.74176 628.422424 L 470.141357 628.547607 C 468.412415 628.634521 466.683472 628.721313 464.954529 628.807983 L 461 629 L 461 856 C 543.228027 856 627.33197 854.841797 696.839844 805.316406 L 700 803 C 715.761841 791.590149 729.393372 777.696289 741.675293 762.636719 L 743 761 C 754.55188 746.812134 764.825806 731.647217 772.918945 715.220215 L 774 713 C 795.568359 668.976196 804.462463 619.013977 803.070801 570.130859 L 803 568 C 800.917236 501.842896 781.11145 439.183838 740.027344 386.839844 C 739.016724 385.561096 738.007446 384.28125 737 383 C 692.022949 323.444702 621.094116 284.511597 548.255371 272.52002 L 545 272 C 528.133911 269.244995 511.440216 268.764282 494.385986 268.747925 Z"/>
        <path id="path2" fill="#ffffff" fill-rule="evenodd" stroke="none" d="M 491 268.75 L 494.385986 268.747925 C 511.440216 268.764282 528.133911 269.244995 545 272 L 548.255371 272.52002 C 621.094116 284.511597 692.022949 323.444702 737 383 C 738.007446 384.28125 739.016724 385.561096 740.027344 386.839844 C 781.11145 439.183838 800.917236 501.842896 803 568 L 803.070801 570.130859 C 804.462463 619.013977 795.568359 668.976196 774 713 L 772.918945 715.220215 C 764.825806 731.647217 754.55188 746.812134 743 761 L 741.675293 762.636719 C 729.393372 777.696289 715.761841 791.590149 700 803 L 696.839844 805.316406 C 627.33197 854.841797 543.228027 856 461 856 L 461 629 L 464.954529 628.807983 C 466.683472 628.721313 468.412415 628.634521 470.141357 628.547607 L 472.74176 628.422424 C 478.695099 628.119629 484.476501 627.570435 490.3125 626.3125 L 492.809814 625.78833 C 508.431335 622.292725 521.418213 615.062256 531 602 C 540.234741 586.480835 540.891174 567.835571 537.042969 550.582031 C 533.392029 538.042908 527.100342 529.263245 515.980469 522.570313 C 490.818298 509.313171 454.687164 511.398804 435 533 C 419.374603 552.775879 419.534668 577.884888 419.687256 601.820129 L 419.695801 603.176392 C 419.714813 606.80249 419.71637 610.428589 419.71991 614.054688 C 419.729156 620.893005 419.753662 627.731201 419.783936 634.569458 C 419.785339 634.896729 419.859406 635.202698 420 635.487915 L 420 1154 L 162 1154 C 161.959625 1017.237549 161.959625 1017.237549 161.951843 964.7229 L 161.945465 923.531189 L 161.944672 918.549438 C 161.940399 892.127991 161.932922 865.706604 161.923706 839.285156 C 161.914246 812.105225 161.908112 784.925354 161.906097 757.745422 L 161.905121 746.199341 L 161.904907 743.904236 C 161.903748 731.766357 161.899109 719.628418 161.893158 707.49054 C 161.887238 695.255127 161.88504 683.019775 161.886505 670.784302 C 161.887177 664.168213 161.8862 657.552124 161.880798 650.936035 L 161.880798 650.934326 C 161.845306 605.186462 161.834793 591.628723 162.674652 578.123901 C 163.028366 572.436035 163.532928 566.757568 164.25 558.6875 L 164.440308 556.523926 C 169.707703 497.515686 186.18811 440.60968 224 394 L 226.304688 391.113281 C 240.041336 374.073181 255.437729 357.165405 273 344 C 274.171356 343.0896 275.341888 342.17804 276.511719 341.265625 C 327.826233 301.617676 390.559265 276.838135 455 270 L 457.445313 269.714355 C 467.224548 268.718262 477.074493 268.732544 486.901489 268.746826 L 486.902496 268.746826 C 488.26886 268.748779 489.634766 268.750732 491 268.75 Z M 494.358185 297.747925 L 494.403748 297.747955 C 514.091797 297.767944 527.378113 298.505859 540.324951 300.620697 L 540.425476 300.636932 L 543.544373 301.135162 L 543.680786 301.157318 C 611.616089 312.376343 674.789063 348.744873 713.858032 400.477142 C 713.97168 400.627563 714.086731 400.776886 714.203247 400.925079 C 715.192749 402.183502 716.211609 403.475739 717.275085 404.821381 C 753.049255 450.400421 772.0448 506.350586 774.014343 568.912537 L 774.082214 570.956116 L 774.086426 571.093872 C 775.387451 617.493713 766.561035 662.268921 747.95752 700.24115 L 746.90448 702.403625 L 746.845215 702.524536 C 740.18573 716.014771 731.437256 729.270874 720.511536 742.689697 L 719.201538 744.308044 L 719.133301 744.391968 C 707.304565 758.884644 695.509216 770.450012 682.994995 779.508911 L 682.855469 779.610596 L 679.858582 781.807312 C 651.51825 801.960327 618.79126 814.164368 579.051514 820.603577 C 553.216858 824.789673 528.962219 826.401062 490 826.854065 L 490 655.851807 C 492.10788 655.523438 494.184601 655.140808 496.269592 654.694031 L 496.423126 654.661804 L 498.766907 654.169861 C 498.892273 654.143555 499.017487 654.116455 499.142487 654.08844 C 522.138062 648.942749 540.850891 637.600769 554.383362 619.152832 C 554.932983 618.403503 555.446289 617.628235 555.921509 616.829651 C 568.651489 595.436707 571.084534 569.991272 565.347473 544.269043 C 565.213074 543.66626 565.059387 543.067932 564.886719 542.474915 C 559.167664 522.832886 548.245483 508.142548 530.935364 497.723755 C 530.464111 497.440094 529.984863 497.169922 529.49823 496.913513 C 491.886719 477.097229 441.837372 482.445831 413.566315 513.465515 C 413.107971 513.968384 412.66745 514.487305 412.245605 515.021179 C 403.411316 526.202026 397.681671 538.856995 394.404053 553.00769 C 391.904449 563.799438 390.9021 574.745422 390.69986 588.359131 C 390.642029 592.253113 390.645172 595.309875 390.687622 601.970886 L 390.687836 602.005005 L 390.69635 603.354675 C 390.710144 605.986145 390.714417 608.129028 390.718872 612.971375 L 390.71991 614.083008 C 390.728363 620.336304 390.74942 626.835571 390.78421 634.697815 C 390.789276 635.881165 390.861725 637.058716 391 638.225403 L 391 1125 L 190.991455 1125 C 190.965942 1038.384033 190.961823 1022.988892 190.95755 1000.342834 L 190.955215 986.861511 L 190.951843 964.718628 L 190.945465 923.526489 L 190.944672 918.5448 C 190.940674 893.825989 190.933716 867.995789 190.923706 839.275024 C 190.913971 811.332886 190.908066 784.233032 190.906097 757.743286 L 190.905121 746.196899 L 190.904907 743.90155 C 190.903854 732.878479 190.899979 721.390869 190.893158 707.476318 C 190.887253 695.272095 190.88504 683.042786 190.886505 670.787781 C 190.887283 663.182434 190.885696 656.922913 190.880783 650.912354 C 190.840698 599.241821 190.912979 591.272278 191.618729 579.92395 C 191.898956 575.417969 192.190842 571.893311 193.136185 561.254211 L 193.328766 559.064941 C 198.678802 499.131226 215.549011 450.448639 246.521133 412.270172 C 246.568695 412.211517 246.616028 412.15271 246.663132 412.093719 L 248.882401 409.313995 L 248.968079 409.207214 C 263.752777 390.877716 276.932434 377.295837 290.394684 367.203979 C 290.529449 367.102966 290.66333 367.000763 290.796295 366.8974 C 291.928925 366.01712 293.089264 365.113617 294.29071 364.176575 C 341.058411 328.056519 398.613281 305.146301 458.06015 298.838104 C 458.161743 298.827301 458.263245 298.81601 458.364716 298.804138 L 460.58847 298.544373 C 467.329285 297.866882 473.241394 297.72702 486.859344 297.746796 C 488.929535 297.749756 489.852295 297.75061 491.015564 297.75 L 494.358185 297.747925 Z"/>
    </g>
    <g id="g1">
        <path id="path3" fill="#000000" stroke="none" d="M 1548.027344 509.796875 C 1549.046143 509.789856 1550.064819 509.782837 1551.114502 509.775635 C 1554.388916 509.758179 1557.663086 509.75177 1560.9375 509.75 C 1562.057373 509.749329 1563.177246 509.748657 1564.331055 509.747925 C 1581.406616 509.764282 1598.111694 510.253723 1615 513 C 1616.05835 513.16626 1617.116699 513.332581 1618.207031 513.503906 C 1680.238403 523.532959 1737.315186 552.192932 1783.445313 594.664063 C 1785.619385 596.651978 1787.824219 598.585327 1790.0625 600.5 C 1797.633301 607.093445 1804.509644 614.354065 1811 622 C 1811.797974 622.908813 1812.595825 623.817566 1813.417969 624.753906 C 1846.387207 662.560547 1884 723.236633 1884 775 C 1878.290039 775.787842 1872.665649 776.223389 1866.907471 776.42395 C 1865.584961 776.474243 1865.584961 776.474243 1864.235718 776.525513 C 1861.299194 776.636353 1858.362549 776.742126 1855.425781 776.8479 C 1853.312622 776.926575 1851.199463 777.005554 1849.086426 777.084778 C 1843.356812 777.298706 1837.626953 777.50824 1831.897095 777.716797 C 1825.886719 777.936157 1819.876465 778.159058 1813.866211 778.38147 C 1803.765259 778.754578 1793.664185 779.124817 1783.562988 779.493408 C 1771.916016 779.918396 1760.269043 780.347961 1748.622314 780.78009 C 1737.391602 781.196594 1726.160889 781.609741 1714.930054 782.021484 C 1710.164917 782.196228 1705.39978 782.372131 1700.634644 782.549011 C 1695.007324 782.75769 1689.380005 782.963501 1683.752441 783.167053 C 1681.698364 783.241821 1679.644165 783.317566 1677.590088 783.39447 C 1672.200562 783.595764 1666.811157 783.775879 1661.419922 783.923828 C 1659.038452 783.998779 1656.659912 784.106567 1654.279907 784.217407 C 1652.838013 784.264099 1651.396118 784.309509 1649.954102 784.353516 C 1648.103882 784.429688 1648.103882 784.429688 1646.216309 784.507446 C 1642.042114 783.848877 1640.740845 782.297607 1638.125 779.0625 C 1637.440552 778.055725 1636.755981 777.04895 1636.050781 776.011719 C 1625.063965 759.876892 1602.538208 749.379272 1584.027344 745.691406 C 1559.577271 741.749817 1533.981934 745.528992 1513 759 C 1492.886841 773.907715 1479.351807 794.041443 1475.320313 819.007813 C 1471.532104 844.930481 1475.679565 871.427734 1490.859375 893.183594 C 1494.307129 897.719727 1498.06897 901.881714 1502 906 C 1502.538818 906.613586 1503.077637 907.227173 1503.632813 907.859375 C 1517.845337 923.428833 1541.166748 931.531982 1561.78125 932.90625 C 1562.513428 932.937195 1563.245605 932.96814 1564 933 C 1564.711548 933.051575 1565.423096 933.103149 1566.15625 933.15625 C 1585.845947 933.965454 1604.358765 927.771484 1620 916 C 1620.715454 915.468872 1621.430908 914.937805 1622.167969 914.390625 C 1636.878906 902.527893 1645.563843 884.08136 1652.6875 867.035156 C 1654 864 1654 864 1655 863 C 1657.632324 862.80304 1660.24292 862.669922 1662.879761 862.57605 C 1664.133667 862.525757 1664.133667 862.525757 1665.412964 862.474487 C 1668.237305 862.362427 1671.06189 862.257324 1673.886475 862.1521 C 1675.903564 862.073547 1677.920654 861.994568 1679.937622 861.915222 C 1685.44104 861.700012 1690.944702 861.490967 1696.448364 861.283203 C 1701.053833 861.108765 1705.65918 860.931213 1710.264526 860.753662 C 1721.156738 860.33374 1732.049072 859.918579 1742.94165 859.506592 C 1754.124268 859.083618 1765.306763 858.653625 1776.489014 858.21991 C 1786.114746 857.846802 1795.740479 857.477661 1805.366455 857.111572 C 1811.102905 856.893433 1816.839355 856.674072 1822.575684 856.450989 C 1868.381226 854.673523 1868.381226 854.673523 1890 855 C 1889.831909 857.033813 1889.66333 859.067566 1889.494751 861.101318 C 1889.400879 862.233887 1889.307129 863.366455 1889.210449 864.533325 C 1882.095703 948.365967 1844.783447 1032.090576 1780.117188 1087.46875 C 1778.272095 1088.969482 1776.418091 1090.459473 1774.554688 1091.9375 C 1772.252686 1093.796021 1770.098633 1095.731934 1767.9375 1097.75 C 1707.80603 1151.49585 1622.518311 1171.463135 1543.785156 1167.4375 C 1470.572632 1163.030518 1401.87915 1137.131348 1347 1088 C 1345.567139 1086.733521 1345.567139 1086.733521 1344.105469 1085.441406 C 1332.063599 1074.61853 1319.965088 1063.332764 1309.988281 1050.546875 C 1307.802856 1047.747314 1305.500244 1045.070068 1303.1875 1042.375 C 1248.352295 976.504883 1226.924438 887.679016 1233.75 803.3125 C 1238.650757 750.656128 1255.325195 699.373291 1286 656 C 1286.99585 654.58075 1286.99585 654.58075 1288.011719 653.132813 C 1295.599731 642.512695 1303.611816 632.243835 1312.515625 622.695313 C 1314.488647 620.55481 1316.400024 618.387024 1318.300781 616.183594 C 1322.012207 611.927124 1325.933838 607.917969 1329.9375 603.9375 C 1330.602051 603.269104 1331.266479 602.600708 1331.951172 601.912109 C 1336.468994 597.403137 1341.14209 593.138977 1346 589 C 1346.643066 588.450317 1347.286011 587.900574 1347.948486 587.334229 C 1403.54126 540.146729 1474.459961 510.138 1548.027344 509.796875 Z"/>
        <path id="path4" fill="#ffffff" fill-rule="evenodd" stroke="none" d="M 1551.114502 509.775635 L 1548.027344 509.796875 C 1474.459961 510.138 1403.54126 540.146729 1347.948486 587.334229 L 1346 589 C 1341.14209 593.138977 1336.468994 597.403137 1331.951172 601.912109 L 1329.9375 603.9375 C 1325.933838 607.917969 1322.012207 611.927124 1318.300781 616.183594 C 1316.400024 618.387024 1314.488647 620.55481 1312.515625 622.695313 C 1303.611816 632.243835 1295.599731 642.512695 1288.011719 653.132813 L 1286 656 C 1255.325195 699.373291 1238.650757 750.656128 1233.75 803.3125 C 1226.924438 887.679016 1248.352295 976.504883 1303.1875 1042.375 C 1305.500244 1045.070068 1307.802856 1047.747314 1309.988281 1050.546875 C 1319.965088 1063.332764 1332.063599 1074.61853 1344.105469 1085.441406 L 1347 1088 C 1401.87915 1137.131348 1470.572632 1163.030518 1543.785156 1167.4375 C 1622.518311 1171.463135 1707.80603 1151.49585 1767.9375 1097.75 C 1770.098633 1095.731934 1772.252686 1093.796021 1774.554688 1091.9375 C 1776.418091 1090.459473 1778.272095 1088.969482 1780.117188 1087.46875 C 1844.783447 1032.090576 1882.095703 948.365967 1889.210449 864.533325 L 1889.494751 861.101318 C 1889.66333 859.067566 1889.831909 857.033813 1890 855 C 1883.068726 854.895325 1878.359741 854.824219 1873.650879 854.834473 C 1863.672729 854.856262 1853.695435 855.243408 1822.575684 856.450989 C 1816.839355 856.674072 1811.102905 856.893433 1805.366455 857.111572 C 1795.740479 857.477661 1786.114746 857.846802 1776.489014 858.21991 C 1765.306763 858.653625 1754.124268 859.083618 1742.94165 859.506592 C 1732.049072 859.918579 1721.156738 860.33374 1710.264526 860.753662 C 1705.65918 860.931213 1701.053833 861.108765 1696.448364 861.283203 C 1690.944702 861.490967 1685.44104 861.700012 1679.937622 861.915222 C 1677.920654 861.994568 1675.903564 862.073547 1673.886475 862.1521 C 1671.06189 862.257324 1668.237305 862.362427 1665.412964 862.474487 L 1662.879761 862.57605 C 1660.24292 862.669922 1657.632324 862.80304 1655 863 C 1654 864 1654 864 1652.6875 867.035156 C 1645.563843 884.08136 1636.878906 902.527893 1622.167969 914.390625 L 1620 916 C 1604.358765 927.771484 1585.845947 933.965454 1566.15625 933.15625 L 1564 933 L 1561.78125 932.90625 C 1541.166748 931.531982 1517.845337 923.428833 1503.632813 907.859375 L 1502 906 C 1498.06897 901.881714 1494.307129 897.719727 1490.859375 893.183594 C 1475.679565 871.427734 1471.532104 844.930481 1475.320313 819.007813 C 1479.351807 794.041443 1492.886841 773.907715 1513 759 C 1533.981934 745.528992 1559.577271 741.749817 1584.027344 745.691406 C 1602.538208 749.379272 1625.063965 759.876892 1636.050781 776.011719 L 1638.125 779.0625 C 1640.740845 782.297607 1642.042114 783.848877 1646.216309 784.507446 L 1649.954102 784.353516 C 1651.396118 784.309509 1652.838013 784.264099 1654.279907 784.217407 C 1656.659912 784.106567 1659.038452 783.998779 1661.419922 783.923828 C 1666.811157 783.775879 1672.200562 783.595764 1677.590088 783.39447 C 1679.644165 783.317566 1681.698364 783.241821 1683.752441 783.167053 C 1689.380005 782.963501 1695.007324 782.75769 1700.634644 782.549011 C 1705.39978 782.372131 1710.164917 782.196228 1714.930054 782.021484 C 1726.160889 781.609741 1737.391602 781.196594 1748.622314 780.78009 C 1760.269043 780.347961 1771.916016 779.918396 1783.562988 779.493408 C 1793.664185 779.124817 1803.765259 778.754578 1813.866211 778.38147 C 1819.876465 778.159058 1825.886719 777.936157 1831.897095 777.716797 C 1837.626953 777.50824 1843.356812 777.298706 1849.086426 777.084778 C 1851.199463 777.005554 1853.312622 776.926575 1855.425781 776.8479 C 1858.362549 776.742126 1861.299194 776.636353 1864.235718 776.525513 L 1866.907471 776.42395 C 1872.665649 776.223389 1878.290039 775.787842 1884 775 C 1884 723.236633 1846.387207 662.560547 1813.417969 624.753906 L 1811 622 C 1804.509644 614.354065 1797.633301 607.093445 1790.0625 600.5 C 1787.824219 598.585327 1785.619385 596.651978 1783.445313 594.664063 C 1737.315186 552.192932 1680.238403 523.532959 1618.207031 513.503906 L 1615 513 C 1598.111694 510.253723 1581.406616 509.764282 1564.331055 509.747925 L 1560.9375 509.75 C 1557.663086 509.75177 1554.388916 509.758179 1551.114502 509.775635 Z M 1548.227173 538.796204 L 1548.239136 538.796082 L 1551.313477 538.774963 C 1554.213989 538.759521 1557.301392 538.751953 1560.953125 538.75 L 1564.349487 538.747925 C 1583.976196 538.766785 1597.337524 539.508789 1610.345337 541.624023 L 1610.499512 541.648682 L 1613.578491 542.132446 L 1613.705444 542.15271 C 1669.310791 551.169128 1721.293945 576.861755 1763.802856 615.99884 C 1766.145874 618.141479 1768.511597 620.226013 1771.102783 622.444153 C 1777.000977 627.590027 1782.796021 633.586609 1788.891357 640.767212 C 1788.995972 640.890381 1789.101563 641.012695 1789.20813 641.134094 L 1789.213379 641.140137 L 1789.220093 641.147766 L 1791.626099 643.888 C 1819.987183 676.410522 1842.437988 715.047302 1851.116333 747.988464 L 1847.999878 748.105164 C 1842.977661 748.292664 1837.902588 748.479004 1830.842285 748.735962 C 1826.43103 748.896973 1822.905029 749.027039 1814.979004 749.320435 L 1812.793823 749.401306 C 1803.299683 749.752014 1793.390015 750.11554 1782.505493 750.512695 C 1771.568237 750.911804 1760.149048 751.332458 1747.547119 751.800049 C 1737.274658 752.180969 1726.537842 752.576416 1713.867554 753.040955 C 1709.195679 753.21228 1704.434937 753.388 1699.55896 753.56897 C 1694.097412 753.771484 1688.498169 753.97644 1682.704224 754.186035 C 1680.585327 754.263123 1678.525269 754.339111 1676.505127 754.414795 C 1670.898438 754.624207 1665.661865 754.796509 1660.62439 754.934753 L 1660.50769 754.938171 C 1659.238037 754.978149 1658.041748 755.022766 1656.618164 755.08313 C 1641.196533 735.76062 1615.636719 722.418945 1589.693604 717.250366 C 1589.344482 717.180786 1588.994263 717.117676 1588.642822 717.061035 C 1556.319702 711.850281 1523.80481 717.600525 1497.332275 734.596619 C 1496.786499 734.947021 1496.252686 735.315674 1495.731567 735.701843 C 1469.079712 755.456055 1451.854248 782.410767 1446.691162 814.384888 C 1446.668091 814.527893 1446.645996 814.671082 1446.625122 814.814453 C 1441.600708 849.196106 1448.140381 882.63855 1467.076416 909.777832 C 1467.301514 910.100525 1467.533203 910.41864 1467.771362 910.731934 C 1471.521729 915.666199 1475.508179 920.225769 1480.596558 925.576416 L 1481.842285 926.994995 C 1481.965088 927.134827 1482.089233 927.273438 1482.2146 927.410889 C 1500.959473 947.945374 1530.264404 959.869568 1559.852295 961.842041 C 1560.086914 961.857666 1560.321777 961.870483 1560.556641 961.880371 L 1562.339233 961.955688 L 1564.061279 962.080505 C 1564.362386 962.102275 1564.663778 962.119364 1564.965454 962.131775 C 1591.090698 963.205505 1616.148926 955.141724 1637.286011 939.285034 L 1637.294067 939.279053 L 1637.438843 939.17157 L 1639.454224 937.675476 C 1639.764893 937.444885 1640.070801 937.20813 1640.371948 936.965271 C 1650.159424 929.072815 1658.182861 919.254944 1665.186401 907.499939 C 1668.261841 902.337952 1670.987793 897.118958 1673.759399 891.177002 L 1674.819946 891.137451 L 1674.966064 891.132019 C 1677.001587 891.052795 1679.02002 890.973755 1681.077515 890.892822 C 1685.878662 890.705078 1690.707031 890.520569 1697.542358 890.262573 C 1701.392578 890.116699 1704.467163 889.998718 1711.381714 889.732117 C 1721.77356 889.331482 1732.549927 888.920349 1744.03772 888.485901 C 1754.488525 888.090576 1765.412109 887.671326 1777.612915 887.19812 C 1786.939209 886.836609 1796.517822 886.469055 1806.468628 886.090637 C 1813.185547 885.835205 1818.536377 885.630005 1823.702637 885.429077 C 1840.52478 884.776306 1850.719727 884.388611 1857.688477 884.15918 C 1846.738281 955.531128 1812.554321 1021.37854 1761.529297 1065.205811 C 1759.852661 1066.567749 1758.187988 1067.904419 1756.533081 1069.217041 C 1756.467651 1069.268799 1756.402466 1069.321045 1756.337646 1069.373413 C 1753.71106 1071.493896 1751.241211 1073.670288 1748.388672 1076.327148 C 1698.436279 1120.840942 1623.873413 1142.43811 1545.527588 1138.489868 L 1545.400391 1138.482178 L 1545.266113 1138.473999 C 1476.501221 1134.282227 1414.789307 1109.765625 1366.343384 1066.393677 L 1366.205688 1066.27124 L 1364.780762 1065.011719 L 1363.491455 1063.871948 L 1363.313354 1063.713135 C 1348.562622 1050.448853 1340.059326 1041.943848 1332.851563 1032.706665 C 1330.870483 1030.168945 1329.048706 1027.983765 1326.086304 1024.528198 C 1325.879883 1024.287231 1325.687378 1024.06311 1325.342773 1023.66156 C 1278.139404 966.859924 1256.092651 887.289856 1262.640991 805.831421 C 1267.313843 755.904785 1283.194336 710.190857 1309.677002 672.745056 L 1309.739014 672.657043 L 1310.730225 671.244385 L 1311.608521 669.992615 L 1311.752563 669.789307 C 1319.411865 659.082458 1326.476563 650.246399 1333.72522 642.472839 L 1333.838989 642.35022 C 1335.874878 640.141541 1337.909302 637.848511 1340.158813 635.242676 L 1340.20166 635.193054 C 1342.933228 632.063538 1345.978638 628.882874 1350.383911 624.503052 L 1350.502686 624.384338 L 1350.514648 624.372314 L 1352.437256 622.438477 L 1352.515625 622.359985 C 1356.30896 618.578491 1360.364868 614.859497 1364.807495 611.074341 L 1364.85498 611.033813 L 1366.715088 609.443604 L 1366.792969 609.377258 C 1419.400391 564.752686 1484.087891 539.093689 1548.161865 538.79657 L 1548.227173 538.796204 Z"/>
    </g>
    <g id="g2">
        <path id="path5" fill="#000000" stroke="none" d="M 1993 290 C 2071.209961 290 2149.419922 290 2230 290 C 2230 575.119995 2230 860.23999 2230 1154 C 2151.790039 1154 2073.580078 1154 1993 1154 C 1993 868.880005 1993 583.76001 1993 290 Z"/>
        <path id="path6" fill="#ffffff" fill-rule="evenodd" stroke="none" d="M 2230 290 L 1993 290 L 1993 1154 L 2230 1154 L 2230 290 Z M 2022 1125 L 2022 319 L 2201 319 L 2201 1125 L 2022 1125 Z"/>
    </g>
    <g id="g3">
        <path id="path7" fill="#010101" stroke="none" d="M 3001.875 227.1875 C 3037.623779 260.108154 3062.811768 307.153442 3065.106201 356.275635 C 3065.163086 358.638611 3065.190674 360.999634 3065.203125 363.363281 C 3065.20874 364.235352 3065.2146 365.107422 3065.220459 366.00592 C 3065.229736 367.845459 3065.236328 369.685059 3065.240234 371.524658 C 3065.249756 374.267395 3065.280762 377.009399 3065.3125 379.751953 C 3065.4104 395.952637 3063.538574 411.694214 3059.375 427.375 C 3059.177734 428.197388 3058.980469 429.019836 3058.777344 429.867188 C 3053.911133 448.5625 3044.752197 466.02478 3035.875 483.0625 C 3034.848389 485.049866 3033.82251 487.037659 3032.797607 489.025879 C 3030.312256 493.84198 3027.817383 498.652954 3025.318115 503.461853 C 3023.497314 506.968018 3021.683594 510.477783 3019.871094 513.988281 C 3017.521973 518.535889 3015.168701 523.081116 3012.8125 527.625 C 3009.881836 533.284546 3006.96875 538.952881 3004.0625 544.625 C 3003.62915 545.470886 3003.195557 546.316772 3002.749023 547.188232 C 3000.631836 551.321228 2998.515869 555.454834 2996.401611 559.589355 C 2989.999268 572.094971 2983.499268 584.542908 2977 597 C 3024.024902 597.494995 3024.024902 597.494995 3072 598 C 3072 653.109985 3072 708.219971 3072 765 C 2948.909912 765 2825.820068 765 2699 765 C 2700.434326 760.696777 2701.779297 757.231323 2703.835938 753.28125 C 2704.399414 752.195557 2704.962891 751.109802 2705.543457 749.991211 C 2706.450195 748.263062 2706.450195 748.263062 2707.375 746.5 C 2708.007813 745.286865 2708.640381 744.073669 2709.272949 742.860352 C 2713.618652 734.544067 2718.076416 726.291626 2722.599121 718.070313 C 2726.155762 711.592041 2729.600098 705.061646 2733 698.5 C 2736.890869 690.99115 2740.863037 683.535889 2744.9375 676.125 C 2749.235596 668.305176 2753.404541 660.427734 2757.5 652.5 C 2762.068359 643.656494 2766.755371 634.890259 2771.550781 626.167969 C 2775.121582 619.656128 2778.583252 613.09375 2782 606.5 C 2785.891113 598.99115 2789.863037 591.535889 2793.9375 584.125 C 2798.235596 576.305176 2802.404541 568.427734 2806.5 560.5 C 2811.068359 551.656494 2815.755371 542.890259 2820.550781 534.167969 C 2824.121582 527.656128 2827.583252 521.09375 2831 514.5 C 2835.390625 506.027405 2839.905518 497.633057 2844.5 489.269531 C 2848.085938 482.723083 2851.565674 476.127197 2855 469.5 C 2858.912598 461.950073 2862.906006 454.453125 2867 447 C 2872.698975 436.615356 2878.223633 426.146301 2883.649902 415.616699 C 2884.513916 413.942017 2885.381104 412.269043 2886.252441 410.598145 C 2893.722656 396.270264 2899.084473 382.851685 2895.15625 366.484375 C 2892.645752 359.733398 2889.269775 354.685669 2883 351 C 2870.143311 345.492371 2857.472412 344.153931 2844.148438 348.679688 C 2832.957764 353.372559 2826.822266 361.08667 2822 372 C 2818.97998 381.509583 2820.512695 392.023193 2824.359375 400.976563 C 2826.584473 405.077026 2829.270264 408.562378 2832.328125 412.074219 C 2834 414 2834 414 2835 416 C 2834.126465 418.065186 2834.126465 418.065186 2832.710938 420.636719 C 2832.188232 421.594421 2831.665771 422.552124 2831.127197 423.538818 C 2830.549072 424.577881 2829.970703 425.616943 2829.375 426.6875 C 2828.783203 427.764587 2828.191406 428.841675 2827.581787 429.951416 C 2822.562256 439.060425 2817.450684 448.117676 2812.3125 457.160156 C 2808.871338 463.218079 2805.463867 469.294617 2802.0625 475.375 C 2801.481201 476.41394 2800.899902 477.45282 2800.301025 478.523193 C 2799.122559 480.629639 2797.944336 482.736206 2796.766113 484.842773 C 2793.269287 491.093872 2789.768799 497.342896 2786.267822 503.591553 C 2783.246826 508.984253 2780.229736 514.379028 2777.21875 519.777344 C 2776.284912 521.44989 2776.284912 521.44989 2775.332031 523.15625 C 2774.151123 525.271423 2772.971191 527.387268 2771.792969 529.503906 C 2768.308838 535.740479 2764.714111 541.897583 2761 548 C 2748.181641 541.59082 2736.993896 532.299377 2726.648438 522.472656 C 2724.750732 520.700806 2722.862305 519.036194 2720.859375 517.394531 C 2717.099121 514.245605 2714.125732 510.766113 2711 507 C 2710.361572 506.246155 2710.361572 506.246155 2709.710449 505.477051 C 2678.716797 468.761719 2663.78418 424.587463 2663.75 376.75 C 2663.749268 375.904053 2663.748535 375.058167 2663.748047 374.186584 C 2663.764648 360.920776 2664.303711 348.030334 2667 335 C 2667.249512 333.770752 2667.249512 333.770752 2667.503906 332.516602 C 2678.582764 279.80957 2711.855225 234.064331 2756.618408 204.533447 C 2833.685059 154.912109 2934.805176 166.713867 3001.875 227.1875 Z"/>
        <path id="path8" fill="#ffffff" fill-rule="evenodd" stroke="none" d="M 3065.106201 356.275635 C 3062.811768 307.153442 3037.623779 260.108154 3001.875 227.1875 C 2934.805176 166.713867 2833.685059 154.912109 2756.618408 204.533447 C 2711.855225 234.064331 2678.582764 279.80957 2667.503906 332.516602 L 2667 335 C 2664.303711 348.030334 2663.764648 360.920776 2663.748047 374.186584 L 2663.75 376.75 C 2663.78418 424.587463 2678.716797 468.761719 2709.710449 505.477051 L 2711 507 C 2714.125732 510.766113 2717.099121 514.245605 2720.859375 517.394531 C 2722.862305 519.036194 2724.750732 520.700806 2726.648438 522.472656 C 2736.993896 532.299377 2748.181641 541.59082 2761 548 C 2764.714111 541.897583 2768.308838 535.740479 2771.792969 529.503906 C 2772.971191 527.387268 2774.151123 525.271423 2775.332031 523.15625 L 2777.21875 519.777344 C 2780.229736 514.379028 2783.246826 508.984253 2786.267822 503.591553 C 2789.768799 497.342896 2793.269287 491.093872 2796.766113 484.842773 L 2800.301025 478.523193 L 2802.0625 475.375 C 2805.463867 469.294617 2808.871338 463.218079 2812.3125 457.160156 C 2817.450684 448.117676 2822.562256 439.060425 2827.581787 429.951416 L 2829.375 426.6875 L 2831.127197 423.538818 L 2832.710938 420.636719 C 2834.126465 418.065186 2834.126465 418.065186 2835 416 C 2834 414 2834 414 2832.328125 412.074219 C 2829.270264 408.562378 2826.584473 405.077026 2824.359375 400.976563 C 2820.512695 392.023193 2818.97998 381.509583 2822 372 C 2826.822266 361.08667 2832.957764 353.372559 2844.148438 348.679688 C 2857.472412 344.153931 2870.143311 345.492371 2883 351 C 2889.269775 354.685669 2892.645752 359.733398 2895.15625 366.484375 C 2899.084473 382.851685 2893.722656 396.270264 2886.252441 410.598145 C 2885.381104 412.269043 2884.513916 413.942017 2883.649902 415.616699 C 2878.223633 426.146301 2872.698975 436.615356 2867 447 C 2862.906006 454.453125 2858.912598 461.950073 2855 469.5 C 2851.565674 476.127197 2848.085938 482.723083 2844.5 489.269531 C 2839.905518 497.633057 2835.390625 506.027405 2831 514.5 C 2827.583252 521.09375 2824.121582 527.656128 2820.550781 534.167969 C 2815.755371 542.890259 2811.068359 551.656494 2806.5 560.5 C 2802.404541 568.427734 2798.235596 576.305176 2793.9375 584.125 C 2789.863037 591.535889 2785.891113 598.99115 2782 606.5 C 2778.583252 613.09375 2775.121582 619.656128 2771.550781 626.167969 C 2766.755371 634.890259 2762.068359 643.656494 2757.5 652.5 C 2753.404541 660.427734 2749.235596 668.305176 2744.9375 676.125 C 2740.863037 683.535889 2736.890869 690.99115 2733 698.5 C 2729.600098 705.061646 2726.155762 711.592041 2722.599121 718.070313 C 2718.076416 726.291626 2713.618652 734.544067 2709.272949 742.860352 L 2707.375 746.5 L 2705.543457 749.991211 L 2703.835938 753.28125 C 2701.779297 757.231323 2700.434326 760.696777 2699 765 L 3072 765 L 3072 598 L 2977 597 C 2983.499268 584.542908 2989.999268 572.094971 2996.401611 559.589355 C 2998.515869 555.454834 3000.631836 551.321228 3002.749023 547.188232 L 3004.0625 544.625 C 3006.96875 538.952881 3009.881836 533.284546 3012.8125 527.625 C 3015.168701 523.081116 3017.521973 518.535889 3019.871094 513.988281 C 3021.683594 510.477783 3023.497314 506.968018 3025.318115 503.461853 C 3027.817383 498.652954 3030.312256 493.84198 3032.797607 489.025879 C 3033.82251 487.037659 3034.848389 485.049866 3035.875 483.0625 C 3044.752197 466.02478 3053.911133 448.5625 3058.777344 429.867188 L 3059.375 427.375 C 3063.538574 411.694214 3065.4104 395.952637 3065.3125 379.751953 C 3065.280762 377.009399 3065.249756 374.267395 3065.240234 371.524658 C 3065.236328 369.685059 3065.229736 367.845459 3065.220459 366.00592 L 3065.203125 363.363281 C 3065.190674 360.999634 3065.163086 358.638611 3065.106201 356.275635 Z M 2982.454102 248.726746 C 3014.035645 277.911224 3034.19043 318.052429 3036.122314 357.309784 C 3036.165771 359.214355 3036.19165 361.234344 3036.203613 363.516052 L 3036.221191 366.195038 C 3036.22998 367.96347 3036.236572 369.774841 3036.240234 371.586243 C 3036.248779 374.001007 3036.267334 376.011719 3036.3125 379.927185 L 3036.313477 379.995636 C 3036.39209 393.902771 3034.77002 407.037811 3031.346191 419.93277 C 3031.286377 420.158051 3031.229248 420.384033 3031.175049 420.610657 L 3030.647705 422.80954 C 3027.511475 434.752625 3022.624512 445.705475 3011.791748 466.522949 L 3010.976807 468.088348 L 3010.156494 469.662384 L 3010.109619 469.752899 C 3009.04834 471.80722 3008.022217 473.795929 3007.020752 475.738312 C 3004.75415 480.130768 3002.366455 484.73822 2999.585938 490.088348 C 2997.983154 493.174622 2996.409424 496.216797 2994.103027 500.68399 C 2991.868164 505.010162 2989.544922 509.498596 2987.067871 514.275269 C 2984.36792 519.489197 2981.576416 524.9151 2978.253174 531.40094 L 2976.939941 533.963684 C 2974.717529 538.301819 2972.614746 542.410156 2970.581787 546.385925 C 2965.907227 555.516235 2961.476074 564.057983 2953.95874 578.468323 L 2951.434082 583.307434 L 2951.289063 583.585693 C 2941.277588 602.774292 2955.052734 625.770569 2976.694824 625.998413 L 3023.481934 626.490906 L 3043 626.69635 L 3043 736 L 2745.84082 736 C 2746.551025 734.700806 2747.273193 733.384094 2748.008057 732.048279 C 2751.40918 725.853271 2754.834473 719.396118 2758.748779 711.841675 C 2762.600342 704.408508 2766.459229 697.173218 2770.349854 690.096619 C 2774.556152 682.443909 2778.796143 674.460693 2783.265137 665.810181 C 2787.611328 657.396729 2792.164551 648.86792 2796.963379 640.139465 C 2800.387695 633.894714 2803.838379 627.387939 2807.748535 619.842346 C 2811.60376 612.402405 2815.462402 605.167786 2819.349854 598.096619 C 2823.556152 590.443909 2827.796143 582.460693 2832.265137 573.810181 C 2836.611328 565.396729 2841.164551 556.86792 2845.963379 548.139465 C 2849.387695 541.894714 2852.838379 535.387939 2856.748535 527.842346 C 2860.76416 520.093201 2865.074951 512.047119 2869.917236 503.232452 C 2873.363281 496.941437 2876.838867 490.386444 2880.748047 482.843079 C 2884.619141 475.373108 2888.501465 468.091431 2892.417725 460.961975 C 2897.931641 450.914734 2903.499023 440.406586 2909.428223 428.901184 C 2910.296143 427.218903 2911.140869 425.590088 2911.966064 424.007294 C 2917.402344 413.580902 2920.874023 405.368774 2923.126465 396.285492 C 2926.118896 384.21637 2926.333008 372.123108 2923.355469 359.716461 C 2923.083496 358.583649 2922.743652 357.468292 2922.337646 356.376373 C 2917.4375 343.199677 2909.81543 333.123749 2897.696289 325.999664 C 2896.640137 325.378784 2895.545654 324.825439 2894.419434 324.343018 C 2874.647705 315.872986 2854.729004 314.458527 2834.821289 321.22052 C 2834.183838 321.437042 2833.554199 321.67569 2832.93335 321.936066 C 2815.030029 329.443909 2803.517578 342.075867 2795.474121 360.279053 C 2795.049805 361.239258 2794.677979 362.221771 2794.360352 363.22229 C 2789.249268 379.31604 2790.963867 396.71167 2797.714355 412.424164 C 2798.063232 413.235992 2798.448975 414.031433 2798.870361 414.808044 C 2799.520264 416.005432 2800.189941 417.167175 2800.885498 418.304779 C 2796.872314 425.559296 2792.574951 433.19574 2787.098633 442.833008 C 2784.056396 448.188934 2781.068359 453.503387 2776.753418 461.217072 L 2776.751221 461.220947 L 2774.99292 464.363281 L 2771.456055 470.686584 C 2768.440186 476.077698 2765.513428 481.304016 2760.968018 489.416718 C 2757.742188 495.175079 2754.757324 500.513702 2751.89209 505.65097 L 2751.647461 506.08902 C 2750.019531 504.631592 2748.34668 503.085724 2746.620605 501.446198 C 2746.560547 501.389089 2746.500244 501.332265 2746.439697 501.275726 C 2744.091553 499.083435 2741.785645 497.055725 2739.391602 495.087891 C 2737.898682 493.823883 2736.406494 492.2034 2733.31543 488.479095 C 2733.253906 488.405121 2733.192139 488.331451 2733.130127 488.258118 L 2732.496582 487.509979 L 2731.84375 486.738983 C 2705.909424 456.016754 2692.780029 418.737061 2692.75 376.729279 L 2692.75 376.718872 L 2692.748047 374.170349 C 2692.765869 359.958771 2693.480225 350.146515 2695.398438 340.876312 L 2695.42041 340.768768 L 2695.668945 339.543884 L 2695.884277 338.482086 L 2695.926025 338.281799 C 2705.195557 294.463654 2733.022949 254.938354 2772.319092 228.91803 L 2772.45166 228.830338 C 2772.49707 228.800308 2772.54248 228.770294 2772.589111 228.742096 C 2837.177246 187.335159 2923.722412 195.947906 2982.22876 248.521393 L 2982.339111 248.620743 C 2982.37793 248.655579 2982.416748 248.690445 2982.454102 248.726746 Z"/>
    </g>
    <g id="g4">
        <path id="path9" fill="#000000" stroke="none" d="M 2345 523 C 2426.51001 523 2508.02002 523 2592 523 C 2589.75 529.750122 2589.75 529.750122 2588.118408 533.010437 C 2587.751465 533.748474 2587.384521 534.486572 2587.006592 535.246948 C 2586.409668 536.43219 2586.409668 536.43219 2585.800781 537.641357 C 2585.166016 538.913635 2585.166016 538.913635 2584.518555 540.211609 C 2583.120361 543.011536 2581.716553 545.808533 2580.3125 548.605469 C 2579.330078 550.569031 2578.348145 552.532776 2577.366211 554.496643 C 2575.303955 558.619385 2573.239258 562.740723 2571.172363 566.861084 C 2568.550781 572.087585 2565.934082 577.316711 2563.31958 582.546753 C 2561.287598 586.610168 2559.253662 590.672546 2557.218994 594.734558 C 2556.255615 596.658447 2555.29248 598.58252 2554.330078 600.506897 C 2549.657715 609.843811 2544.947998 619.153992 2540.057373 628.378662 C 2534.844238 638.216919 2529.859863 648.164734 2524.896973 658.131104 C 2523.287354 661.363281 2521.675049 664.594116 2520.062256 667.824585 C 2516.643311 674.673584 2513.227783 681.52417 2509.8125 688.375 C 2505.838379 696.347107 2501.862793 704.318481 2497.883789 712.288208 C 2496.307617 715.447266 2494.733643 718.607544 2493.159912 721.767944 C 2492.181885 723.727356 2491.204102 725.686707 2490.22583 727.645996 C 2489.767578 728.567932 2489.309082 729.489868 2488.836914 730.439758 C 2485.782959 736.54834 2482.548096 742.499939 2479.037354 748.360474 C 2477.078125 753.345703 2479.082031 757.650879 2481.110352 762.345703 C 2481.549316 763.370789 2481.988281 764.395874 2482.440674 765.452026 C 2482.919189 766.550659 2483.397705 767.649292 2483.890625 768.78125 C 2484.386475 769.933716 2484.88208 771.086182 2485.392822 772.27356 C 2486.729004 775.375916 2488.070801 778.475647 2489.415283 781.57428 C 2490.816162 784.806519 2492.209473 788.042114 2493.603516 791.277344 C 2496.727051 798.522034 2499.862305 805.761536 2503 813 C 2503.673828 814.555969 2504.347656 816.111938 2505.021484 817.667969 C 2506.989014 822.210938 2508.958008 826.753052 2510.931396 831.293457 C 2519.10083 850.10791 2527.143555 868.977173 2535.217773 887.832703 C 2540.312988 899.731689 2545.411621 911.629028 2550.510986 923.526184 C 2553.007568 929.350708 2555.503662 935.175354 2558 941 C 2559 943.333374 2560 945.666626 2561 948 C 2571 971.333374 2581 994.666626 2591 1018 C 2591.494873 1019.154907 2591.98999 1020.309753 2592.499756 1021.499634 C 2593.500488 1023.834229 2594.500977 1026.168945 2595.501465 1028.50354 C 2597.99292 1034.31665 2600.484131 1040.129883 2602.97583 1045.942871 C 2607.847168 1057.308472 2612.717529 1068.674561 2617.584961 1080.041748 C 2619.434814 1084.36145 2621.284912 1088.680908 2623.13501 1093.000488 C 2624.162354 1095.39917 2625.189697 1097.797852 2626.217041 1100.196533 C 2630.924316 1111.187256 2635.632324 1122.17749 2640.394531 1133.144531 C 2640.714111 1133.880371 2641.033447 1134.616211 2641.362793 1135.374268 C 2642.771729 1138.617188 2644.184082 1141.858398 2645.600342 1145.098145 C 2646.062256 1146.157593 2646.52417 1147.217041 2647 1148.308594 C 2647.391846 1149.203857 2647.783691 1150.098877 2648.1875 1151.02124 C 2649 1153 2649 1153 2649 1154 C 2562.209961 1154 2475.419922 1154 2386 1154 C 2375.673828 1126.463623 2375.673828 1126.463623 2372.378906 1117.164063 C 2371.805908 1115.555176 2371.805908 1115.555176 2371.221191 1113.913818 C 2370.414551 1111.648926 2369.608887 1109.383911 2368.803955 1107.118408 C 2366.627686 1100.994141 2364.444336 1094.872192 2362.261719 1088.75 C 2361.598145 1086.887695 2361.598145 1086.887695 2360.921143 1084.988037 C 2356.596924 1072.858154 2352.240723 1060.739868 2347.875 1048.625 C 2347.506348 1047.602051 2347.137939 1046.579102 2346.758301 1045.525269 C 2344.904541 1040.380615 2343.050293 1035.236084 2341.195801 1030.091797 C 2337.565186 1020.020508 2333.938721 1009.947754 2330.3125 999.875 C 2329.94751 998.861084 2329.58252 997.847229 2329.206299 996.802612 C 2320.273926 971.991943 2311.357422 947.175537 2302.440674 922.359131 C 2297.843018 909.562683 2293.244385 896.766541 2288.645752 883.970459 C 2286.979004 879.33313 2285.3125 874.69574 2283.645996 870.05835 C 2278.193359 854.88562 2278.193359 854.88562 2272.740479 839.713013 C 2272.233154 838.301758 2271.726074 836.890381 2271.21875 835.479065 C 2269.952148 831.954773 2268.685303 828.430542 2267.418213 824.906372 C 2264.95752 818.062134 2262.499512 811.216919 2260.047119 804.369629 C 2259.11499 801.768433 2258.182617 799.167358 2257.25 796.566406 C 2257.024414 795.937073 2256.798828 795.307739 2256.566162 794.659363 C 2253.553711 786.262573 2250.487549 777.887573 2247.375 769.527344 C 2246.371582 766.81189 2245.369385 764.095886 2244.36792 761.379639 C 2243.46875 758.959351 2242.550293 756.547058 2241.630615 754.134521 C 2241.105469 752.712463 2240.581543 751.290039 2240.058594 749.867188 C 2239.60791 748.672058 2239.157471 747.476929 2238.693115 746.245605 C 2237.4646 740.492981 2240.302979 736.148499 2242.871094 731.097656 C 2243.439453 729.972778 2244.007568 728.8479 2244.593018 727.688965 C 2244.893311 727.098633 2245.193604 726.508301 2245.503174 725.900085 C 2247.10791 722.744141 2248.69873 719.581177 2250.289063 716.417969 C 2250.609375 715.781311 2250.929688 715.144653 2251.259766 714.488708 C 2254.020996 708.986816 2256.682617 703.440796 2259.3125 697.875 C 2263.903076 688.179138 2268.685059 678.585632 2273.5 669 C 2278.231201 659.580688 2282.93335 650.155701 2287.4375 640.625 C 2292.520752 629.87085 2297.85791 619.248596 2303.195557 608.619263 C 2308.167725 598.713684 2313.063477 588.782349 2317.797607 578.760254 C 2322.694092 568.444397 2327.846191 558.255005 2332.988525 548.060059 C 2333.340576 547.360046 2333.692871 546.659973 2334.055664 545.938721 C 2334.704834 544.648071 2335.355957 543.358276 2336.009033 542.06958 C 2339.171387 535.77887 2342.042969 529.406799 2345 523 Z"/>
        <path id="path10" fill="#ffffff" fill-rule="evenodd" stroke="none" d="M 2592 523 L 2345 523 C 2342.042969 529.406799 2339.171387 535.77887 2336.009033 542.06958 C 2335.355957 543.358276 2334.704834 544.648071 2334.055664 545.938721 L 2332.988525 548.060059 C 2327.846191 558.255005 2322.694092 568.444397 2317.797607 578.760254 C 2313.063477 588.782349 2308.167725 598.713684 2303.195557 608.619263 C 2297.85791 619.248596 2292.520752 629.87085 2287.4375 640.625 C 2282.93335 650.155701 2278.231201 659.580688 2273.5 669 C 2268.685059 678.585632 2263.903076 688.179138 2259.3125 697.875 C 2256.682617 703.440796 2254.020996 708.986816 2251.259766 714.488708 L 2250.289063 716.417969 C 2248.69873 719.581177 2247.10791 722.744141 2245.503174 725.900085 L 2244.593018 727.688965 L 2242.871094 731.097656 C 2242.569092 731.691406 2242.263672 732.275391 2241.961182 732.853027 C 2239.691895 737.189392 2237.609131 741.16925 2238.693115 746.245605 L 2240.058594 749.867188 C 2240.581543 751.290039 2241.105469 752.712463 2241.630615 754.134521 C 2242.550293 756.547058 2243.46875 758.959351 2244.36792 761.379639 C 2245.369385 764.095886 2246.371582 766.81189 2247.375 769.527344 C 2250.487549 777.887573 2253.553711 786.262573 2256.566162 794.659363 L 2257.25 796.566406 C 2258.182617 799.167358 2259.11499 801.768433 2260.047119 804.369629 C 2262.499512 811.216919 2264.95752 818.062134 2267.418213 824.906372 L 2271.21875 835.479065 L 2272.740479 839.713013 L 2283.645996 870.05835 L 2288.645752 883.970459 C 2293.244385 896.766541 2297.843018 909.562683 2302.440674 922.359131 C 2311.357422 947.175537 2320.273926 971.991943 2329.206299 996.802612 L 2330.3125 999.875 C 2333.938721 1009.947754 2337.565186 1020.020508 2341.195801 1030.091797 C 2343.050293 1035.236084 2344.904541 1040.380615 2346.758301 1045.525269 L 2347.875 1048.625 C 2352.240723 1060.739868 2356.596924 1072.858154 2360.921143 1084.988037 L 2362.261719 1088.75 C 2364.444336 1094.872192 2366.627686 1100.994141 2368.803955 1107.118408 C 2369.608887 1109.383911 2370.414551 1111.648926 2371.221191 1113.913818 L 2372.378906 1117.164063 C 2375.673828 1126.463623 2375.673828 1126.463623 2386 1154 L 2649 1154 C 2649 1153 2649 1153 2648.1875 1151.02124 L 2647 1148.308594 L 2645.600342 1145.098145 C 2644.184082 1141.858398 2642.771729 1138.617188 2641.362793 1135.374268 L 2640.394531 1133.144531 C 2635.632324 1122.17749 2630.924316 1111.187256 2626.217041 1100.196533 L 2623.13501 1093.000488 L 2617.584961 1080.041748 C 2612.717529 1068.674561 2607.847168 1057.308472 2602.97583 1045.942871 L 2595.501465 1028.50354 L 2592.499756 1021.499634 L 2591 1018 L 2558 941 L 2550.510986 923.526184 C 2545.411621 911.629028 2540.312988 899.731689 2535.217773 887.832703 C 2527.143555 868.977173 2519.10083 850.10791 2510.931396 831.293457 C 2508.958008 826.753052 2506.989014 822.210938 2505.021484 817.667969 L 2503 813 C 2499.862305 805.761536 2496.727051 798.522034 2493.603516 791.277344 C 2492.209473 788.042114 2490.816162 784.806519 2489.415283 781.57428 C 2488.070801 778.475647 2486.729004 775.375916 2485.392822 772.27356 L 2483.890625 768.78125 L 2482.440674 765.452026 L 2481.110352 762.345703 L 2480.911133 761.885132 C 2478.954834 757.367859 2477.142334 753.182251 2479.037354 748.360474 C 2482.548096 742.499939 2485.782959 736.54834 2488.836914 730.439758 L 2490.22583 727.645996 L 2493.159912 721.767944 C 2494.733643 718.607544 2496.307617 715.447266 2497.883789 712.288208 C 2501.862793 704.318481 2505.838379 696.347107 2509.8125 688.375 C 2513.227783 681.52417 2516.643311 674.673584 2520.062256 667.824585 C 2521.675049 664.594116 2523.287354 661.363281 2524.896973 658.131104 C 2529.859863 648.164734 2534.844238 638.216919 2540.057373 628.378662 C 2544.947998 619.153992 2549.657715 609.843811 2554.330078 600.506897 C 2555.29248 598.58252 2556.255615 596.658447 2557.218994 594.734558 C 2559.253662 590.672546 2561.287598 586.610168 2563.31958 582.546753 C 2565.934082 577.316711 2568.550781 572.087585 2571.172363 566.861084 C 2573.239258 562.740723 2575.303955 558.619385 2577.366211 554.496643 C 2578.348145 552.532776 2579.330078 550.569031 2580.3125 548.605469 C 2581.716553 545.808533 2583.120361 543.011536 2584.518555 540.211609 L 2585.800781 537.641357 L 2587.006592 535.246948 L 2588.118408 533.010437 C 2589.75 529.750122 2589.75 529.750122 2592 523 Z M 2363.453857 552 L 2546.182861 552 L 2545.250977 553.858093 C 2542.84082 558.662842 2540.326904 563.684937 2537.380127 569.57959 C 2535.542969 573.253479 2533.625488 577.084229 2531.290039 581.746643 C 2530.183105 583.957092 2529.269287 585.782776 2528.392822 587.5354 C 2522.74292 598.82605 2518.613281 606.914734 2514.435547 614.7948 C 2509.822998 623.499756 2505.669922 631.684082 2498.9375 645.204224 C 2497.534668 648.021179 2496.128174 650.84082 2494.115967 654.871094 C 2491.199219 660.714172 2488.512939 666.100586 2483.858887 675.436523 C 2479.394775 684.391296 2475.584229 692.030396 2471.937744 699.33429 C 2470.579834 702.055847 2469.306152 704.612427 2467.200195 708.841309 L 2466.234375 710.77655 L 2464.280273 714.691345 L 2462.868164 717.531311 C 2460.085205 723.097656 2457.198975 728.383667 2454.159668 733.45752 C 2453.338135 734.828674 2452.631592 736.265442 2452.046875 737.753052 C 2448.176025 747.602722 2448.505859 757.078186 2451.528564 766.327332 C 2452.029053 767.858765 2452.574463 769.303955 2453.211426 770.851807 C 2453.432617 771.388672 2453.655762 771.916931 2453.916504 772.523621 C 2454.045898 772.824524 2454.453857 773.767151 2454.488525 773.847107 L 2454.490967 773.852539 L 2455.783203 776.870483 L 2455.853271 777.032349 L 2457.251465 780.242798 L 2457.275146 780.297363 L 2457.302246 780.359375 L 2458.007813 782.000427 L 2458.752686 783.732605 C 2460.003174 786.635986 2461.308838 789.654053 2462.811523 793.117493 C 2463.851074 795.516052 2464.704834 797.494202 2466.559082 801.798035 L 2466.601563 801.896301 L 2466.970703 802.753235 C 2469.719727 809.128906 2472.480225 815.50885 2476.392334 824.533813 L 2478.409668 829.192078 C 2480.687256 834.451111 2482.544678 838.734131 2484.334961 842.853088 C 2489.749023 855.32196 2494.065186 865.373413 2503.70459 887.904846 L 2503.735596 887.977417 C 2506.142822 893.604126 2507.217529 896.115479 2508.559082 899.248352 C 2513.015625 909.65564 2517.467285 920.045044 2523.856201 934.950928 L 2528.848389 946.598938 L 2531.344971 952.423889 L 2532.844727 955.923767 L 2534.344727 959.423462 L 2549.344727 994.423645 L 2564.344727 1029.423584 L 2564.34668 1029.427979 L 2565.843018 1032.9198 L 2567.345459 1036.425049 L 2568.845947 1039.926636 L 2571.337646 1045.740479 L 2576.321289 1057.368164 C 2581.966309 1070.53894 2586.533447 1081.19873 2590.92627 1091.457031 L 2594.627197 1100.098511 L 2596.477295 1104.418091 L 2599.559082 1111.614014 C 2601.805908 1116.859741 2603.668701 1121.206787 2605.296875 1125 L 2406.103027 1125 C 2403.590088 1118.276855 2402.769531 1116.036621 2401.753418 1113.210327 L 2401.677979 1113.000488 C 2401.183594 1111.624146 2400.798584 1110.540649 2399.713867 1107.479004 L 2399.127686 1105.832764 L 2398.539551 1104.182007 C 2397.747803 1101.95874 2396.945068 1099.702637 2396.130371 1097.409302 C 2394.483887 1092.776123 2393.161133 1089.062378 2390.201172 1080.760498 L 2390.191406 1080.733154 L 2389.577637 1079.011597 L 2388.918945 1077.162598 L 2388.238281 1075.252686 C 2384.36084 1064.376221 2380.344238 1053.186279 2375.157715 1038.793457 L 2375.134033 1038.727905 L 2374.041992 1035.696533 C 2372.282959 1030.815308 2370.453613 1025.739258 2368.477295 1020.256958 C 2365.412109 1011.754578 2362.708984 1004.248352 2357.598145 990.052063 L 2356.490723 986.976074 C 2349.1604 966.615112 2343.277588 950.251099 2330.137695 913.680969 L 2329.732422 912.552979 C 2325.880371 901.831726 2322.659912 892.870178 2315.937012 874.162598 L 2310.937256 860.250916 L 2305.484619 845.078003 L 2300.031494 829.904907 L 2299.270752 827.788208 L 2299.01709 827.082336 L 2298.509033 825.669006 L 2294.708008 815.094543 C 2291.986572 807.525574 2289.612549 800.911926 2287.348877 794.59137 C 2286.414551 791.983765 2285.481445 789.38092 2284.548096 786.778137 L 2283.862061 784.864441 C 2280.873291 776.533813 2277.775391 768.065735 2274.55249 759.408997 C 2273.635742 756.927368 2272.654053 754.267395 2271.577393 751.347656 C 2270.778564 749.19751 2270.09375 747.387207 2268.836426 744.087769 C 2268.829834 744.074585 2268.824951 744.060913 2268.819824 744.04718 L 2270.477783 740.764954 L 2271.348145 739.054626 C 2272.729004 736.338806 2273.89502 734.026794 2276.19873 729.444336 L 2277.164795 727.524414 C 2279.785889 722.301758 2282.385254 716.925598 2285.532715 710.264282 C 2289.377686 702.143555 2293.291992 694.205444 2299.414307 682.017029 C 2305.736328 669.430969 2309.657471 661.478699 2313.656982 653.016174 C 2317.592773 644.689453 2321.176025 637.437134 2328.296387 623.256714 L 2329.111572 621.63324 C 2334.796631 610.307068 2339.566895 600.572571 2344.019287 591.146606 C 2347.7771 583.230164 2350.989014 576.765503 2358.231689 562.40802 L 2358.312988 562.246765 L 2358.881104 561.1203 L 2359.962891 558.970154 C 2360.603271 557.696716 2361.241211 556.433167 2361.876953 555.178772 C 2362.418945 554.100525 2362.936523 553.057556 2363.453857 552 Z"/>
    </g>
    <g id="g5">
        <path id="path11" fill="#000000" stroke="none" d="M 891 523 C 969.210022 523 1047.419922 523 1128 523 C 1128 731.22998 1128 939.459961 1128 1154 C 1049.790039 1154 971.580017 1154 891 1154 C 891 945.77002 891 737.539978 891 523 Z"/>
        <path id="path12" fill="#ffffff" fill-rule="evenodd" stroke="none" d="M 1128 523 L 891 523 L 891 1154 L 1128 1154 L 1128 523 Z M 920 1125 L 920 552 L 1099 552 L 1099 1125 L 920 1125 Z"/>
    </g>
    <g id="g6">
        <path id="path13" fill="#000000" stroke="none" d="M 3175 185 C 3228.790039 185 3282.580078 185 3338 185 C 3339.916992 186.917114 3339.124023 189.774902 3339.131104 192.326294 C 3339.128418 193.247803 3339.125732 194.169189 3339.123047 195.118652 C 3339.124268 196.092285 3339.125244 197.065918 3339.126465 198.069092 C 3339.12915 201.375244 3339.124756 204.681396 3339.120361 207.987427 C 3339.120605 210.364258 3339.121582 212.740967 3339.122803 215.117676 C 3339.124512 220.307617 3339.123291 225.497559 3339.119141 230.6875 C 3339.113281 238.404785 3339.112793 246.12207 3339.11377 253.839355 C 3339.11499 266.819092 3339.111816 279.798828 3339.105713 292.778564 C 3339.099854 305.63623 3339.095947 318.494019 3339.094971 331.351685 C 3339.094727 332.150146 3339.094727 332.94873 3339.094727 333.77124 C 3339.094238 337.82605 3339.093994 341.880859 3339.09375 345.935547 C 3339.091553 374.680115 3339.084961 403.424683 3339.075439 432.169189 C 3339.066162 460.099854 3339.059082 488.030518 3339.054932 515.961182 C 3339.054688 516.821655 3339.054688 517.682068 3339.054443 518.568604 C 3339.053223 527.209229 3339.052002 535.849976 3339.050781 544.490601 C 3339.048096 562.093811 3339.04541 579.697021 3339.042236 597.300171 C 3339.042236 598.514282 3339.042236 598.514282 3339.041992 599.75293 C 3339.037598 624.570435 3339.032227 649.387878 3339.025635 674.205322 C 3339.025391 674.910156 3339.025391 675.61499 3339.025146 676.341125 C 3339.017578 704.894104 3339.008545 733.447021 3339 762 C 3284.879883 762 3230.76001 762 3175 762 C 3175 571.589966 3175 381.179993 3175 185 Z"/>
        <path id="path14" fill="#ffffff" fill-rule="evenodd" stroke="none" d="M 3338 185 L 3175 185 L 3175 762 L 3339 762 C 3339.008545 733.447021 3339.017578 704.894104 3339.025146 676.341125 L 3339.025635 674.205322 C 3339.032227 649.387878 3339.037598 624.570435 3339.041992 599.75293 L 3339.042236 597.300171 L 3339.050781 544.490601 L 3339.054443 518.568604 L 3339.054932 515.961182 C 3339.059082 488.030518 3339.066162 460.099854 3339.075439 432.169189 C 3339.084961 403.424683 3339.091553 374.680115 3339.09375 345.935547 L 3339.094727 333.77124 L 3339.094971 331.351685 C 3339.095947 318.494019 3339.099854 305.63623 3339.105713 292.778564 C 3339.111816 279.798828 3339.11499 266.819092 3339.11377 253.839355 C 3339.112793 246.12207 3339.113281 238.404785 3339.119141 230.6875 C 3339.123372 225.497559 3339.124593 220.307617 3339.122803 215.117676 C 3339.121582 212.740967 3339.120605 210.364258 3339.120361 207.987427 C 3339.124756 204.681396 3339.12915 201.375244 3339.126465 198.069092 L 3339.123047 195.118652 L 3339.131104 192.326294 C 3339.129395 191.74585 3339.169189 191.149536 3339.209229 190.552063 C 3339.344482 188.523285 3339.480957 186.480972 3338 185 Z M 3204 733 L 3204 214 L 3310.122314 214 L 3310.122803 215.132568 C 3310.124512 220.306259 3310.123291 225.485275 3310.119141 230.664307 C 3310.114014 237.535355 3310.112549 244.574448 3310.11377 253.843018 C 3310.11499 266.226074 3310.112061 279.069305 3310.105713 292.764923 C 3310.099609 306.34079 3310.095947 319.072357 3310.094971 331.349487 L 3310.094727 333.77124 L 3310.09375 345.933807 C 3310.091553 373.368744 3310.085449 401.820526 3310.075439 432.159576 C 3310.065918 461.166199 3310.058838 488.955383 3310.054932 515.956848 L 3310.054688 517.251038 L 3310.054443 518.560608 L 3310.052734 531.525513 L 3310.050781 544.486511 L 3310.042236 597.294922 L 3310.042236 598.50531 L 3310.041992 599.747192 C 3310.037354 625.294373 3310.031982 650.034119 3310.025635 674.197632 L 3310.025391 675.260254 L 3310.025146 676.33136 L 3310.012939 719.161865 L 3310.008789 733 L 3204 733 Z"/>
    </g>
    <g id="g7">
        <path id="path15" fill="#010101" stroke="none" d="M 1095.257813 276.328125 C 1116.579224 297.102783 1128.611572 323.726807 1129.234619 353.649658 C 1129.414063 380.351257 1122.541382 406.364685 1105 427 C 1104.567871 427.509033 1104.13562 428.018066 1103.69043 428.54248 C 1084.809448 450.547485 1058.36145 464.633972 1029.43457 467.834473 C 993.508911 470.2771 958.68689 465.871582 930.34375 441.738281 C 927.855957 439.531494 925.421265 437.279358 923 435 C 922.396729 434.461182 921.793457 433.922363 921.171875 433.367188 C 903.397888 416.83905 892.863464 391.040344 891.877197 367.007568 C 891.077454 333.638672 897.874634 305.773315 921 281 C 921.494873 280.45752 921.989685 279.914917 922.499512 279.355957 C 940.897827 259.311279 965.841919 245.459351 993 242 C 993.932007 241.877563 994.864014 241.755127 995.824219 241.628906 C 1033.67395 237.703369 1067.912842 250.35022 1095.257813 276.328125 Z"/>
        <path id="path16" fill="#ffffff" fill-rule="evenodd" stroke="none" d="M 1129.234619 353.649658 C 1128.611572 323.726807 1116.579224 297.102783 1095.257813 276.328125 C 1067.912842 250.35022 1033.67395 237.703369 995.824219 241.628906 L 993 242 C 965.841919 245.459351 940.897827 259.311279 922.499512 279.355957 L 921 281 C 897.874634 305.773315 891.077454 333.638672 891.877197 367.007568 C 892.863464 391.040344 903.397888 416.83905 921.171875 433.367188 L 923 435 C 925.421265 437.279358 927.855957 439.531494 930.34375 441.738281 C 958.68689 465.871582 993.508911 470.2771 1029.43457 467.834473 C 1058.36145 464.633972 1084.809448 450.547485 1103.69043 428.54248 L 1105 427 C 1122.541382 406.364685 1129.414063 380.351257 1129.234619 353.649658 Z M 1075.147705 297.223663 C 1091.155396 312.879181 1099.73291 332.250183 1100.23645 354.053528 C 1100.347534 376.104279 1094.56543 394.499573 1082.904541 408.217346 L 1081.681396 409.65802 L 1081.582153 409.774048 C 1067.55957 426.058716 1048.075195 436.445648 1026.82666 438.944031 C 992.279846 441.205322 968.071045 435.658813 949.358154 419.839447 C 947.390015 418.088623 945.32196 416.18515 942.877991 413.88446 C 942.693604 413.710907 942.506958 413.539764 942.318115 413.371063 L 940.733215 411.955505 C 929.412537 401.311035 921.633972 383.298248 920.862854 366.053101 C 920.204407 336.975555 926.266479 317.856812 942.199036 300.788879 C 942.274719 300.707825 942.349915 300.626343 942.424622 300.544434 L 942.430664 300.537811 L 943.925659 298.898712 C 958.153137 283.398315 977.03479 273.267944 996.664368 270.767548 L 996.777222 270.75296 L 999.186218 270.436432 C 1027.699829 267.580994 1053.541138 276.761749 1075.147705 297.223663 Z"/>
    </g>
</svg>
