<?xml version="1.0" encoding="UTF-8"?>
<!-- Generated by Pixelmator Pro 3.6.18 -->
<svg width="3493" height="1365" viewBox="0 0 3493 1365" xmlns="http://www.w3.org/2000/svg">
    <g id="Path">
        <path id="path1" fill="#000000" fill-rule="evenodd" stroke="none" d="M 494.385986 268.747925 L 491 268.75 C 489.63443 268.750732 488.268188 268.748779 486.901489 268.746826 C 477.074493 268.732544 467.224548 268.718262 457.445313 269.714355 L 455 270 C 390.559265 276.838135 327.826233 301.617676 276.511719 341.265625 C 275.341888 342.17804 274.171356 343.0896 273 344 C 255.437729 357.165405 240.041336 374.073181 226.304688 391.113281 L 224 394 C 186.18811 440.60968 169.707703 497.515686 164.440308 556.523926 L 164.25 558.6875 C 163.532928 566.757568 163.028366 572.436035 162.674652 578.123901 C 161.834778 591.628906 161.845306 605.186768 161.880798 650.936035 C 161.8862 657.552124 161.887177 664.168213 161.886505 670.784302 C 161.88504 683.019775 161.887238 695.255127 161.893158 707.49054 C 161.899109 719.628418 161.903748 731.766357 161.904907 743.904236 L 161.905121 746.199341 L 161.906097 757.745422 C 161.908112 784.925354 161.914246 812.105225 161.923706 839.285156 C 161.932922 865.706604 161.940399 892.127991 161.944672 918.549438 L 161.945465 923.531189 C 161.947693 937.26178 161.949799 950.99231 161.951843 964.7229 C 161.959625 1017.237549 161.959625 1017.237549 162 1154 L 420 1154 L 420 635.487915 C 419.859406 635.202698 419.785339 634.896729 419.783936 634.569458 C 419.753662 627.731201 419.729156 620.893005 419.71991 614.054688 C 419.71637 610.428589 419.714813 606.80249 419.695801 603.176392 C 419.693024 602.724731 419.690155 602.272644 419.687256 601.820129 C 419.534668 577.884949 419.374573 552.775879 435 533 C 454.687164 511.398804 490.818298 509.313171 515.980469 522.570313 C 527.100342 529.263245 533.392029 538.042908 537.042969 550.582031 C 540.891174 567.835571 540.234741 586.480835 531 602 C 521.418213 615.062256 508.431335 622.292725 492.809814 625.78833 L 490.3125 626.3125 C 484.476501 627.570435 478.695099 628.119629 472.74176 628.422424 L 470.141357 628.547607 C 468.412415 628.634521 466.683472 628.721313 464.954529 628.807983 L 461 629 L 461 856 C 543.228027 856 627.33197 854.841797 696.839844 805.316406 L 700 803 C 715.761841 791.590149 729.393372 777.696289 741.675293 762.636719 L 743 761 C 754.55188 746.812134 764.825806 731.647217 772.918945 715.220215 L 774 713 C 795.568359 668.976196 804.462463 619.013977 803.070801 570.130859 L 803 568 C 800.917236 501.842896 781.11145 439.183838 740.027344 386.839844 C 739.016724 385.561096 738.007446 384.28125 737 383 C 692.022949 323.444702 621.094116 284.511597 548.255371 272.52002 L 545 272 C 528.133911 269.244995 511.440216 268.764282 494.385986 268.747925 Z"/>
        <path id="path2" fill="#ffffff" fill-opacity="0.50496" fill-rule="evenodd" stroke="none" d="M 494.365143 234.747925 L 490.979156 234.75 C 489.873535 234.750595 488.978271 234.749756 486.950073 234.746857 C 471.032013 234.723724 463.697479 234.901596 453.999969 235.889374 C 453.833344 235.906342 453.66684 235.924545 453.500488 235.943985 L 451.230682 236.209122 C 380.285828 243.771576 311.73584 271.083466 255.723877 314.36087 L 255.601395 314.455963 C 254.486145 315.325806 253.4086 316.164948 252.357727 316.981903 C 234.104568 330.707184 217.579056 347.76297 199.834564 369.77475 L 199.734116 369.899963 L 197.509872 372.685913 L 197.428711 372.786102 C 157.848862 421.672272 136.953537 482.0448 130.574966 553.500916 L 130.380768 555.708374 C 129.385956 566.904053 129.067795 570.74585 128.740204 576.013611 C 127.912842 589.317383 127.839279 597.428955 127.880806 650.962402 C 127.885696 656.952454 127.887276 663.193787 127.886505 670.780823 C 127.88504 683.047913 127.887253 695.289856 127.893166 707.507019 C 127.899979 721.414185 127.903854 732.89386 127.904907 743.907471 L 127.905121 746.202515 L 127.906097 757.748291 C 127.908058 784.243591 127.913979 811.349182 127.923706 839.296997 C 127.933723 868.014038 127.940674 893.840454 127.944672 918.554932 L 127.945465 923.536621 L 127.951843 964.727966 L 127.955208 986.871704 L 127.95755 1000.354736 C 127.962273 1025.327393 127.966782 1041.481934 128 1154.01001 C 128.005539 1172.783813 143.226242 1188 162 1188 L 420 1188 C 438.777679 1188 454 1172.77771 454 1154 L 454 889.278625 C 456.259064 889.751404 458.600494 890 461 890 C 521.301453 890 553.072876 888.634705 589.128235 882.79248 C 637.904602 874.889038 679.677856 859.292297 716.569458 833.006531 C 716.693665 832.91803 716.817322 832.828674 716.940308 832.738464 L 719.937195 830.541687 L 720.100769 830.422485 C 737.37561 817.892151 752.976013 802.576111 768.023743 784.125305 L 768.103638 784.026978 L 769.428345 782.390259 C 783.172485 765.510071 794.527771 748.292053 803.418335 730.24646 L 803.487793 730.104614 L 804.568848 727.884399 C 827.84375 680.377563 838.659302 625.443298 837.057007 569.163269 L 837.052063 569.00177 L 836.981262 566.870911 C 834.604797 491.383331 811.202942 422.454559 766.772888 365.847595 L 766.702393 365.758026 C 765.741211 364.541809 764.819458 363.372986 763.925171 362.236115 C 714.766174 297.306274 637.155945 252.698212 553.778503 238.971619 L 553.618591 238.945694 L 550.481201 238.444519 L 550.36322 238.425491 C 533.4375 235.668854 517.173645 234.769775 494.41861 234.74794 L 494.365143 234.747925 Z M 491 268.75 L 494.385986 268.747925 C 511.440216 268.764282 528.133911 269.244995 545 272 L 548.255371 272.52002 C 621.094116 284.511597 692.022949 323.444702 737 383 C 738.007446 384.28125 739.016724 385.561096 740.027344 386.839844 C 781.11145 439.183838 800.917236 501.842896 803 568 L 803.070801 570.130859 C 804.462463 619.013977 795.568359 668.976196 774 713 L 772.918945 715.220215 C 764.825806 731.647217 754.55188 746.812134 743 761 L 741.675293 762.636719 C 729.393372 777.696289 715.761841 791.590149 700 803 L 696.839844 805.316406 C 627.33197 854.841797 543.228027 856 461 856 L 461 629 L 464.954529 628.807983 C 466.683472 628.721313 468.412415 628.634521 470.141357 628.547607 L 472.74176 628.422424 C 478.695099 628.119629 484.476501 627.570435 490.3125 626.3125 L 492.809814 625.78833 C 508.431335 622.292725 521.418213 615.062256 531 602 C 540.234741 586.480835 540.891174 567.835571 537.042969 550.582031 C 533.392029 538.042908 527.100342 529.263245 515.980469 522.570313 C 490.818298 509.313171 454.687164 511.398804 435 533 C 419.374603 552.775879 419.534668 577.884888 419.687256 601.820129 L 419.695801 603.176392 C 419.714813 606.80249 419.71637 610.428589 419.71991 614.054688 C 419.729156 620.893005 419.753662 627.731201 419.783936 634.569458 C 419.785339 634.896729 419.859406 635.202698 420 635.487915 L 420 1154 L 162 1154 C 161.959625 1017.237549 161.959625 1017.237549 161.951843 964.7229 L 161.945465 923.531189 L 161.944672 918.549438 C 161.940399 892.127991 161.932922 865.706604 161.923706 839.285156 C 161.914246 812.105225 161.908112 784.925354 161.906097 757.745422 L 161.905121 746.199341 L 161.904907 743.904236 C 161.903748 731.766357 161.899109 719.628418 161.893158 707.49054 C 161.887238 695.255127 161.88504 683.019775 161.886505 670.784302 C 161.887177 664.168213 161.8862 657.552124 161.880798 650.936035 L 161.880798 650.934326 C 161.845306 605.186462 161.834793 591.628723 162.674652 578.123901 C 163.028366 572.436035 163.532928 566.757568 164.25 558.6875 L 164.440308 556.523926 C 169.707703 497.515686 186.18811 440.60968 224 394 L 226.304688 391.113281 C 240.041336 374.073181 255.437729 357.165405 273 344 C 274.171356 343.0896 275.341888 342.17804 276.511719 341.265625 C 327.826233 301.617676 390.559265 276.838135 455 270 L 457.445313 269.714355 C 467.224548 268.718262 477.074493 268.732544 486.901489 268.746826 L 486.902496 268.746826 C 488.26886 268.748779 489.634766 268.750732 491 268.75 Z M 459.351044 595.040039 C 457.404297 595.134583 455.502319 595.391479 453.65802 595.797363 C 453.651947 593.195862 453.662384 591.350952 453.692902 589.294861 C 453.953918 571.72229 456.034363 561.932922 460.901276 555.112061 C 468.819885 547.534302 486.163147 545.786804 499.244141 552.199341 C 501.81424 553.879211 502.93689 555.432495 504.093475 559.080688 C 506.125214 568.968994 505.462189 577.315552 502.525787 583.244324 C 498.647217 587.891113 493.517456 590.761292 485.579742 592.565063 L 483.328308 593.037598 L 483.148407 593.075806 C 479.878235 593.780701 476.151947 594.205017 471.014709 594.466309 L 468.5065 594.586914 C 466.70697 594.677307 464.979645 594.764038 463.252289 594.850647 L 459.351044 595.040039 Z"/>
    </g>
    <g id="g1">
        <path id="path3" fill="#000000" stroke="none" d="M 1548.027344 509.796875 C 1549.046143 509.789856 1550.064819 509.782837 1551.114502 509.775635 C 1554.388916 509.758179 1557.663086 509.75177 1560.9375 509.75 C 1562.057373 509.749329 1563.177246 509.748657 1564.331055 509.747925 C 1581.406616 509.764282 1598.111694 510.253723 1615 513 C 1616.05835 513.16626 1617.116699 513.332581 1618.207031 513.503906 C 1680.238403 523.532959 1737.315186 552.192932 1783.445313 594.664063 C 1785.619385 596.651978 1787.824219 598.585327 1790.0625 600.5 C 1797.633301 607.093445 1804.509644 614.354065 1811 622 C 1811.797974 622.908813 1812.595825 623.817566 1813.417969 624.753906 C 1846.387207 662.560547 1884 723.236633 1884 775 C 1878.290039 775.787842 1872.665649 776.223389 1866.907471 776.42395 C 1865.584961 776.474243 1865.584961 776.474243 1864.235718 776.525513 C 1861.299194 776.636353 1858.362549 776.742126 1855.425781 776.8479 C 1853.312622 776.926575 1851.199463 777.005554 1849.086426 777.084778 C 1843.356812 777.298706 1837.626953 777.50824 1831.897095 777.716797 C 1825.886719 777.936157 1819.876465 778.159058 1813.866211 778.38147 C 1803.765259 778.754578 1793.664185 779.124817 1783.562988 779.493408 C 1771.916016 779.918396 1760.269043 780.347961 1748.622314 780.78009 C 1737.391602 781.196594 1726.160889 781.609741 1714.930054 782.021484 C 1710.164917 782.196228 1705.39978 782.372131 1700.634644 782.549011 C 1695.007324 782.75769 1689.380005 782.963501 1683.752441 783.167053 C 1681.698364 783.241821 1679.644165 783.317566 1677.590088 783.39447 C 1672.200562 783.595764 1666.811157 783.775879 1661.419922 783.923828 C 1659.038452 783.998779 1656.659912 784.106567 1654.279907 784.217407 C 1652.838013 784.264099 1651.396118 784.309509 1649.954102 784.353516 C 1648.103882 784.429688 1648.103882 784.429688 1646.216309 784.507446 C 1642.042114 783.848877 1640.740845 782.297607 1638.125 779.0625 C 1637.440552 778.055725 1636.755981 777.04895 1636.050781 776.011719 C 1625.063965 759.876892 1602.538208 749.379272 1584.027344 745.691406 C 1559.577271 741.749817 1533.981934 745.528992 1513 759 C 1492.886841 773.907715 1479.351807 794.041443 1475.320313 819.007813 C 1471.532104 844.930481 1475.679565 871.427734 1490.859375 893.183594 C 1494.307129 897.719727 1498.06897 901.881714 1502 906 C 1502.538818 906.613586 1503.077637 907.227173 1503.632813 907.859375 C 1517.845337 923.428833 1541.166748 931.531982 1561.78125 932.90625 C 1562.513428 932.937195 1563.245605 932.96814 1564 933 C 1564.711548 933.051575 1565.423096 933.103149 1566.15625 933.15625 C 1585.845947 933.965454 1604.358765 927.771484 1620 916 C 1620.715454 915.468872 1621.430908 914.937805 1622.167969 914.390625 C 1636.878906 902.527893 1645.563843 884.08136 1652.6875 867.035156 C 1654 864 1654 864 1655 863 C 1657.632324 862.80304 1660.24292 862.669922 1662.879761 862.57605 C 1664.133667 862.525757 1664.133667 862.525757 1665.412964 862.474487 C 1668.237305 862.362427 1671.06189 862.257324 1673.886475 862.1521 C 1675.903564 862.073547 1677.920654 861.994568 1679.937622 861.915222 C 1685.44104 861.700012 1690.944702 861.490967 1696.448364 861.283203 C 1701.053833 861.108765 1705.65918 860.931213 1710.264526 860.753662 C 1721.156738 860.33374 1732.049072 859.918579 1742.94165 859.506592 C 1754.124268 859.083618 1765.306763 858.653625 1776.489014 858.21991 C 1786.114746 857.846802 1795.740479 857.477661 1805.366455 857.111572 C 1811.102905 856.893433 1816.839355 856.674072 1822.575684 856.450989 C 1868.381226 854.673523 1868.381226 854.673523 1890 855 C 1889.831909 857.033813 1889.66333 859.067566 1889.494751 861.101318 C 1889.400879 862.233887 1889.307129 863.366455 1889.210449 864.533325 C 1882.095703 948.365967 1844.783447 1032.090576 1780.117188 1087.46875 C 1778.272095 1088.969482 1776.418091 1090.459473 1774.554688 1091.9375 C 1772.252686 1093.796021 1770.098633 1095.731934 1767.9375 1097.75 C 1707.80603 1151.49585 1622.518311 1171.463135 1543.785156 1167.4375 C 1470.572632 1163.030518 1401.87915 1137.131348 1347 1088 C 1345.567139 1086.733521 1345.567139 1086.733521 1344.105469 1085.441406 C 1332.063599 1074.61853 1319.965088 1063.332764 1309.988281 1050.546875 C 1307.802856 1047.747314 1305.500244 1045.070068 1303.1875 1042.375 C 1248.352295 976.504883 1226.924438 887.679016 1233.75 803.3125 C 1238.650757 750.656128 1255.325195 699.373291 1286 656 C 1286.99585 654.58075 1286.99585 654.58075 1288.011719 653.132813 C 1295.599731 642.512695 1303.611816 632.243835 1312.515625 622.695313 C 1314.488647 620.55481 1316.400024 618.387024 1318.300781 616.183594 C 1322.012207 611.927124 1325.933838 607.917969 1329.9375 603.9375 C 1330.602051 603.269104 1331.266479 602.600708 1331.951172 601.912109 C 1336.468994 597.403137 1341.14209 593.138977 1346 589 C 1346.643066 588.450317 1347.286011 587.900574 1347.948486 587.334229 C 1403.54126 540.146729 1474.459961 510.138 1548.027344 509.796875 Z"/>
        <path id="path4" fill="#ffffff" fill-opacity="0.50496" fill-rule="evenodd" stroke="none" d="M 1547.869751 475.797241 L 1547.805054 475.797546 L 1547.793091 475.797607 C 1468.321899 476.185974 1389.483398 507.482452 1325.946411 561.413025 L 1325.855103 561.490784 L 1323.920166 563.144958 L 1323.908203 563.155151 C 1318.256958 567.970032 1312.962158 572.827759 1307.933105 577.846924 L 1307.841309 577.938965 L 1305.965454 579.825684 L 1305.838501 579.953369 L 1305.826294 579.964905 C 1300.499023 585.264832 1296.549927 589.394165 1292.674438 593.838745 L 1292.55603 593.975281 C 1290.712524 596.112366 1289.111328 597.918884 1287.578247 599.583862 C 1278.258301 609.586609 1269.518188 620.53186 1260.347534 633.366882 C 1260.290894 633.446106 1260.234619 633.525574 1260.178711 633.605286 L 1259.158325 635.059631 L 1258.240479 636.367676 L 1258.167847 636.470947 C 1225.054077 683.334656 1205.530884 739.620544 1199.896362 800.161743 C 1199.883667 800.297974 1199.871704 800.434326 1199.860718 800.57074 C 1191.990112 897.855103 1218.612549 993.922363 1277.056885 1064.128052 C 1277.165527 1064.258423 1277.275024 1064.387939 1277.385498 1064.516724 L 1278.255981 1065.531372 C 1280.63269 1068.303833 1281.956177 1069.891235 1283.187378 1071.468506 C 1293.28125 1084.404419 1303.952881 1095.067749 1321.377808 1110.728882 C 1321.447266 1110.79126 1321.516846 1110.853271 1321.586792 1110.915039 L 1323.056519 1112.214355 L 1324.321045 1113.332031 L 1324.482666 1113.475708 C 1383.850342 1166.557617 1459.133911 1196.403564 1541.742188 1201.376099 C 1541.844482 1201.382202 1541.946777 1201.387939 1542.04895 1201.393188 C 1636.102783 1206.202148 1727.125122 1179.829956 1790.595459 1123.099976 C 1790.779541 1122.935343 1790.961914 1122.768717 1791.142578 1122.600098 C 1793.039307 1120.828857 1794.483398 1119.551025 1795.819458 1118.467407 C 1797.728394 1116.952515 1799.644775 1115.412231 1801.571045 1113.845459 C 1801.793945 1113.664185 1802.014404 1113.480225 1802.232544 1113.293335 C 1871.710693 1053.794434 1914.958252 963.208313 1923.088623 867.408508 L 1923.36731 864.04541 L 1923.37854 863.909729 C 1923.631592 860.856628 1923.744141 859.498962 1923.884521 857.800476 C 1925.505371 838.188904 1910.189575 821.301025 1890.513428 821.003906 C 1881.018311 820.860474 1877.875854 820.825195 1873.575562 820.834534 C 1863.96167 820.85553 1857.927368 821.053589 1821.257324 822.476563 C 1816.109009 822.676758 1810.775024 822.881348 1804.074463 823.136108 C 1794.108643 823.515137 1784.514893 823.883301 1775.172119 824.245422 C 1762.98938 824.717957 1752.085449 825.136414 1741.656494 825.530884 C 1730.154175 825.965942 1719.362671 826.377625 1708.954712 826.778931 C 1702.054321 827.044922 1698.989136 827.162598 1695.161499 827.307556 C 1688.304443 827.566406 1683.451172 827.751831 1678.609131 827.941162 C 1676.551758 828.022095 1674.541626 828.10083 1672.563354 828.177856 L 1672.474731 828.181091 C 1668.283569 828.337219 1666.414673 828.40802 1664.065063 828.501221 L 1662.765625 828.553284 L 1661.670166 828.597229 L 1661.51709 828.603088 C 1658.35791 828.717224 1655.389038 828.875854 1652.463135 829.094788 C 1644.345215 829.702209 1636.7146 833.202087 1630.958374 838.958374 C 1630.639893 839.276794 1630.495239 839.422607 1630.234619 839.691895 C 1629.699097 840.245422 1629.179199 840.809021 1628.618896 841.460999 C 1627.463379 842.805725 1626.395996 844.235352 1625.412598 845.776855 C 1624.268188 847.570801 1623.465942 849.115356 1622.656006 850.874634 C 1622.314819 851.615906 1622.115112 852.072205 1621.480347 853.540161 C 1621.425049 853.668152 1621.370483 853.796509 1621.31665 853.925171 C 1613.696411 872.159851 1607.899902 882.002197 1601.250977 887.573914 L 1599.741699 888.694275 L 1599.733643 888.700256 L 1599.554932 888.833862 C 1589.971069 896.046631 1579.261108 899.558533 1568.014893 899.201782 L 1566.458008 899.088989 C 1566.117188 899.06427 1565.776001 899.044678 1565.434692 899.030273 L 1563.672119 898.955811 C 1549.406372 897.924805 1535.63501 892.323547 1528.915283 885.122681 L 1527.547729 883.565369 C 1527.237183 883.21167 1526.919312 882.864502 1526.594238 882.523987 C 1523.036499 878.796692 1520.482178 875.907654 1518.359497 873.171509 C 1509.474487 860.095642 1506.212769 843.101746 1508.925537 824.183044 C 1511.373535 809.412659 1519.122681 797.091248 1532.299316 787.0271 C 1544.822266 779.348999 1561.014771 776.554504 1577.981567 779.158203 C 1590.932251 781.873779 1603.714111 788.931213 1607.94751 795.148254 L 1610.007446 798.17804 C 1610.535645 798.954956 1611.095825 799.709656 1611.686523 800.440186 C 1612.990356 802.052795 1613.682617 802.884338 1614.746338 804.054626 C 1616.706909 806.211548 1618.784058 808.162109 1621.276001 810.018188 C 1627.225952 814.450134 1633.750854 816.961304 1640.917603 818.092041 C 1643.13208 818.441406 1645.375732 818.570923 1647.615723 818.478638 L 1649.512207 818.400513 L 1651.174316 818.332092 L 1651.352783 818.32666 C 1652.681641 818.285889 1654.023438 818.24353 1655.380371 818.199585 C 1655.540771 818.194397 1655.701294 818.188049 1655.861572 818.180603 C 1658.894897 818.039307 1660.633179 817.965881 1662.424316 817.909058 L 1662.489502 817.907227 C 1667.703979 817.763672 1673.102051 817.585815 1678.859131 817.370789 C 1680.859985 817.295837 1682.898315 817.220642 1684.989258 817.144531 C 1690.794067 816.93457 1696.412231 816.728943 1701.894653 816.525635 C 1706.762695 816.344971 1711.514038 816.169617 1716.176025 815.998657 C 1728.854248 815.533813 1739.599487 815.138062 1749.882324 814.756714 C 1762.4729 814.289612 1773.879517 813.869385 1784.802734 813.470825 C 1795.696167 813.073303 1805.61499 812.709412 1815.121216 812.358276 L 1817.309448 812.277283 C 1825.224487 811.984314 1828.743286 811.854553 1833.137207 811.694153 C 1840.21228 811.436646 1845.304688 811.249695 1850.35498 811.061096 C 1852.527222 810.979675 1854.631836 810.901001 1856.690796 810.824341 C 1861.069092 810.666687 1863.044434 810.594666 1865.518188 810.501343 L 1866.882813 810.449463 L 1868.090942 810.403564 L 1868.199463 810.399536 C 1875.296143 810.149231 1881.991821 809.599182 1888.647217 808.680908 C 1905.469727 806.359802 1918 791.981934 1918 775 C 1918 744.714966 1908.332642 712.281738 1891.324463 679.125061 C 1877.404297 651.988037 1858.805786 625.070129 1839.042969 602.407593 L 1838.967041 602.320801 L 1836.730835 599.773926 C 1828.74353 590.382324 1820.822266 582.202271 1812.39209 574.860413 C 1812.316284 574.794373 1812.240112 574.728699 1812.163696 574.66333 C 1810.063477 572.866638 1808.203613 571.229675 1806.474487 569.650879 L 1806.43811 569.617371 C 1754.923218 522.201416 1691.607056 490.929504 1623.633545 479.939758 L 1623.484741 479.916016 L 1620.457275 479.440338 L 1620.276611 479.41153 C 1603.348999 476.671204 1587.035889 475.769653 1564.363647 475.747955 L 1560.917114 475.75 C 1557.174316 475.752014 1553.990723 475.759827 1550.933228 475.776123 L 1547.869751 475.797241 Z M 1551.114502 509.775635 L 1548.027344 509.796875 C 1474.459961 510.138 1403.54126 540.146729 1347.948486 587.334229 L 1346 589 C 1341.14209 593.138977 1336.468994 597.403137 1331.951172 601.912109 L 1329.9375 603.9375 C 1325.933838 607.917969 1322.012207 611.927124 1318.300781 616.183594 C 1316.400024 618.387024 1314.488647 620.55481 1312.515625 622.695313 C 1303.611816 632.243835 1295.599731 642.512695 1288.011719 653.132813 L 1286 656 C 1255.325195 699.373291 1238.650757 750.656128 1233.75 803.3125 C 1226.924438 887.679016 1248.352295 976.504883 1303.1875 1042.375 C 1305.500244 1045.070068 1307.802856 1047.747314 1309.988281 1050.546875 C 1319.965088 1063.332764 1332.063599 1074.61853 1344.105469 1085.441406 L 1347 1088 C 1401.87915 1137.131348 1470.572632 1163.030518 1543.785156 1167.4375 C 1622.518311 1171.463135 1707.80603 1151.49585 1767.9375 1097.75 C 1770.098633 1095.731934 1772.252686 1093.796021 1774.554688 1091.9375 C 1776.418091 1090.459473 1778.272095 1088.969482 1780.117188 1087.46875 C 1844.783447 1032.090576 1882.095703 948.365967 1889.210449 864.533325 L 1889.494751 861.101318 C 1889.66333 859.067566 1889.831909 857.033813 1890 855 C 1883.068726 854.895325 1878.359741 854.824219 1873.650879 854.834473 C 1863.672729 854.856262 1853.695435 855.243408 1822.575684 856.450989 C 1816.839355 856.674072 1811.102905 856.893433 1805.366455 857.111572 C 1795.740479 857.477661 1786.114746 857.846802 1776.489014 858.21991 C 1765.306763 858.653625 1754.124268 859.083618 1742.94165 859.506592 C 1732.049072 859.918579 1721.156738 860.33374 1710.264526 860.753662 C 1705.65918 860.931213 1701.053833 861.108765 1696.448364 861.283203 C 1690.944702 861.490967 1685.44104 861.700012 1679.937622 861.915222 C 1677.920654 861.994568 1675.903564 862.073547 1673.886475 862.1521 C 1671.06189 862.257324 1668.237305 862.362427 1665.412964 862.474487 L 1662.879761 862.57605 C 1660.24292 862.669922 1657.632324 862.80304 1655 863 C 1654 864 1654 864 1652.6875 867.035156 C 1645.563843 884.08136 1636.878906 902.527893 1622.167969 914.390625 L 1620 916 C 1604.358765 927.771484 1585.845947 933.965454 1566.15625 933.15625 L 1564 933 L 1561.78125 932.90625 C 1541.166748 931.531982 1517.845337 923.428833 1503.632813 907.859375 L 1502 906 C 1498.06897 901.881714 1494.307129 897.719727 1490.859375 893.183594 C 1475.679565 871.427734 1471.532104 844.930481 1475.320313 819.007813 C 1479.351807 794.041443 1492.886841 773.907715 1513 759 C 1533.981934 745.528992 1559.577271 741.749817 1584.027344 745.691406 C 1602.538208 749.379272 1625.063965 759.876892 1636.050781 776.011719 L 1638.125 779.0625 C 1640.740845 782.297607 1642.042114 783.848877 1646.216309 784.507446 L 1649.954102 784.353516 C 1651.396118 784.309509 1652.838013 784.264099 1654.279907 784.217407 C 1656.659912 784.106567 1659.038452 783.998779 1661.419922 783.923828 C 1666.811157 783.775879 1672.200562 783.595764 1677.590088 783.39447 C 1679.644165 783.317566 1681.698364 783.241821 1683.752441 783.167053 C 1689.380005 782.963501 1695.007324 782.75769 1700.634644 782.549011 C 1705.39978 782.372131 1710.164917 782.196228 1714.930054 782.021484 C 1726.160889 781.609741 1737.391602 781.196594 1748.622314 780.78009 C 1760.269043 780.347961 1771.916016 779.918396 1783.562988 779.493408 C 1793.664185 779.124817 1803.765259 778.754578 1813.866211 778.38147 C 1819.876465 778.159058 1825.886719 777.936157 1831.897095 777.716797 C 1837.626953 777.50824 1843.356812 777.298706 1849.086426 777.084778 C 1851.199463 777.005554 1853.312622 776.926575 1855.425781 776.8479 C 1858.362549 776.742126 1861.299194 776.636353 1864.235718 776.525513 L 1866.907471 776.42395 C 1872.665649 776.223389 1878.290039 775.787842 1884 775 C 1884 723.236633 1846.387207 662.560547 1813.417969 624.753906 L 1811 622 C 1804.509644 614.354065 1797.633301 607.093445 1790.0625 600.5 C 1787.824219 598.585327 1785.619385 596.651978 1783.445313 594.664063 C 1737.315186 552.192932 1680.238403 523.532959 1618.207031 513.503906 L 1615 513 C 1598.111694 510.253723 1581.406616 509.764282 1564.331055 509.747925 L 1560.9375 509.75 C 1557.663086 509.75177 1554.388916 509.758179 1551.114502 509.775635 Z"/>
    </g>
    <g id="g2">
        <path id="path5" fill="#010101" stroke="none" d="M 3001.875 227.1875 C 3037.623779 260.108154 3062.811768 307.153442 3065.106201 356.275635 C 3065.163086 358.638611 3065.190674 360.999634 3065.203125 363.363281 C 3065.20874 364.235352 3065.2146 365.107422 3065.220459 366.00592 C 3065.229736 367.845459 3065.236328 369.685059 3065.240234 371.524658 C 3065.249756 374.267395 3065.280762 377.009399 3065.3125 379.751953 C 3065.4104 395.952637 3063.538574 411.694214 3059.375 427.375 C 3059.177734 428.197388 3058.980469 429.019836 3058.777344 429.867188 C 3053.911133 448.5625 3044.752197 466.02478 3035.875 483.0625 C 3034.848389 485.049866 3033.82251 487.037659 3032.797607 489.025879 C 3030.312256 493.84198 3027.817383 498.652954 3025.318115 503.461853 C 3023.497314 506.968018 3021.683594 510.477783 3019.871094 513.988281 C 3017.521973 518.535889 3015.168701 523.081116 3012.8125 527.625 C 3009.881836 533.284546 3006.96875 538.952881 3004.0625 544.625 C 3003.62915 545.470886 3003.195557 546.316772 3002.749023 547.188232 C 3000.631836 551.321228 2998.515869 555.454834 2996.401611 559.589355 C 2989.999268 572.094971 2983.499268 584.542908 2977 597 C 3024.024902 597.494995 3024.024902 597.494995 3072 598 C 3072 653.109985 3072 708.219971 3072 765 C 2948.909912 765 2825.820068 765 2699 765 C 2700.434326 760.696777 2701.779297 757.231323 2703.835938 753.28125 C 2704.399414 752.195557 2704.962891 751.109802 2705.543457 749.991211 C 2706.450195 748.263062 2706.450195 748.263062 2707.375 746.5 C 2708.007813 745.286865 2708.640381 744.073669 2709.272949 742.860352 C 2713.618652 734.544067 2718.076416 726.291626 2722.599121 718.070313 C 2726.155762 711.592041 2729.600098 705.061646 2733 698.5 C 2736.890869 690.99115 2740.863037 683.535889 2744.9375 676.125 C 2749.235596 668.305176 2753.404541 660.427734 2757.5 652.5 C 2762.068359 643.656494 2766.755371 634.890259 2771.550781 626.167969 C 2775.121582 619.656128 2778.583252 613.09375 2782 606.5 C 2785.891113 598.99115 2789.863037 591.535889 2793.9375 584.125 C 2798.235596 576.305176 2802.404541 568.427734 2806.5 560.5 C 2811.068359 551.656494 2815.755371 542.890259 2820.550781 534.167969 C 2824.121582 527.656128 2827.583252 521.09375 2831 514.5 C 2835.390625 506.027405 2839.905518 497.633057 2844.5 489.269531 C 2848.085938 482.723083 2851.565674 476.127197 2855 469.5 C 2858.912598 461.950073 2862.906006 454.453125 2867 447 C 2872.698975 436.615356 2878.223633 426.146301 2883.649902 415.616699 C 2884.513916 413.942017 2885.381104 412.269043 2886.252441 410.598145 C 2893.722656 396.270264 2899.084473 382.851685 2895.15625 366.484375 C 2892.645752 359.733398 2889.269775 354.685669 2883 351 C 2870.143311 345.492371 2857.472412 344.153931 2844.148438 348.679688 C 2832.957764 353.372559 2826.822266 361.08667 2822 372 C 2818.97998 381.509583 2820.512695 392.023193 2824.359375 400.976563 C 2826.584473 405.077026 2829.270264 408.562378 2832.328125 412.074219 C 2834 414 2834 414 2835 416 C 2834.126465 418.065186 2834.126465 418.065186 2832.710938 420.636719 C 2832.188232 421.594421 2831.665771 422.552124 2831.127197 423.538818 C 2830.549072 424.577881 2829.970703 425.616943 2829.375 426.6875 C 2828.783203 427.764587 2828.191406 428.841675 2827.581787 429.951416 C 2822.562256 439.060425 2817.450684 448.117676 2812.3125 457.160156 C 2808.871338 463.218079 2805.463867 469.294617 2802.0625 475.375 C 2801.481201 476.41394 2800.899902 477.45282 2800.301025 478.523193 C 2799.122559 480.629639 2797.944336 482.736206 2796.766113 484.842773 C 2793.269287 491.093872 2789.768799 497.342896 2786.267822 503.591553 C 2783.246826 508.984253 2780.229736 514.379028 2777.21875 519.777344 C 2776.284912 521.44989 2776.284912 521.44989 2775.332031 523.15625 C 2774.151123 525.271423 2772.971191 527.387268 2771.792969 529.503906 C 2768.308838 535.740479 2764.714111 541.897583 2761 548 C 2748.181641 541.59082 2736.993896 532.299377 2726.648438 522.472656 C 2724.750732 520.700806 2722.862305 519.036194 2720.859375 517.394531 C 2717.099121 514.245605 2714.125732 510.766113 2711 507 C 2710.361572 506.246155 2710.361572 506.246155 2709.710449 505.477051 C 2678.716797 468.761719 2663.78418 424.587463 2663.75 376.75 C 2663.749268 375.904053 2663.748535 375.058167 2663.748047 374.186584 C 2663.764648 360.920776 2664.303711 348.030334 2667 335 C 2667.249512 333.770752 2667.249512 333.770752 2667.503906 332.516602 C 2678.582764 279.80957 2711.855225 234.064331 2756.618408 204.533447 C 2833.685059 154.912109 2934.805176 166.713867 3001.875 227.1875 Z"/>
        <path id="path6" fill="#ffffff" fill-opacity="0.50496" fill-rule="evenodd" stroke="none" d="M 3024.906982 202.176926 C 3024.819336 202.096237 3024.731201 202.016006 3024.642822 201.936249 C 2945.272705 130.371948 2827.230713 118.629723 2738.212158 175.946625 C 2738.106201 176.014832 2738.000488 176.083618 2737.895508 176.152985 C 2684.836182 211.156845 2646.9729 264.903961 2634.230957 325.522736 L 2634.182617 325.757629 L 2633.927246 327.015472 L 2633.705078 328.110474 L 2633.679199 328.236603 C 2630.76001 342.396484 2629.770752 356.039917 2629.748047 374.144043 L 2629.75 376.773438 L 2629.75 376.779449 C 2629.790527 433.377625 2648.000488 485.083649 2683.729736 527.408875 L 2684.417236 528.221008 L 2684.835938 528.715271 L 2685.053223 528.974304 C 2690.35376 535.34906 2693.89624 539.162292 2699.030273 543.461548 C 2699.121826 543.53833 2699.214111 543.614624 2699.306396 543.690369 C 2700.644775 544.787415 2701.953613 545.935059 2703.350342 547.235962 C 2717.864258 561.009033 2730.891357 570.95874 2745.794678 578.410522 C 2749.278564 580.152405 2752.928223 581.242004 2756.600098 581.720825 C 2755.001465 584.737122 2753.406006 587.781616 2751.8125 590.856689 C 2748.112793 597.996521 2744.884766 604.083435 2741.73877 609.820374 C 2736.702393 618.981018 2731.894043 627.987793 2727.29248 636.895447 C 2723.05957 645.089294 2719.06958 652.601685 2715.141602 659.747986 C 2710.999512 667.28186 2706.897705 674.972595 2702.812012 682.857483 C 2699.112305 689.997803 2695.914063 696.027161 2692.79541 701.707703 C 2687.802734 710.783264 2683.336182 719.08197 2679.13916 727.113831 L 2677.229736 730.775269 L 2676.337402 732.476501 L 2675.436035 734.194214 L 2675.365967 734.328613 L 2673.658203 737.618958 C 2670.856934 742.999084 2668.854736 747.917664 2666.744629 754.248779 C 2659.40625 776.264771 2675.793213 799 2699 799 L 3072 799 C 3090.777588 799 3106 783.77771 3106 765 L 3106 598 C 3106 579.361938 3090.994873 564.198059 3072.35791 564.001892 L 3032.552246 563.582886 L 3033.009766 562.689697 L 3034.322754 560.12738 C 3037.606934 553.717468 3040.359131 548.368103 3043.004639 543.259338 C 3045.487305 538.471802 3047.825684 533.954529 3050.078857 529.592468 C 3052.367432 525.159851 3053.921387 522.155823 3055.491943 519.131531 C 3058.293457 513.741028 3060.708008 509.081726 3063.011719 504.617859 C 3063.994141 502.712189 3064.994141 500.774261 3066.027588 498.77298 L 3066.082764 498.666901 L 3066.849121 497.19632 L 3067.678223 495.603973 C 3080.69043 470.597839 3086.993408 456.440674 3091.680908 438.431702 C 3091.73641 438.21934 3091.789632 438.006449 3091.840576 437.79303 L 3092.347168 435.681641 C 3097.157227 417.415161 3099.428223 398.832306 3099.311768 379.546509 L 3099.310303 379.358521 C 3099.265625 375.50235 3099.247559 373.59256 3099.23999 371.406616 C 3099.236084 369.579742 3099.229492 367.707062 3099.219971 365.834442 L 3099.202393 363.144348 C 3099.187988 360.398346 3099.155029 357.890808 3099.096436 355.457367 C 3099.090088 355.201233 3099.081055 354.94519 3099.069092 354.68927 C 3096.420166 297.977509 3068.464111 242.2883 3024.906982 202.176926 Z M 3065.106201 356.275635 C 3062.811768 307.153442 3037.623779 260.108154 3001.875 227.1875 C 2934.805176 166.713867 2833.685059 154.912109 2756.618408 204.533447 C 2711.855225 234.064331 2678.582764 279.80957 2667.503906 332.516602 L 2667 335 C 2664.303711 348.030334 2663.764648 360.920776 2663.748047 374.186584 L 2663.75 376.75 C 2663.78418 424.587463 2678.716797 468.761719 2709.710449 505.477051 L 2711 507 C 2714.125732 510.766113 2717.099121 514.245605 2720.859375 517.394531 C 2722.862305 519.036194 2724.750732 520.700806 2726.648438 522.472656 C 2736.993896 532.299377 2748.181641 541.59082 2761 548 C 2764.714111 541.897583 2768.308838 535.740479 2771.792969 529.503906 C 2772.971191 527.387268 2774.151123 525.271423 2775.332031 523.15625 L 2777.21875 519.777344 C 2780.229736 514.379028 2783.246826 508.984253 2786.267822 503.591553 C 2789.768799 497.342896 2793.269287 491.093872 2796.766113 484.842773 L 2800.301025 478.523193 L 2802.0625 475.375 C 2805.463867 469.294617 2808.871338 463.218079 2812.3125 457.160156 C 2817.450684 448.117676 2822.562256 439.060425 2827.581787 429.951416 L 2829.375 426.6875 L 2831.127197 423.538818 L 2832.710938 420.636719 C 2834.126465 418.065186 2834.126465 418.065186 2835 416 C 2834 414 2834 414 2832.328125 412.074219 C 2829.270264 408.562378 2826.584473 405.077026 2824.359375 400.976563 C 2820.512695 392.023193 2818.97998 381.509583 2822 372 C 2826.822266 361.08667 2832.957764 353.372559 2844.148438 348.679688 C 2857.472412 344.153931 2870.143311 345.492371 2883 351 C 2889.269775 354.685669 2892.645752 359.733398 2895.15625 366.484375 C 2899.084473 382.851685 2893.722656 396.270264 2886.252441 410.598145 C 2885.381104 412.269043 2884.513916 413.942017 2883.649902 415.616699 C 2878.223633 426.146301 2872.698975 436.615356 2867 447 C 2862.906006 454.453125 2858.912598 461.950073 2855 469.5 C 2851.565674 476.127197 2848.085938 482.723083 2844.5 489.269531 C 2839.905518 497.633057 2835.390625 506.027405 2831 514.5 C 2827.583252 521.09375 2824.121582 527.656128 2820.550781 534.167969 C 2815.755371 542.890259 2811.068359 551.656494 2806.5 560.5 C 2802.404541 568.427734 2798.235596 576.305176 2793.9375 584.125 C 2789.863037 591.535889 2785.891113 598.99115 2782 606.5 C 2778.583252 613.09375 2775.121582 619.656128 2771.550781 626.167969 C 2766.755371 634.890259 2762.068359 643.656494 2757.5 652.5 C 2753.404541 660.427734 2749.235596 668.305176 2744.9375 676.125 C 2740.863037 683.535889 2736.890869 690.99115 2733 698.5 C 2729.600098 705.061646 2726.155762 711.592041 2722.599121 718.070313 C 2718.076416 726.291626 2713.618652 734.544067 2709.272949 742.860352 L 2707.375 746.5 L 2705.543457 749.991211 L 2703.835938 753.28125 C 2701.779297 757.231323 2700.434326 760.696777 2699 765 L 3072 765 L 3072 598 L 2977 597 C 2983.499268 584.542908 2989.999268 572.094971 2996.401611 559.589355 C 2998.515869 555.454834 3000.631836 551.321228 3002.749023 547.188232 L 3004.0625 544.625 C 3006.96875 538.952881 3009.881836 533.284546 3012.8125 527.625 C 3015.168701 523.081116 3017.521973 518.535889 3019.871094 513.988281 C 3021.683594 510.477783 3023.497314 506.968018 3025.318115 503.461853 C 3027.817383 498.652954 3030.312256 493.84198 3032.797607 489.025879 C 3033.82251 487.037659 3034.848389 485.049866 3035.875 483.0625 C 3044.752197 466.02478 3053.911133 448.5625 3058.777344 429.867188 L 3059.375 427.375 C 3063.538574 411.694214 3065.4104 395.952637 3065.3125 379.751953 C 3065.280762 377.009399 3065.249756 374.267395 3065.240234 371.524658 C 3065.236328 369.685059 3065.229736 367.845459 3065.220459 366.00592 L 3065.203125 363.363281 C 3065.190674 360.999634 3065.163086 358.638611 3065.106201 356.275635 Z M 2862.216309 380.070251 C 2861.743896 382.654022 2860.569824 385.81665 2858.424561 390.271332 L 2858.002686 389.78479 C 2856.626221 388.204041 2855.697266 387.028992 2855.029053 386.042847 C 2854.718262 385.081421 2854.519775 384.164825 2854.440674 383.36203 C 2854.425781 383.210388 2854.415771 383.069 2854.409912 382.938385 C 2855.139893 381.529083 2855.65918 380.916931 2856.381592 380.481079 C 2858.293945 379.978027 2860.168945 379.826477 2862.216309 380.070251 Z"/>
    </g>
    <g id="g3">
        <path id="path7" fill="#000000" stroke="none" d="M 2360 523 C 2441.51001 523 2523.02002 523 2607 523 C 2604.75 529.750122 2604.75 529.750122 2603.118408 533.010437 C 2602.751465 533.748474 2602.384521 534.486572 2602.006592 535.246948 C 2601.409668 536.43219 2601.409668 536.43219 2600.800781 537.641357 C 2600.166016 538.913635 2600.166016 538.913635 2599.518555 540.211609 C 2598.120361 543.011536 2596.716553 545.808533 2595.3125 548.605469 C 2594.330078 550.569031 2593.348145 552.532776 2592.366211 554.496643 C 2590.303955 558.619385 2588.239258 562.740723 2586.172363 566.861084 C 2583.550781 572.087585 2580.934082 577.316711 2578.31958 582.546753 C 2576.287598 586.610168 2574.253662 590.672546 2572.218994 594.734558 C 2571.255615 596.658447 2570.29248 598.58252 2569.330078 600.506897 C 2564.657715 609.843811 2559.947998 619.153992 2555.057373 628.378662 C 2549.844238 638.216919 2544.859863 648.164734 2539.896973 658.131104 C 2538.287354 661.363281 2536.675049 664.594116 2535.062256 667.824585 C 2531.643311 674.673584 2528.227783 681.52417 2524.8125 688.375 C 2520.838379 696.347107 2516.862793 704.318481 2512.883789 712.288208 C 2511.307617 715.447266 2509.733643 718.607544 2508.159912 721.767944 C 2507.181885 723.727356 2506.204102 725.686707 2505.22583 727.645996 C 2504.767578 728.567932 2504.309082 729.489868 2503.836914 730.439758 C 2500.782959 736.54834 2497.548096 742.499939 2494.037354 748.360474 C 2492.078125 753.345703 2494.082031 757.650879 2496.110352 762.345703 C 2496.549316 763.370789 2496.988281 764.395874 2497.440674 765.452026 C 2497.919189 766.550659 2498.397705 767.649292 2498.890625 768.78125 C 2499.386475 769.933716 2499.88208 771.086182 2500.392822 772.27356 C 2501.729004 775.375916 2503.070801 778.475647 2504.415283 781.57428 C 2505.816162 784.806519 2507.209473 788.042114 2508.603516 791.277344 C 2511.727051 798.522034 2514.862305 805.761536 2518 813 C 2518.673828 814.555969 2519.347656 816.111938 2520.021484 817.667969 C 2521.989014 822.210938 2523.958008 826.753052 2525.931396 831.293457 C 2534.10083 850.10791 2542.143555 868.977173 2550.217773 887.832703 C 2555.312988 899.731689 2560.411621 911.629028 2565.510986 923.526184 C 2568.007568 929.350708 2570.503662 935.175354 2573 941 C 2574 943.333374 2575 945.666626 2576 948 C 2586 971.333374 2596 994.666626 2606 1018 C 2606.494873 1019.154907 2606.98999 1020.309753 2607.499756 1021.499634 C 2608.500488 1023.834229 2609.500977 1026.168945 2610.501465 1028.50354 C 2612.99292 1034.31665 2615.484131 1040.129883 2617.97583 1045.942871 C 2622.847168 1057.308472 2627.717529 1068.674561 2632.584961 1080.041748 C 2634.434814 1084.36145 2636.284912 1088.680908 2638.13501 1093.000488 C 2639.162354 1095.39917 2640.189697 1097.797852 2641.217041 1100.196533 C 2645.924316 1111.187256 2650.632324 1122.17749 2655.394531 1133.144531 C 2655.714111 1133.880371 2656.033447 1134.616211 2656.362793 1135.374268 C 2657.771729 1138.617188 2659.184082 1141.858398 2660.600342 1145.098145 C 2661.062256 1146.157593 2661.52417 1147.217041 2662 1148.308594 C 2662.391846 1149.203857 2662.783691 1150.098877 2663.1875 1151.02124 C 2664 1153 2664 1153 2664 1154 C 2577.209961 1154 2490.419922 1154 2401 1154 C 2390.673828 1126.463623 2390.673828 1126.463623 2387.378906 1117.164063 C 2386.805908 1115.555176 2386.805908 1115.555176 2386.221191 1113.913818 C 2385.414551 1111.648926 2384.608887 1109.383911 2383.803955 1107.118408 C 2381.627686 1100.994141 2379.444336 1094.872192 2377.261719 1088.75 C 2376.598145 1086.887695 2376.598145 1086.887695 2375.921143 1084.988037 C 2371.596924 1072.858154 2367.240723 1060.739868 2362.875 1048.625 C 2362.506348 1047.602051 2362.137939 1046.579102 2361.758301 1045.525269 C 2359.904541 1040.380615 2358.050293 1035.236084 2356.195801 1030.091797 C 2352.565186 1020.020508 2348.938721 1009.947754 2345.3125 999.875 C 2344.94751 998.861084 2344.58252 997.847229 2344.206299 996.802612 C 2335.273926 971.991943 2326.357422 947.175537 2317.440674 922.359131 C 2312.843018 909.562683 2308.244385 896.766541 2303.645752 883.970459 C 2301.979004 879.33313 2300.3125 874.69574 2298.645996 870.05835 C 2293.193359 854.88562 2293.193359 854.88562 2287.740479 839.713013 C 2287.233154 838.301758 2286.726074 836.890381 2286.21875 835.479065 C 2284.952148 831.954773 2283.685303 828.430542 2282.418213 824.906372 C 2279.95752 818.062134 2277.499512 811.216919 2275.047119 804.369629 C 2274.11499 801.768433 2273.182617 799.167358 2272.25 796.566406 C 2272.024414 795.937073 2271.798828 795.307739 2271.566162 794.659363 C 2268.553711 786.262573 2265.487549 777.887573 2262.375 769.527344 C 2261.371582 766.81189 2260.369385 764.095886 2259.36792 761.379639 C 2258.46875 758.959351 2257.550293 756.547058 2256.630615 754.134521 C 2256.105469 752.712463 2255.581543 751.290039 2255.058594 749.867188 C 2254.60791 748.672058 2254.157471 747.476929 2253.693115 746.245605 C 2252.4646 740.492981 2255.302979 736.148499 2257.871094 731.097656 C 2258.439453 729.972778 2259.007568 728.8479 2259.593018 727.688965 C 2259.893311 727.098633 2260.193604 726.508301 2260.503174 725.900085 C 2262.10791 722.744141 2263.69873 719.581177 2265.289063 716.417969 C 2265.609375 715.781311 2265.929688 715.144653 2266.259766 714.488708 C 2269.020996 708.986816 2271.682617 703.440796 2274.3125 697.875 C 2278.903076 688.179138 2283.685059 678.585632 2288.5 669 C 2293.231201 659.580688 2297.93335 650.155701 2302.4375 640.625 C 2307.520752 629.87085 2312.85791 619.248596 2318.195557 608.619263 C 2323.167725 598.713684 2328.063477 588.782349 2332.797607 578.760254 C 2337.694092 568.444397 2342.846191 558.255005 2347.988525 548.060059 C 2348.340576 547.360046 2348.692871 546.659973 2349.055664 545.938721 C 2349.704834 544.648071 2350.355957 543.358276 2351.009033 542.06958 C 2354.171387 535.77887 2357.042969 529.406799 2360 523 Z"/>
        <path id="path8" fill="#ffffff" fill-opacity="0.50496" fill-rule="evenodd" stroke="none" d="M 2360 489 C 2346.738281 489 2334.687012 496.710815 2329.129395 508.751831 C 2328.818848 509.424927 2328.498535 510.120636 2328.105225 510.975494 L 2327.103271 513.155273 C 2324.108887 519.667419 2322.48291 523.114685 2320.64502 526.771667 L 2320.631348 526.798645 C 2319.983398 528.077698 2319.333252 529.365051 2318.681396 530.661133 L 2317.613525 532.783875 L 2317.064453 533.872375 L 2316.983154 534.03363 C 2309.51416 548.839783 2306.150635 555.609192 2302.082031 564.180969 C 2297.841553 573.157776 2293.283447 582.459839 2287.808838 593.366455 L 2286.995117 594.987122 C 2279.658447 609.598633 2275.913086 617.178833 2271.698486 626.095337 C 2267.966553 633.991699 2264.229004 641.571655 2258.117432 653.739136 C 2251.79248 666.33075 2247.695557 674.63916 2243.582764 683.325745 C 2240.619141 689.597656 2238.2229 694.553955 2235.87207 699.238037 L 2234.916504 701.137024 C 2232.649902 705.645203 2231.515137 707.895508 2230.196045 710.489563 L 2229.288574 712.273499 L 2227.54834 715.718018 L 2227.524658 715.764771 C 2227.467773 715.876648 2227.358154 716.089355 2227.223633 716.348022 C 2227.192139 716.408325 2226.400879 717.920776 2226.13208 718.441772 C 2225.566895 719.53717 2225.08374 720.506165 2224.602051 721.53064 C 2219.908691 731.509094 2217.922852 741.546265 2220.442871 753.346436 C 2220.798584 755.012268 2221.279053 756.649048 2221.880127 758.242859 L 2223.144531 761.596741 L 2223.221924 761.801941 L 2223.244385 761.86438 C 2223.751221 763.242859 2224.247314 764.589905 2224.73584 765.912781 C 2224.776855 766.023926 2224.818604 766.134766 2224.86084 766.245422 C 2226.126465 769.56604 2226.780518 771.29364 2227.496338 773.220337 C 2228.548584 776.074585 2229.5354 778.748657 2230.482666 781.312195 C 2233.648926 789.816711 2236.660645 798.049622 2239.563477 806.140747 L 2240.244141 808.039001 L 2243.040039 815.839233 C 2245.311279 822.180847 2247.693848 828.817749 2250.42334 836.409485 L 2254.222412 846.978271 L 2254.729492 848.389465 L 2254.983154 849.09491 L 2255.745117 851.214844 L 2261.196777 866.384521 L 2266.649414 881.557007 L 2271.649658 895.470459 C 2278.371826 914.175354 2281.591797 923.135864 2285.443359 933.85553 L 2285.848877 934.984009 C 2298.993164 971.566589 2304.878906 987.938965 2312.216309 1008.319702 L 2313.322021 1011.39093 C 2318.436035 1025.596069 2321.141602 1033.108643 2324.210693 1041.622192 C 2326.186035 1047.101807 2328.014404 1052.174927 2329.771484 1057.051025 L 2330.86499 1060.08667 L 2330.888672 1060.152222 C 2336.052734 1074.482544 2340.047119 1085.610107 2343.895264 1096.405029 L 2344.574219 1098.310059 L 2345.234131 1100.161987 L 2345.850098 1101.889648 L 2345.859863 1101.916992 C 2348.812256 1110.198364 2350.130371 1113.898438 2351.766602 1118.50293 C 2352.586182 1120.809448 2353.394043 1123.080444 2354.191895 1125.321045 L 2354.780029 1126.971924 L 2355.349609 1128.571167 C 2356.447021 1131.668823 2356.849609 1132.801514 2357.38501 1134.292603 L 2357.46875 1134.525146 C 2359.259033 1139.504883 2360.387939 1142.533447 2369.164795 1165.938232 C 2374.141113 1179.208496 2386.827393 1188 2401 1188 L 2664 1188 C 2682.777588 1188 2698 1172.77771 2698 1154 C 2698 1153.845215 2698 1153.845215 2697.998779 1153.539551 C 2697.996582 1153.212036 2697.991211 1152.889038 2697.980225 1152.5271 C 2697.94165 1151.267944 2697.845459 1149.988647 2697.650879 1148.575439 C 2697.246094 1145.640381 2696.579102 1143.206665 2695.697021 1140.789795 C 2695.369873 1139.893433 2695.218018 1139.516113 2694.639404 1138.106812 C 2694.540039 1137.865234 2694.438232 1137.624878 2694.333496 1137.38562 L 2693.157471 1134.699585 L 2693.147217 1134.675903 L 2691.766846 1131.509644 C 2690.363037 1128.298096 2688.961426 1125.081909 2687.546875 1121.825928 L 2686.603271 1119.65332 L 2686.580322 1119.600342 C 2682.627197 1110.496338 2679.377686 1102.936035 2672.471191 1086.810547 L 2669.38916 1079.614502 L 2667.538818 1075.2948 L 2663.8396 1066.657349 C 2659.444336 1056.392456 2654.874512 1045.72644 2649.226318 1032.548706 L 2644.243652 1020.92334 L 2641.752197 1015.109741 L 2640.251709 1011.608521 L 2638.749756 1008.104187 L 2637.254395 1004.614746 L 2637.251709 1004.608765 L 2622.250977 969.60675 L 2607.250977 934.60675 L 2605.750977 931.106628 L 2604.250977 927.606934 L 2601.754639 921.782166 L 2596.76123 910.131287 C 2590.375 895.231934 2585.925781 884.84845 2581.4729 874.449097 C 2580.13501 871.324646 2579.062012 868.817566 2576.657715 863.197266 L 2576.626465 863.124756 C 2566.942627 840.489319 2562.596436 830.368286 2557.118408 817.75177 C 2555.335693 813.650269 2553.488281 809.390686 2551.221191 804.15564 L 2549.199951 799.488525 C 2545.298096 790.487244 2542.552002 784.140564 2539.825195 777.816162 L 2539.459473 776.967102 L 2539.416992 776.868835 C 2537.545166 772.524109 2536.679199 770.517761 2535.611328 768.05365 C 2534.124023 764.625671 2532.840088 761.657776 2531.619629 758.824219 L 2530.881348 757.10791 L 2530.14624 755.398743 L 2530.122559 755.343689 L 2530.063232 755.206848 L 2529.707764 754.39032 C 2531.250977 751.528381 2532.761963 748.61615 2534.248047 745.643677 L 2535.672119 742.77948 L 2537.603271 738.911011 L 2538.580811 736.952332 C 2540.694092 732.708313 2541.962158 730.163696 2543.307129 727.46759 C 2546.956299 720.158936 2550.772217 712.508789 2555.241211 703.543823 C 2559.890381 694.217773 2562.572754 688.839294 2565.482666 683.010132 C 2567.502686 678.963989 2568.917236 676.127991 2570.331787 673.287598 C 2576.843994 660.210022 2580.803223 652.407471 2585.100342 644.297913 C 2589.550781 635.903198 2593.880127 627.423218 2599.735596 615.722351 C 2600.610352 613.973022 2601.519531 612.156372 2602.620361 609.957947 C 2604.959717 605.287781 2606.883301 601.44519 2608.729248 597.753662 C 2611.66626 591.878479 2614.167969 586.880737 2616.563477 582.105103 C 2618.677734 577.890076 2620.745117 573.763672 2622.77417 569.707153 L 2625.718994 563.818665 C 2627.717529 559.837585 2628.74585 557.786377 2629.936768 555.401489 L 2630.593506 554.085022 L 2631.168213 552.933044 L 2631.224609 552.820435 L 2631.779541 551.71875 L 2632.372803 550.540344 L 2632.453125 550.379822 L 2633.562988 548.147156 C 2634.477295 546.320618 2634.821777 545.61499 2635.378906 544.365906 C 2635.599609 543.871216 2635.8125 543.375977 2636.020996 542.87146 C 2636.956299 540.608459 2637.327148 539.536438 2639.255371 533.751587 C 2646.59375 511.735535 2630.206787 489 2607 489 L 2360 489 Z M 2607 523 L 2360 523 C 2357.042969 529.406799 2354.171387 535.77887 2351.009033 542.06958 C 2350.355957 543.358276 2349.704834 544.648071 2349.055664 545.938721 L 2347.988525 548.060059 C 2342.846191 558.255005 2337.694092 568.444397 2332.797607 578.760254 C 2328.063477 588.782349 2323.167725 598.713684 2318.195557 608.619263 C 2312.85791 619.248596 2307.520752 629.87085 2302.4375 640.625 C 2297.93335 650.155701 2293.231201 659.580688 2288.5 669 C 2283.685059 678.585632 2278.903076 688.179138 2274.3125 697.875 C 2271.682617 703.440796 2269.020996 708.986816 2266.259766 714.488708 L 2265.289063 716.417969 C 2263.69873 719.581177 2262.10791 722.744141 2260.503174 725.900085 L 2259.593018 727.688965 L 2257.871094 731.097656 C 2257.569092 731.691406 2257.263672 732.275391 2256.961182 732.853027 C 2254.691895 737.189392 2252.609131 741.16925 2253.693115 746.245605 L 2255.058594 749.867188 C 2255.581543 751.290039 2256.105469 752.712463 2256.630615 754.134521 C 2257.550293 756.547058 2258.46875 758.959351 2259.36792 761.379639 C 2260.369385 764.095886 2261.371582 766.81189 2262.375 769.527344 C 2265.487549 777.887573 2268.553711 786.262573 2271.566162 794.659363 L 2272.25 796.566406 L 2275.047119 804.369629 C 2277.499512 811.216919 2279.95752 818.062134 2282.418213 824.906372 L 2286.21875 835.479065 L 2287.740479 839.713013 L 2298.645996 870.05835 L 2303.645752 883.970459 C 2308.244385 896.766541 2312.843018 909.562683 2317.440674 922.359131 C 2326.357422 947.175537 2335.273926 971.991943 2344.206299 996.802612 L 2345.3125 999.875 C 2348.938721 1009.947754 2352.565186 1020.020508 2356.195801 1030.091797 C 2358.050293 1035.236084 2359.904541 1040.380615 2361.758301 1045.525269 L 2362.875 1048.625 C 2367.240723 1060.739868 2371.596924 1072.858154 2375.921143 1084.988037 L 2377.261719 1088.75 C 2379.444336 1094.872192 2381.627686 1100.994141 2383.803955 1107.118408 C 2384.608887 1109.383911 2385.414551 1111.648926 2386.221191 1113.913818 L 2387.378906 1117.164063 C 2390.673828 1126.463623 2390.673828 1126.463623 2401 1154 L 2664 1154 C 2664 1153 2664 1153 2663.1875 1151.02124 L 2662 1148.308594 L 2660.600342 1145.098145 C 2659.184082 1141.858398 2657.771729 1138.617188 2656.362793 1135.374268 L 2655.394531 1133.144531 C 2650.632324 1122.17749 2645.924316 1111.187256 2641.217041 1100.196533 L 2638.13501 1093.000488 L 2632.584961 1080.041748 C 2627.717529 1068.674561 2622.847168 1057.308472 2617.97583 1045.942871 L 2610.501465 1028.50354 L 2607.499756 1021.499634 L 2606 1018 L 2573 941 L 2565.510986 923.526184 C 2560.411621 911.629028 2555.312988 899.731689 2550.217773 887.832703 C 2542.143555 868.977173 2534.10083 850.10791 2525.931396 831.293457 C 2523.958008 826.753052 2521.989014 822.210938 2520.021484 817.667969 L 2518 813 C 2514.862305 805.761536 2511.727051 798.522034 2508.603516 791.277344 C 2507.209473 788.042114 2505.816162 784.806519 2504.415283 781.57428 C 2503.070801 778.475647 2501.729004 775.375916 2500.392822 772.27356 L 2498.890625 768.78125 L 2497.440674 765.452026 L 2496.110352 762.345703 L 2495.911133 761.885132 C 2493.954834 757.367859 2492.142334 753.182251 2494.037354 748.360474 C 2497.548096 742.499939 2500.782959 736.54834 2503.836914 730.439758 L 2505.22583 727.645996 L 2508.159912 721.767944 C 2509.733643 718.607544 2511.307617 715.447266 2512.883789 712.288208 C 2516.862793 704.318481 2520.838379 696.347107 2524.8125 688.375 C 2528.227783 681.52417 2531.643311 674.673584 2535.062256 667.824585 C 2536.675049 664.594116 2538.287354 661.363281 2539.896973 658.131104 C 2544.859863 648.164734 2549.844238 638.216919 2555.057373 628.378662 C 2559.947998 619.153992 2564.657715 609.843811 2569.330078 600.506897 C 2570.29248 598.58252 2571.255615 596.658447 2572.218994 594.734558 C 2574.253662 590.672546 2576.287598 586.610168 2578.31958 582.546753 C 2580.934082 577.316711 2583.550781 572.087585 2586.172363 566.861084 C 2588.239258 562.740723 2590.303955 558.619385 2592.366211 554.496643 C 2593.348145 552.532776 2594.330078 550.569031 2595.3125 548.605469 C 2596.716553 545.808533 2598.120361 543.011536 2599.518555 540.211609 L 2600.800781 537.641357 L 2602.006592 535.246948 L 2603.118408 533.010437 C 2604.75 529.750122 2604.75 529.750122 2607 523 Z"/>
    </g>
    <g id="g4">
        <path id="path9" fill="#000000" stroke="none" d="M 891 523 C 969.210022 523 1047.419922 523 1128 523 C 1128 731.22998 1128 939.459961 1128 1154 C 1049.790039 1154 971.580017 1154 891 1154 C 891 945.77002 891 737.539978 891 523 Z"/>
        <path id="path10" fill="#ffffff" fill-opacity="0.50496" fill-rule="evenodd" stroke="none" d="M 891 489 C 872.22229 489 857 504.222321 857 523 L 857 1154 C 857 1172.77771 872.22229 1188 891 1188 L 1128 1188 C 1146.77771 1188 1162 1172.77771 1162 1154 L 1162 523 C 1162 504.222321 1146.77771 489 1128 489 L 891 489 Z M 1128 523 L 891 523 L 891 1154 L 1128 1154 L 1128 523 Z"/>
    </g>
    <g id="g5">
        <path id="path11" fill="#000000" stroke="none" d="M 3175 185 C 3228.790039 185 3282.580078 185 3338 185 C 3339.916992 186.917114 3339.124023 189.774902 3339.131104 192.326294 C 3339.128418 193.247803 3339.125732 194.169189 3339.123047 195.118652 C 3339.124268 196.092285 3339.125244 197.065918 3339.126465 198.069092 C 3339.12915 201.375244 3339.124756 204.681396 3339.120361 207.987427 C 3339.120605 210.364258 3339.121582 212.740967 3339.122803 215.117676 C 3339.124512 220.307617 3339.123291 225.497559 3339.119141 230.6875 C 3339.113281 238.404785 3339.112793 246.12207 3339.11377 253.839355 C 3339.11499 266.819092 3339.111816 279.798828 3339.105713 292.778564 C 3339.099854 305.63623 3339.095947 318.494019 3339.094971 331.351685 C 3339.094727 332.150146 3339.094727 332.94873 3339.094727 333.77124 C 3339.094238 337.82605 3339.093994 341.880859 3339.09375 345.935547 C 3339.091553 374.680115 3339.084961 403.424683 3339.075439 432.169189 C 3339.066162 460.099854 3339.059082 488.030518 3339.054932 515.961182 C 3339.054688 516.821655 3339.054688 517.682068 3339.054443 518.568604 C 3339.053223 527.209229 3339.052002 535.849976 3339.050781 544.490601 C 3339.048096 562.093811 3339.04541 579.697021 3339.042236 597.300171 C 3339.042236 598.514282 3339.042236 598.514282 3339.041992 599.75293 C 3339.037598 624.570435 3339.032227 649.387878 3339.025635 674.205322 C 3339.025391 674.910156 3339.025391 675.61499 3339.025146 676.341125 C 3339.017578 704.894104 3339.008545 733.447021 3339 762 C 3284.879883 762 3230.76001 762 3175 762 C 3175 571.589966 3175 381.179993 3175 185 Z"/>
        <path id="path12" fill="#ffffff" fill-opacity="0.50496" fill-rule="evenodd" stroke="none" d="M 3175 151 C 3156.222412 151 3141 166.222321 3141 185 L 3141 762 C 3141 780.77771 3156.222412 796 3175 796 L 3339 796 C 3357.773682 796 3372.994385 780.783875 3373 762.010193 L 3373.006348 740.595581 L 3373.012939 719.180725 L 3373.025146 676.350159 L 3373.025391 675.271057 L 3373.025635 674.217102 C 3373.031982 650.04895 3373.037354 625.307312 3373.041992 599.758972 L 3373.042236 598.511475 L 3373.042236 597.300171 L 3373.050781 544.495789 L 3373.05249 531.534424 L 3373.054443 518.573425 L 3373.054688 517.259888 L 3373.054932 515.976807 L 3373.054932 515.970825 C 3373.058838 488.96875 3373.065918 461.18338 3373.075439 432.180481 C 3373.085449 401.836273 3373.091553 373.379211 3373.09375 345.938141 L 3373.094727 333.77533 L 3373.094971 331.362091 C 3373.095947 319.085541 3373.099609 306.361877 3373.105713 292.794067 C 3373.112061 279.087616 3373.11499 266.232635 3373.11377 253.836151 C 3373.112549 244.583496 3373.114014 237.561325 3373.119141 230.713318 C 3373.123291 225.511948 3373.124512 220.309219 3373.122803 215.106476 C 3373.121338 212.331635 3373.120605 210.117722 3373.120361 207.983932 C 3373.126953 203.049393 3373.128662 200.828964 3373.126465 198.041473 L 3373.124756 196.544724 L 3373.122803 195.214813 L 3373.123291 195.076019 L 3373.129639 192.879501 L 3373.134033 192.81279 L 3373.144287 192.658279 C 3373.22876 191.382767 3373.272949 190.50032 3373.2854 189.271317 C 3373.307617 187.043198 3373.182373 184.814209 3372.815186 182.3965 C 3371.631836 174.608154 3368.20459 167.12175 3362.04248 160.959137 C 3355.666016 154.582428 3347.017822 151 3338 151 L 3175 151 Z M 3338 185 L 3175 185 L 3175 762 L 3339 762 C 3339.008545 733.447021 3339.017578 704.894104 3339.025146 676.341125 L 3339.025635 674.205322 C 3339.032227 649.387878 3339.037598 624.570435 3339.041992 599.75293 L 3339.042236 597.300171 L 3339.050781 544.490601 L 3339.054443 518.568604 L 3339.054932 515.961182 C 3339.059082 488.030518 3339.066162 460.099854 3339.075439 432.169189 C 3339.084961 403.424683 3339.091553 374.680115 3339.09375 345.935547 L 3339.094727 333.77124 L 3339.094971 331.351685 C 3339.095947 318.494019 3339.099854 305.63623 3339.105713 292.778564 C 3339.111816 279.798828 3339.11499 266.819092 3339.11377 253.839355 C 3339.112793 246.12207 3339.113281 238.404785 3339.119141 230.6875 C 3339.123372 225.497559 3339.124593 220.307617 3339.122803 215.117676 C 3339.121582 212.740967 3339.120605 210.364258 3339.120361 207.987427 C 3339.124756 204.681396 3339.12915 201.375244 3339.126465 198.069092 L 3339.123047 195.118652 L 3339.131104 192.326294 C 3339.129395 191.74585 3339.169189 191.149536 3339.209229 190.552063 C 3339.344482 188.523285 3339.480957 186.480972 3338 185 Z"/>
    </g>
    <g id="g6">
        <path id="path13" fill="#000000" stroke="none" d="M 1993 290 C 2071.209961 290 2149.419922 290 2230 290 C 2230 575.119995 2230 860.23999 2230 1154 C 2151.790039 1154 2073.580078 1154 1993 1154 C 1993 868.880005 1993 583.76001 1993 290 Z"/>
        <path id="path14" fill="#ffffff" fill-opacity="0.50496" fill-rule="evenodd" stroke="none" d="M 1993 256 C 1974.22229 256 1959 271.222321 1959 290 L 1959 1154 C 1959 1172.77771 1974.22229 1188 1993 1188 L 2230 1188 C 2248.777588 1188 2264 1172.77771 2264 1154 L 2264 290 C 2264 271.222321 2248.777588 256 2230 256 L 1993 256 Z M 2230 290 L 1993 290 L 1993 1154 L 2230 1154 L 2230 290 Z"/>
    </g>
    <g id="g7">
        <path id="path15" fill="#010101" stroke="none" d="M 1095.257813 276.328125 C 1116.579224 297.102783 1128.611572 323.726807 1129.234619 353.649658 C 1129.414063 380.351257 1122.541382 406.364685 1105 427 C 1104.567871 427.509033 1104.13562 428.018066 1103.69043 428.54248 C 1084.809448 450.547485 1058.36145 464.633972 1029.43457 467.834473 C 993.508911 470.2771 958.68689 465.871582 930.34375 441.738281 C 927.855957 439.531494 925.421265 437.279358 923 435 C 922.396729 434.461182 921.793457 433.922363 921.171875 433.367188 C 903.397888 416.83905 892.863464 391.040344 891.877197 367.007568 C 891.077454 333.638672 897.874634 305.773315 921 281 C 921.494873 280.45752 921.989685 279.914917 922.499512 279.355957 C 940.897827 259.311279 965.841919 245.459351 993 242 C 993.932007 241.877563 994.864014 241.755127 995.824219 241.628906 C 1033.67395 237.703369 1067.912842 250.35022 1095.257813 276.328125 Z"/>
        <path id="path16" fill="#ffffff" fill-opacity="0.50496" fill-rule="evenodd" stroke="none" d="M 1118.985229 251.976288 C 1118.882568 251.876282 1118.779297 251.776932 1118.675415 251.678223 C 1083.797119 218.543686 1039.637329 202.902512 992.316772 207.810303 C 992.008362 207.842285 991.700378 207.878494 991.393005 207.9189 L 988.703796 208.272263 L 988.571533 208.289444 C 953.881958 212.74173 921.557922 230.101135 897.451233 256.365021 L 897.379211 256.443756 L 896.004089 257.951385 C 867.875061 288.162811 856.819641 323.290833 857.886963 367.822205 C 857.891602 368.015411 857.897888 368.208588 857.905762 368.401703 C 859.280762 401.906708 873.975281 435.907471 898.018677 458.265594 C 898.185242 458.420471 898.353333 458.573669 898.52301 458.725189 L 900.023682 460.065521 C 902.843872 462.71637 905.31897 464.988983 907.781555 467.173462 C 907.953369 467.325867 908.12677 467.476532 908.301636 467.625458 C 926.134644 482.809723 946.622009 492.693481 969.494812 497.90329 C 988.651733 502.266724 1008.984619 503.303375 1031.740967 501.756165 C 1032.21936 501.723633 1032.697021 501.681 1033.173584 501.628265 C 1070.603638 497.486938 1104.959229 479.276642 1129.493774 450.682587 L 1129.610107 450.546417 L 1130.919678 449.003815 C 1153.111694 422.897614 1163.478271 389.784668 1163.233887 353.421173 C 1163.232788 353.261383 1163.230591 353.101624 1163.227295 352.941864 C 1162.422729 314.301361 1146.855835 279.132294 1118.985229 251.976288 Z M 1129.234619 353.649658 C 1128.611572 323.726807 1116.579224 297.102783 1095.257813 276.328125 C 1067.912842 250.35022 1033.67395 237.703369 995.824219 241.628906 L 993 242 C 965.841919 245.459351 940.897827 259.311279 922.499512 279.355957 L 921 281 C 897.874634 305.773315 891.077454 333.638672 891.877197 367.007568 C 892.863464 391.040344 903.397888 416.83905 921.171875 433.367188 L 923 435 C 925.421265 437.279358 927.855957 439.531494 930.34375 441.738281 C 958.68689 465.871582 993.508911 470.2771 1029.43457 467.834473 C 1058.36145 464.633972 1084.809448 450.547485 1103.69043 428.54248 L 1105 427 C 1122.541382 406.364685 1129.414063 380.351257 1129.234619 353.649658 Z"/>
    </g>
</svg>
