<?xml version="1.0" encoding="UTF-8"?>
<svg version="1.1" xmlns="http://www.w3.org/2000/svg" width="3177" height="994">
<path d="M0 0 C1.11737549 -0.00067474 2.23475098 -0.00134949 3.38598633 -0.00204468 C20.44021019 0.01431011 37.13386759 0.49497439 54 3.25 C55.61140869 3.50740967 55.61140869 3.50740967 57.25537109 3.77001953 C130.09411075 15.76156722 201.02292386 54.6947187 246 114.25 C247.00742664 115.5312769 248.0167006 116.81110244 249.02734375 118.08984375 C290.11145133 170.43386032 309.91727529 233.09286219 312 299.25 C312.02336426 299.95318359 312.04672852 300.65636719 312.07080078 301.38085938 C313.46244962 350.26398668 304.56839782 400.22619234 283 444.25 C282.64325195 444.9826709 282.28650391 445.7153418 281.91894531 446.47021484 C273.82576788 462.8972177 263.55187315 478.06209942 252 492.25 C251.34427002 493.06017578 251.34427002 493.06017578 250.67529297 493.88671875 C238.39335042 508.94624959 224.76185426 522.84012454 209 534.25 C207.95714844 535.01441406 206.91429687 535.77882813 205.83984375 536.56640625 C136.33199206 586.09182722 52.22802448 587.25 -30 587.25 C-30 538.74 -30 490.23 -30 440.25 C-33.63 440.91 -37.26 441.57 -41 442.25 C-44.57784902 442.42758667 -48.05406958 442.5317887 -51.625 442.5 C-52.5015625 442.50773437 -53.378125 442.51546875 -54.28125 442.5234375 C-55.15007812 442.52085937 -56.01890625 442.51828125 -56.9140625 442.515625 C-57.6767041 442.51336914 -58.4393457 442.51111328 -59.22509766 442.50878906 C-63.20436278 442.1376804 -67.09863662 441.11696964 -71 440.25 C-71 587.1 -71 733.95 -71 885.25 C-156.14 885.25 -241.28 885.25 -329 885.25 C-329.04037864 748.48753802 -329.04037864 748.48753802 -329.04816496 695.97290313 C-329.05020595 682.24233775 -329.05229375 668.51177238 -329.05452599 654.78120703 C-329.05479584 653.12061547 -329.05506421 651.4600239 -329.05533109 649.79943233 C-329.05958956 623.37800678 -329.06708702 596.95658338 -329.07629722 570.53515913 C-329.0857545 543.35524476 -329.09189115 516.17533158 -329.09391499 488.9954156 C-329.0942031 485.146731 -329.09452873 481.2980464 -329.09487724 477.4493618 C-329.09494467 476.69196745 -329.09501209 475.93457311 -329.09508156 475.15422742 C-329.09625821 463.01633231 -329.10088249 450.8784409 -329.10683203 438.74054729 C-329.11275449 426.50513897 -329.11495925 414.26973427 -329.11350138 402.03432456 C-329.11281291 395.41823308 -329.11380125 388.80215011 -329.11920547 382.18605995 C-329.16965781 317.16876036 -329.16965781 317.16876036 -326.75 289.9375 C-326.68719849 289.22351044 -326.62439697 288.50952087 -326.55969238 287.77389526 C-321.29229839 228.76569633 -304.81188043 171.85969419 -267 125.25 C-266.23945313 124.29738281 -265.47890625 123.34476562 -264.6953125 122.36328125 C-250.95866693 105.32318631 -235.56227197 88.41542276 -218 75.25 C-216.82862476 74.33957301 -215.6581175 73.42802863 -214.48828125 72.515625 C-163.17377332 32.86764818 -100.44074351 8.08804619 -36 1.25 C-34.78957031 1.10860596 -34.78957031 1.10860596 -33.5546875 0.96435547 C-22.41539138 -0.17027765 -11.18437401 0.00605571 0 0 Z M-56 264.25 C-71.92083977 284.39981284 -71.45365093 310.08627683 -71.30418181 334.42640805 C-71.2851821 338.05247847 -71.28364652 341.67855973 -71.28010559 345.30467224 C-71.27085248 352.14299986 -71.24633196 358.98118028 -71.21605712 365.81944364 C-71.18230085 373.61652473 -71.16597425 381.41361356 -71.15097082 389.21074975 C-71.11977474 405.22391784 -71.06714829 421.23693979 -71 437.25 C-60.62807447 441.74056461 -52.28888025 441.49300401 -41.0625 440.9375 C-39.19271484 440.85048828 -39.19271484 440.85048828 -37.28515625 440.76171875 C-33.7102834 440.20487173 -32.45803527 439.85367483 -30 437.25 C-29.61756967 434.63909173 -29.49299319 432.45014875 -29.54589844 429.84106445 C-29.54531433 429.08960144 -29.54473022 428.33813843 -29.54412842 427.56390381 C-29.54691533 425.07989312 -29.57803422 422.59708229 -29.609375 420.11328125 C-29.61683527 418.39121659 -29.62252921 416.66914344 -29.62652588 414.94706726 C-29.64179914 410.41438359 -29.68109525 405.88221256 -29.7253418 401.34973145 C-29.76625819 396.7247613 -29.78452911 392.09970833 -29.8046875 387.47460938 C-29.84758809 378.39951434 -29.91585969 369.3247998 -30 360.25 C-28.69501053 360.18664963 -27.39002106 360.12329926 -26.04548645 360.05802917 C-24.31653231 359.97134506 -22.58758469 359.88453095 -20.85864258 359.79760742 C-20.00051216 359.75629448 -19.14238174 359.71498154 -18.25824738 359.67241669 C-12.30490536 359.36959837 -6.52351373 358.82047529 -0.6875 357.5625 C0.13661377 357.38952393 0.96072754 357.21654785 1.80981445 357.03833008 C17.43133677 353.54274291 30.4182206 346.3122507 40 333.25 C49.23473837 317.73084226 49.89113914 299.08556515 46.04296875 281.83203125 C42.39199283 269.2929117 36.10031897 260.5132318 24.98046875 253.8203125 C-0.18169589 240.56318251 -36.31284216 242.64881293 -56 264.25 Z " fill="#000000" transform="translate(329,94.75)"/>
<path d="M0 0 C1.01876724 -0.00701431 2.03753448 -0.01402863 3.08717346 -0.02125549 C6.36154651 -0.03867411 9.63573855 -0.04510896 12.91015625 -0.046875 C14.0300293 -0.04754974 15.14990234 -0.04822449 16.30371094 -0.04891968 C33.37928433 -0.03257371 50.0843149 0.45687743 66.97265625 3.203125 C68.03097656 3.36941406 69.08929687 3.53570312 70.1796875 3.70703125 C132.21110356 13.73606259 189.28781355 42.39608143 235.41796875 84.8671875 C237.59207724 86.85513379 239.79688401 88.78845838 242.03515625 90.703125 C249.60598069 97.29656842 256.48233594 104.5571783 262.97265625 112.203125 C263.77058594 113.11191406 264.56851563 114.02070313 265.390625 114.95703125 C298.35993328 152.76369937 335.97265625 213.43978576 335.97265625 265.203125 C330.2627086 265.99097336 324.63830706 266.42654516 318.88012695 266.62709045 C317.55761114 266.67737472 317.55761114 266.67737472 316.20837784 266.72867483 C313.27184526 266.83946419 310.33515462 266.94524988 307.3984375 267.05102539 C305.28530298 267.12969626 303.17217966 267.20866828 301.05906677 267.28791809 C295.32942757 267.50186813 289.59963427 267.71138866 283.86979675 267.91995168 C277.85940641 268.13931448 271.84914704 268.36221378 265.83886719 268.58457947 C255.73788332 268.95772147 245.63679664 269.32797545 235.53564453 269.6965332 C223.88861491 270.12153149 212.24176168 270.55112418 200.59499264 270.98320013 C189.36432113 271.39972675 178.13352876 271.81290518 166.90267944 272.22460747 C162.13752192 272.39935049 157.37240946 272.57525564 152.60733032 272.75212288 C146.98003156 272.96084558 141.35263206 273.16661683 135.72514534 273.37020683 C133.67097369 273.44498061 131.61683726 273.52072999 129.56274223 273.59757996 C124.17316891 273.79889585 118.78387041 273.97901823 113.39256287 274.12696385 C111.01106033 274.20191632 108.63263059 274.30973182 106.25256348 274.42053032 C104.81067032 274.46721326 103.36873625 274.51265541 101.92675781 274.55662537 C100.07658051 274.63282435 100.07658051 274.63282435 98.18902588 274.71056271 C94.01471539 274.05199333 92.71354544 272.50076661 90.09765625 269.265625 C89.41316406 268.25886719 88.72867187 267.25210937 88.0234375 266.21484375 C77.03667259 250.07999471 54.51088898 239.58238332 36 235.89453125 C11.54994554 231.95292272 -14.04541548 235.73211888 -35.02734375 249.203125 C-55.14054579 264.11087773 -68.67556764 284.24457383 -72.70703125 309.2109375 C-76.49518872 335.13363785 -72.34780308 361.63088748 -57.16796875 383.38671875 C-53.72024073 387.92287186 -49.95840509 392.08487026 -46.02734375 396.203125 C-45.48851562 396.81671875 -44.9496875 397.4303125 -44.39453125 398.0625 C-30.182025 413.63197921 -6.86060504 421.73507425 13.75390625 423.109375 C14.48609375 423.1403125 15.21828125 423.17125 15.97265625 423.203125 C16.68421875 423.2546875 17.39578125 423.30625 18.12890625 423.359375 C37.81864546 424.16854236 56.33136533 417.97464469 71.97265625 406.203125 C72.68808594 405.67203125 73.40351562 405.1409375 74.140625 404.59375 C88.8515737 392.7310289 97.53653426 374.28447636 104.66015625 357.23828125 C105.97265625 354.203125 105.97265625 354.203125 106.97265625 353.203125 C109.60499669 353.0061737 112.21563078 352.87302726 114.85240173 352.77915955 C116.10635997 352.72887528 116.10635997 352.72887528 117.38565069 352.67757517 C120.20998414 352.56552718 123.03453394 352.4604058 125.85913086 352.35522461 C127.87619559 352.27665932 129.89324445 352.19768552 131.91027832 352.11833191 C137.4136877 351.90312621 142.91731475 351.69405468 148.42100978 351.48629832 C153.02648771 351.31185292 157.63184492 351.13433302 162.23720366 350.95677286 C173.12941113 350.53682369 184.0217947 350.12168794 194.91430664 349.7097168 C206.09699037 349.28670851 217.27939031 348.85674857 228.46166414 348.42304987 C238.08734913 348.04991857 247.71318019 347.68074153 257.33913809 347.31471831 C263.07560482 347.09658401 268.81201349 346.87715695 274.54829216 346.65412712 C320.35392154 344.87665138 320.35392154 344.87665138 341.97265625 345.203125 C341.80454635 347.2369189 341.63604391 349.27068035 341.46737671 351.3044281 C341.37358419 352.43698249 341.27979168 353.56953688 341.18315697 354.73641109 C334.06832086 438.56912948 296.75605792 522.29376205 232.08984375 577.671875 C230.24471955 579.17264454 228.39072699 580.6625873 226.52734375 582.140625 C224.22533786 583.99912516 222.07125008 585.9349829 219.91015625 587.953125 C159.77867259 641.69896438 74.49102023 661.66620262 -4.2421875 657.640625 C-77.45469287 653.23367923 -146.1481673 627.33452945 -201.02734375 578.203125 C-202.46013672 576.93662109 -202.46013672 576.93662109 -203.921875 575.64453125 C-215.96378654 564.82163674 -228.06225792 553.53580781 -238.0390625 540.75 C-240.22453828 537.95053004 -242.52714261 535.27324128 -244.83984375 532.578125 C-299.67505132 466.70796854 -321.10288435 377.88215073 -314.27734375 293.515625 C-309.37656455 240.85927501 -292.70219065 189.57641789 -262.02734375 146.203125 C-261.03154297 144.78386719 -261.03154297 144.78386719 -260.015625 143.3359375 C-252.42764928 132.71584978 -244.41546431 122.44693705 -235.51171875 112.8984375 C-233.53874498 110.75794709 -231.62732983 108.59016803 -229.7265625 106.38671875 C-226.01517471 102.13027401 -222.0934619 98.12107854 -218.08984375 94.140625 C-217.42533203 93.47224609 -216.76082031 92.80386719 -216.07617188 92.11523438 C-211.55841821 87.60624454 -206.88523271 83.34207739 -202.02734375 79.203125 C-201.38434326 78.65342041 -200.74134277 78.10371582 -200.07885742 77.53735352 C-144.48613333 30.34987697 -73.5674038 0.341109 0 0 Z " fill="#000000" transform="translate(1386.02734375,335.796875)"/>
<path d="M0 0 C78.21 0 156.42 0 237 0 C237 285.12 237 570.24 237 864 C158.79 864 80.58 864 0 864 C0 578.88 0 293.76 0 0 Z " fill="#000000" transform="translate(1831,116)"/>
<path d="M0 0 C35.74872563 32.92065068 60.93681364 79.96596195 63.23129272 129.08810425 C63.28802413 131.45109217 63.315716 133.81214669 63.328125 136.17578125 C63.33382507 137.04784714 63.33952515 137.91991302 63.34539795 138.81840515 C63.35478786 140.65797742 63.36135781 142.49756605 63.36523438 144.3371582 C63.37484205 147.07991022 63.40588247 149.82187937 63.4375 152.56445312 C63.53536915 168.76516847 61.66368974 184.50670354 57.5 200.1875 C57.30277344 201.00992188 57.10554688 201.83234375 56.90234375 202.6796875 C52.03606975 221.37497743 42.87727676 238.83725321 34 255.875 C32.97336883 257.86236255 31.94758293 259.85016195 30.92260742 261.83837891 C28.43735897 266.65449241 25.94232825 271.46544239 23.44317627 276.27435303 C21.62228273 279.78048156 19.80853601 283.29027858 17.99609375 286.80078125 C15.64709093 291.34836746 13.29364975 295.89361325 10.9375 300.4375 C8.0068837 306.09705579 5.09379639 311.76542016 2.1875 317.4375 C1.75406784 318.28337677 1.32063568 319.12925354 0.87406921 320.00076294 C-1.24319696 324.1337217 -3.35911312 328.26736608 -5.47338867 332.40185547 C-11.87580883 344.90747434 -18.37564057 357.35539442 -24.875 369.8125 C22.15 370.3075 22.15 370.3075 70.125 370.8125 C70.125 425.9225 70.125 481.0325 70.125 537.8125 C-52.965 537.8125 -176.055 537.8125 -302.875 537.8125 C-301.44059271 533.50927813 -300.09566662 530.04380939 -298.0390625 526.09375 C-297.47558105 525.00803711 -296.91209961 523.92232422 -296.33154297 522.80371094 C-295.4249292 521.07556152 -295.4249292 521.07556152 -294.5 519.3125 C-293.86721062 518.09935668 -293.23456273 516.88613955 -292.60205078 515.67285156 C-288.2562588 507.35661042 -283.79851059 499.10414495 -279.27587891 490.8828125 C-275.71922004 484.40457027 -272.27500099 477.87417641 -268.875 471.3125 C-264.98403048 463.80365581 -261.01189354 456.34840479 -256.9375 448.9375 C-252.63942913 441.11771138 -248.47040141 433.24026187 -244.375 425.3125 C-239.80652048 416.46896695 -235.11960197 407.70277996 -230.32421875 398.98046875 C-226.75352127 392.46864413 -223.29179743 385.90624167 -219.875 379.3125 C-215.98401218 371.80366488 -212.01189383 364.34840531 -207.9375 356.9375 C-203.63942913 349.11771138 -199.47040141 341.24026187 -195.375 333.3125 C-190.80652048 324.46896695 -186.11960197 315.70277996 -181.32421875 306.98046875 C-177.75352103 300.46864369 -174.2918135 293.90623371 -170.875 287.3125 C-166.484365 278.83989629 -161.96955326 270.44555398 -157.375 262.08203125 C-153.78893559 255.53559596 -150.30931892 248.93966229 -146.875 242.3125 C-142.96247164 234.76254293 -138.96895753 227.26563636 -134.875 219.8125 C-129.17603928 209.42785153 -123.65135621 198.95879141 -118.22509766 188.42919922 C-117.36105596 186.75455205 -116.49384074 185.0815361 -115.62255859 183.41064453 C-108.1524079 169.08275251 -102.79059717 155.66417844 -106.71875 139.296875 C-109.22917686 132.54586223 -112.60525388 127.49816356 -118.875 123.8125 C-131.73174814 118.30487859 -144.40247607 116.96642893 -157.7265625 121.4921875 C-168.91724336 126.18505367 -175.05284647 133.89920516 -179.875 144.8125 C-182.89492961 154.32206559 -181.36225339 164.83570333 -177.515625 173.7890625 C-175.29054771 177.88956207 -172.60463682 181.3748908 -169.546875 184.88671875 C-167.875 186.8125 -167.875 186.8125 -166.875 188.8125 C-167.74853516 190.87768555 -167.74853516 190.87768555 -169.1640625 193.44921875 C-169.68669678 194.40691162 -170.20933105 195.36460449 -170.74780273 196.35131836 C-171.32602783 197.3903833 -171.90425293 198.42944824 -172.5 199.5 C-173.09176025 200.57709229 -173.68352051 201.65418457 -174.29321289 202.76391602 C-179.31268987 211.87289404 -184.42442725 220.93017022 -189.5625 229.97265625 C-193.00373072 236.03057103 -196.41117181 242.10711148 -199.8125 248.1875 C-200.39378662 249.22640381 -200.97507324 250.26530762 -201.57397461 251.33569336 C-202.75240911 253.44214707 -203.93071289 255.54867392 -205.10888672 257.65527344 C-208.60566251 263.90635231 -212.10608987 270.15538809 -215.60717773 276.40405273 C-218.62820977 281.79672021 -221.64526649 287.19155837 -224.65625 292.58984375 C-225.59017578 294.26240234 -225.59017578 294.26240234 -226.54296875 295.96875 C-227.72393863 298.08391993 -228.90371742 300.19975554 -230.08203125 302.31640625 C-233.56620495 308.55299402 -237.16082717 314.71004711 -240.875 320.8125 C-253.69333811 314.40333095 -264.88107965 305.1118828 -275.2265625 295.28515625 C-277.12434933 293.51332872 -279.01263254 291.84870685 -281.015625 290.20703125 C-284.77584679 287.05810235 -287.74920071 283.57859337 -290.875 279.8125 C-291.51332764 279.05864014 -291.51332764 279.05864014 -292.16455078 278.28955078 C-323.15829804 241.57421312 -338.09071334 197.3999495 -338.125 149.5625 C-338.12567474 148.71657288 -338.12634949 147.87064575 -338.12704468 146.99908447 C-338.11025888 133.7332845 -337.57129386 120.84281777 -334.875 107.8125 C-334.62556641 106.58321777 -334.62556641 106.58321777 -334.37109375 105.32910156 C-323.29215403 52.62207167 -290.01983068 6.87688866 -245.2565918 -22.65405273 C-168.1899236 -72.27534878 -67.06978383 -60.47364663 0 0 Z " fill="#010101" transform="translate(2839.875,53.1875)"/>
<path d="M0 0 C81.51 0 163.02 0 247 0 C244.74995813 6.75012561 244.74995813 6.75012561 243.1184082 10.01042175 C242.75147354 10.74848557 242.38453888 11.48654938 242.00648499 12.24697876 C241.40966164 13.4321962 241.40966164 13.4321962 240.80078125 14.64135742 C240.16607155 15.91362434 240.16607155 15.91362434 239.51853943 17.21159363 C238.12042545 20.01152051 236.71657451 22.80852674 235.3125 25.60546875 C234.33011122 27.56905233 233.34801977 29.5327847 232.36621094 31.49665833 C230.30406911 35.61937783 228.23924975 39.74074118 226.17236328 43.86108398 C223.55068055 49.08761212 220.93414806 54.31669602 218.31950378 59.54674816 C216.28765382 63.61017292 214.25370015 67.67254176 212.21908569 71.7345829 C211.25558316 73.65844936 210.29253432 75.58254311 209.32998657 77.50688744 C204.65771997 86.843796 199.9480843 96.15401566 195.05737305 105.37866211 C189.84417893 115.21688553 184.859748 125.16475755 179.89686012 135.13111496 C178.28729157 138.36327895 176.67504247 141.59409424 175.06217957 144.82461548 C171.64333194 151.67360362 168.22767344 158.52417919 164.8125 165.375 C160.83832488 173.34709501 156.86278257 181.31850242 152.88385582 189.28822708 C151.30752545 192.44729468 149.73363698 195.60757046 148.15986633 198.76791382 C147.18198065 200.72733766 146.20397282 202.68670056 145.22583008 204.64599609 C144.76746167 205.56794455 144.30909327 206.489893 143.83683491 207.43977928 C140.78292922 213.54832369 137.54820281 219.49992985 134.03739929 225.36050415 C132.07806831 230.34570708 134.0821523 234.65084262 136.11035156 239.34570312 C136.54933777 240.37078979 136.98832397 241.39587646 137.44061279 242.45202637 C137.91911682 243.55067017 138.39762085 244.64931396 138.890625 245.78125 C139.38637024 246.93371216 139.88211548 248.08617432 140.3928833 249.27355957 C141.72891582 252.3759209 143.07075551 255.47563927 144.41537476 258.57427979 C145.81626859 261.80654431 147.20946712 265.04212256 148.60351562 268.27734375 C151.72694013 275.52202231 154.86219709 282.76153662 158 290 C158.67390487 291.55595635 159.34774562 293.11194047 160.02148438 294.66796875 C161.98892089 299.21089967 163.95806683 303.75308229 165.93139648 308.29345703 C174.1007943 327.10790741 182.14367508 345.97718161 190.21768188 364.83270264 C195.31287087 376.73164841 200.41171326 388.62902722 205.51107788 400.52618408 C208.00754853 406.35071941 210.50376069 412.17536552 213 418 C213.99999877 420.33333386 214.99999877 422.66666719 216 425 C226 448.33333333 236 471.66666667 246 495 C246.49494461 496.15486908 246.98988922 497.30973816 247.49983215 498.49960327 C248.50039655 500.83425693 249.50095604 503.16891269 250.50151062 505.50357056 C252.99283513 511.31672017 255.48424348 517.12983382 257.97583008 522.94287109 C262.84724626 534.30846081 267.71748552 545.6745522 272.58498764 557.04181862 C274.43474666 561.36147137 276.28485541 565.68097432 278.13500977 570.00045776 C279.16242592 572.39912874 280.18977075 574.79783026 281.21704102 577.19656372 C285.92441698 588.18722422 290.63240661 599.17745624 295.39453125 610.14453125 C295.71403244 610.88036438 296.03353363 611.61619751 296.36271667 612.37432861 C297.77174338 615.61715442 299.18404375 618.85848428 300.6003418 622.09814453 C301.062229 623.15759277 301.52411621 624.21704102 302 625.30859375 C302.391875 626.20376709 302.78375 627.09894043 303.1875 628.02124023 C304 630 304 630 304 631 C217.21 631 130.42 631 41 631 C30.67386571 603.4636419 30.67386571 603.4636419 27.37890625 594.1640625 C26.80581474 592.55519165 26.80581474 592.55519165 26.22114563 590.91381836 C25.4145596 588.64899937 24.6088116 586.38388174 23.80389404 584.11846924 C21.6276053 577.99406593 19.44423322 571.87218684 17.26171875 565.75 C16.59810333 563.88778305 16.59810333 563.88778305 15.92108154 561.98794556 C11.59686721 549.85813433 7.24082465 537.73988673 2.875 525.625 C2.50644897 524.60208862 2.13789795 523.57917725 1.75817871 522.52526855 C-0.09548405 517.38061096 -1.94965373 512.23613633 -3.80419922 507.09179688 C-7.43474064 497.02053051 -11.06115879 486.94777932 -14.6875 476.875 C-15.05253632 475.86111206 -15.41757263 474.84722412 -15.79367065 473.8026123 C-24.72611789 448.99191408 -33.64266476 424.17550225 -42.55924988 399.35910034 C-47.15703555 386.56267731 -51.75560732 373.76653685 -56.35432434 360.97044849 C-58.02091684 356.33309393 -59.68747133 351.69572571 -61.35400391 347.05834961 C-66.80660969 331.88562833 -66.80660969 331.88562833 -72.25956249 316.71303177 C-72.7667996 315.3017165 -73.2740278 313.89039804 -73.78124714 312.47907639 C-75.04787537 308.95476487 -76.31466213 305.4305105 -77.58177185 301.90637207 C-80.04244407 295.06208905 -82.50053333 288.21689943 -84.95288086 281.36962891 C-85.88491234 278.76843215 -86.81730945 276.16736676 -87.75 273.56640625 C-87.97564196 272.93708694 -88.20128391 272.30776764 -88.4337635 271.65937805 C-91.44633259 263.26256003 -94.51256937 254.88760091 -97.625 246.52734375 C-98.62850992 243.81187859 -99.6306041 241.0958963 -100.63204956 238.37966919 C-101.53116226 235.95935772 -102.44967515 233.54706363 -103.36938477 231.13452148 C-103.89442957 229.7124595 -104.41850797 228.29004017 -104.94140625 226.8671875 C-105.39201416 225.67206543 -105.84262207 224.47694336 -106.30688477 223.24560547 C-107.53538639 217.4929811 -104.69705487 213.14849846 -102.12890625 208.09765625 C-101.56067139 206.97278809 -100.99243652 205.84791992 -100.40698242 204.68896484 C-100.10666107 204.09863464 -99.80633972 203.50830444 -99.49691772 202.90008545 C-97.89211669 199.7441532 -96.30134192 196.58117469 -94.7109375 193.41796875 C-94.39064072 192.78131287 -94.07034393 192.14465698 -93.74034119 191.4887085 C-90.97909981 185.98684424 -88.31744048 180.4407827 -85.6875 174.875 C-81.09701502 165.17915249 -76.31483717 155.58564339 -71.5 146 C-66.76877488 136.58070335 -62.06664705 127.15571869 -57.5625 117.625 C-52.47929693 106.8708485 -47.14205388 96.24858087 -41.80450439 85.6192627 C-36.83232553 75.71370824 -31.93646363 65.78237309 -27.20239258 55.76025391 C-22.30585261 45.44437848 -17.15387053 35.25497851 -12.01147461 25.06005859 C-11.65933899 24.36001709 -11.30720337 23.65997559 -10.94439697 22.9387207 C-10.29509439 21.64806917 -9.64414102 20.35824564 -8.99090576 19.06958008 C-5.82863489 12.77888623 -2.95699442 6.40682125 0 0 Z " fill="#000000" transform="translate(2183,349)"/>
<path d="M0 0 C78.21 0 156.42 0 237 0 C237 208.23 237 416.46 237 631 C158.79 631 80.58 631 0 631 C0 422.77 0 214.54 0 0 Z " fill="#000000" transform="translate(729,349)"/>
<path d="M0 0 C53.79 0 107.58 0 163 0 C164.91709974 1.91709974 164.12408258 4.77482305 164.13100848 7.3263019 C164.12838146 8.24777786 164.12575445 9.16925382 164.12304783 10.1186533 C164.12420167 11.09231038 164.12535552 12.06596747 164.12654433 13.06912932 C164.12921922 16.37525016 164.1246817 19.68132358 164.12025452 22.98744202 C164.12069004 25.3641902 164.1215646 27.74093833 164.12284368 30.11768621 C164.12462133 35.30760906 164.12326396 40.49752161 164.11920547 45.68744278 C164.1131873 53.40474811 164.1128681 61.12204618 164.11374746 68.83935343 C164.11506352 81.81909834 164.11171178 94.79883818 164.10573006 107.77858162 C164.09981971 120.63629239 164.09596546 133.49400106 164.09487724 146.35171318 C164.0948085 147.15018019 164.09473976 147.94864719 164.09466894 148.77131017 C164.09433062 152.82606708 164.09402923 156.88082399 164.09374207 160.9355809 C164.09163981 189.68011853 164.0848973 218.42465339 164.07543945 247.16918945 C164.06625998 275.09985337 164.05917394 303.03051652 164.05493164 330.96118164 C164.05480011 331.82162632 164.05466859 332.682071 164.05453308 333.56858976 C164.05321459 342.20926849 164.05193877 350.84994723 164.05069422 359.49062597 C164.04815778 377.09380257 164.04533653 394.69697911 164.04234314 412.30015564 C164.0421372 413.51429213 164.0421372 413.51429213 164.04192711 414.75295664 C164.03770273 439.57041726 164.03227078 464.38787742 164.02565002 489.20533752 C164.02546247 489.91014457 164.02527491 490.61495162 164.02508167 491.34111646 C164.01746508 519.89407786 164.00857205 548.44703888 164 577 C109.88 577 55.76 577 0 577 C0 386.59 0 196.18 0 0 Z " fill="#000000" transform="translate(3013,11)"/>
<path d="M0 0 C21.32139079 20.77468846 33.35375027 47.39868613 33.97680664 77.3215332 C34.1563181 104.02315102 27.28362835 130.03655542 9.7421875 150.671875 C9.3100293 151.18089355 8.87787109 151.68991211 8.43261719 152.21435547 C-10.44829452 174.21939784 -36.89629501 188.30582764 -65.82324219 191.50634766 C-101.74889861 193.94894644 -136.57094892 189.54348384 -164.9140625 165.41015625 C-167.40185702 163.20336262 -169.83653226 160.95121813 -172.2578125 158.671875 C-172.86109375 158.13304687 -173.464375 157.59421875 -174.0859375 157.0390625 C-191.85990677 140.51093219 -202.39436404 114.71220846 -203.38061523 90.67944336 C-204.18038033 57.31052107 -197.3831619 29.44522027 -174.2578125 4.671875 C-173.76297363 4.12934082 -173.26813477 3.58680664 -172.75830078 3.02783203 C-154.35998721 -17.01686307 -129.41588385 -30.86875134 -102.2578125 -34.328125 C-101.32582031 -34.45058594 -100.39382813 -34.57304688 -99.43359375 -34.69921875 C-61.58380798 -38.62474071 -27.34494236 -25.97792082 0 0 Z " fill="#010101" transform="translate(933.2578125,102.328125)"/>
<path d="M0 0 C0.33 0 0.66 0 1 0 C1 41.91 1 83.82 1 127 C9.29232352 129.26154278 14.81781861 130.440579 23 130 C24.29421875 129.94585938 25.5884375 129.89171875 26.921875 129.8359375 C34.33650991 129.75476837 34.33650991 129.75476837 41 127 C41.31637935 124.48966887 41.43743673 122.21974906 41.43237305 119.70458984 C41.4425647 118.95327286 41.45275635 118.20195587 41.46325684 117.4278717 C41.49350648 114.93881897 41.50267072 112.45015027 41.51171875 109.9609375 C41.52855662 108.2374238 41.54670565 106.51392244 41.56611633 104.79043579 C41.61371956 100.24979511 41.64346193 95.70920445 41.66955566 91.168396 C41.69930932 86.53664258 41.74585736 81.90506181 41.79101562 77.2734375 C41.87716604 68.18238178 41.9444589 59.09129063 42 50 C42.33 50 42.66 50 43 50 C43 124.58 43 199.16 43 276 C51.91 276 60.82 276 70 276 C70 276.33 70 276.66 70 277 C60.76 277 51.52 277 42 277 C42 228.49 42 179.98 42 130 C36.555 130.99 36.555 130.99 31 132 C27.42215098 132.17758667 23.94593042 132.2817887 20.375 132.25 C19.4984375 132.25773438 18.621875 132.26546875 17.71875 132.2734375 C16.41550781 132.26957031 16.41550781 132.26957031 15.0859375 132.265625 C13.9419751 132.26224121 13.9419751 132.26224121 12.77490234 132.25878906 C8.79563722 131.8876804 4.90136338 130.86696964 1 130 C1 276.85 1 423.7 1 575 C0.67 575 0.34 575 0 575 C0 385.25 0 195.5 0 0 Z " fill="#686868" transform="translate(257,405)"/>
<path d="M0 0 C0.66644531 0.2165625 1.33289063 0.433125 2.01953125 0.65625 C8.90623688 2.73670932 14.84281139 3.3858818 22 3 C23.28261719 2.94585938 24.56523437 2.89171875 25.88671875 2.8359375 C33.76771347 2.71854668 33.76771347 2.71854668 41 0 C41 0.99 41 1.98 41 3 C33.82568159 4.88178844 26.74970221 5.21891317 19.375 5.25 C18.49303955 5.25902344 17.6110791 5.26804687 16.70239258 5.27734375 C10.85377939 5.2511486 5.66768383 4.44853583 0 3 C0 2.01 0 1.02 0 0 Z " fill="#FFFFFF" transform="translate(258,532)"/>
</svg>
