<?xml version="1.0" encoding="UTF-8"?>
<!-- Generated by Pixelmator Pro 3.6.18 -->
<svg width="3493" height="1365" viewBox="0 0 3493 1365" xmlns="http://www.w3.org/2000/svg">
    <path id="Path" fill="#ffffff" fill-rule="evenodd" stroke="none" d="M 494.385986 268.747925 L 491 268.75 C 489.63443 268.750732 488.268188 268.748779 486.901489 268.746826 C 477.074493 268.732544 467.224548 268.718262 457.445313 269.714355 L 455 270 C 390.559265 276.838135 327.826233 301.617676 276.511719 341.265625 C 275.341888 342.17804 274.171356 343.0896 273 344 C 255.437729 357.165405 240.041336 374.073181 226.304688 391.113281 L 224 394 C 186.18811 440.60968 169.707703 497.515686 164.440308 556.523926 L 164.25 558.6875 C 163.532928 566.757568 163.028366 572.436035 162.674652 578.123901 C 161.834778 591.628906 161.845306 605.186768 161.880798 650.936035 C 161.8862 657.552124 161.887177 664.168213 161.886505 670.784302 C 161.88504 683.019775 161.887238 695.255127 161.893158 707.49054 C 161.899109 719.628418 161.903748 731.766357 161.904907 743.904236 L 161.905121 746.199341 L 161.906097 757.745422 C 161.908112 784.925354 161.914246 812.105225 161.923706 839.285156 C 161.932922 865.706604 161.940399 892.127991 161.944672 918.549438 L 161.945465 923.531189 C 161.947693 937.26178 161.949799 950.99231 161.951843 964.7229 C 161.959625 1017.237549 161.959625 1017.237549 162 1154 L 420 1154 L 420 635.487915 C 419.859406 635.202698 419.785339 634.896729 419.783936 634.569458 C 419.753662 627.731201 419.729156 620.893005 419.71991 614.054688 C 419.71637 610.428589 419.714813 606.80249 419.695801 603.176392 C 419.693024 602.724731 419.690155 602.272644 419.687256 601.820129 C 419.534668 577.884949 419.374573 552.775879 435 533 C 454.687164 511.398804 490.818298 509.313171 515.980469 522.570313 C 527.100342 529.263245 533.392029 538.042908 537.042969 550.582031 C 540.891174 567.835571 540.234741 586.480835 531 602 C 521.418213 615.062256 508.431335 622.292725 492.809814 625.78833 L 490.3125 626.3125 C 484.476501 627.570435 478.695099 628.119629 472.74176 628.422424 L 470.141357 628.547607 C 468.412415 628.634521 466.683472 628.721313 464.954529 628.807983 L 461 629 L 461 856 C 543.228027 856 627.33197 854.841797 696.839844 805.316406 L 700 803 C 715.761841 791.590149 729.393372 777.696289 741.675293 762.636719 L 743 761 C 754.55188 746.812134 764.825806 731.647217 772.918945 715.220215 L 774 713 C 795.568359 668.976196 804.462463 619.013977 803.070801 570.130859 L 803 568 C 800.917236 501.842896 781.11145 439.183838 740.027344 386.839844 C 739.016724 385.561096 738.007446 384.28125 737 383 C 692.022949 323.444702 621.094116 284.511597 548.255371 272.52002 L 545 272 C 528.133911 269.244995 511.440216 268.764282 494.385986 268.747925 Z"/>
    <path id="path1" fill="#ffffff" stroke="none" d="M 1548.027344 509.796875 C 1549.046143 509.789856 1550.064819 509.782837 1551.114502 509.775635 C 1554.388916 509.758179 1557.663086 509.75177 1560.9375 509.75 C 1562.057373 509.749329 1563.177246 509.748657 1564.331055 509.747925 C 1581.406616 509.764282 1598.111694 510.253723 1615 513 C 1616.05835 513.16626 1617.116699 513.332581 1618.207031 513.503906 C 1680.238403 523.532959 1737.315186 552.192932 1783.445313 594.664063 C 1785.619385 596.651978 1787.824219 598.585327 1790.0625 600.5 C 1797.633301 607.093445 1804.509644 614.354065 1811 622 C 1811.797974 622.908813 1812.595825 623.817566 1813.417969 624.753906 C 1846.387207 662.560547 1884 723.236633 1884 775 C 1878.290039 775.787842 1872.665649 776.223389 1866.907471 776.42395 C 1865.584961 776.474243 1865.584961 776.474243 1864.235718 776.525513 C 1861.299194 776.636353 1858.362549 776.742126 1855.425781 776.8479 C 1853.312622 776.926575 1851.199463 777.005554 1849.086426 777.084778 C 1843.356812 777.298706 1837.626953 777.50824 1831.897095 777.716797 C 1825.886719 777.936157 1819.876465 778.159058 1813.866211 778.38147 C 1803.765259 778.754578 1793.664185 779.124817 1783.562988 779.493408 C 1771.916016 779.918396 1760.269043 780.347961 1748.622314 780.78009 C 1737.391602 781.196594 1726.160889 781.609741 1714.930054 782.021484 C 1710.164917 782.196228 1705.39978 782.372131 1700.634644 782.549011 C 1695.007324 782.75769 1689.380005 782.963501 1683.752441 783.167053 C 1681.698364 783.241821 1679.644165 783.317566 1677.590088 783.39447 C 1672.200562 783.595764 1666.811157 783.775879 1661.419922 783.923828 C 1659.038452 783.998779 1656.659912 784.106567 1654.279907 784.217407 C 1652.838013 784.264099 1651.396118 784.309509 1649.954102 784.353516 C 1648.103882 784.429688 1648.103882 784.429688 1646.216309 784.507446 C 1642.042114 783.848877 1640.740845 782.297607 1638.125 779.0625 C 1637.440552 778.055725 1636.755981 777.04895 1636.050781 776.011719 C 1625.063965 759.876892 1602.538208 749.379272 1584.027344 745.691406 C 1559.577271 741.749817 1533.981934 745.528992 1513 759 C 1492.886841 773.907715 1479.351807 794.041443 1475.320313 819.007813 C 1471.532104 844.930481 1475.679565 871.427734 1490.859375 893.183594 C 1494.307129 897.719727 1498.06897 901.881714 1502 906 C 1502.538818 906.613586 1503.077637 907.227173 1503.632813 907.859375 C 1517.845337 923.428833 1541.166748 931.531982 1561.78125 932.90625 C 1562.513428 932.937195 1563.245605 932.96814 1564 933 C 1564.711548 933.051575 1565.423096 933.103149 1566.15625 933.15625 C 1585.845947 933.965454 1604.358765 927.771484 1620 916 C 1620.715454 915.468872 1621.430908 914.937805 1622.167969 914.390625 C 1636.878906 902.527893 1645.563843 884.08136 1652.6875 867.035156 C 1654 864 1654 864 1655 863 C 1657.632324 862.80304 1660.24292 862.669922 1662.879761 862.57605 C 1664.133667 862.525757 1664.133667 862.525757 1665.412964 862.474487 C 1668.237305 862.362427 1671.06189 862.257324 1673.886475 862.1521 C 1675.903564 862.073547 1677.920654 861.994568 1679.937622 861.915222 C 1685.44104 861.700012 1690.944702 861.490967 1696.448364 861.283203 C 1701.053833 861.108765 1705.65918 860.931213 1710.264526 860.753662 C 1721.156738 860.33374 1732.049072 859.918579 1742.94165 859.506592 C 1754.124268 859.083618 1765.306763 858.653625 1776.489014 858.21991 C 1786.114746 857.846802 1795.740479 857.477661 1805.366455 857.111572 C 1811.102905 856.893433 1816.839355 856.674072 1822.575684 856.450989 C 1868.381226 854.673523 1868.381226 854.673523 1890 855 C 1889.831909 857.033813 1889.66333 859.067566 1889.494751 861.101318 C 1889.400879 862.233887 1889.307129 863.366455 1889.210449 864.533325 C 1882.095703 948.365967 1844.783447 1032.090576 1780.117188 1087.46875 C 1778.272095 1088.969482 1776.418091 1090.459473 1774.554688 1091.9375 C 1772.252686 1093.796021 1770.098633 1095.731934 1767.9375 1097.75 C 1707.80603 1151.49585 1622.518311 1171.463135 1543.785156 1167.4375 C 1470.572632 1163.030518 1401.87915 1137.131348 1347 1088 C 1345.567139 1086.733521 1345.567139 1086.733521 1344.105469 1085.441406 C 1332.063599 1074.61853 1319.965088 1063.332764 1309.988281 1050.546875 C 1307.802856 1047.747314 1305.500244 1045.070068 1303.1875 1042.375 C 1248.352295 976.504883 1226.924438 887.679016 1233.75 803.3125 C 1238.650757 750.656128 1255.325195 699.373291 1286 656 C 1286.99585 654.58075 1286.99585 654.58075 1288.011719 653.132813 C 1295.599731 642.512695 1303.611816 632.243835 1312.515625 622.695313 C 1314.488647 620.55481 1316.400024 618.387024 1318.300781 616.183594 C 1322.012207 611.927124 1325.933838 607.917969 1329.9375 603.9375 C 1330.602051 603.269104 1331.266479 602.600708 1331.951172 601.912109 C 1336.468994 597.403137 1341.14209 593.138977 1346 589 C 1346.643066 588.450317 1347.286011 587.900574 1347.948486 587.334229 C 1403.54126 540.146729 1474.459961 510.138 1548.027344 509.796875 Z"/>
    <path id="path2" fill="#ffffff" stroke="none" d="M 3001.875 227.1875 C 3037.623779 260.108154 3062.811768 307.153442 3065.106201 356.275635 C 3065.163086 358.638611 3065.190674 360.999634 3065.203125 363.363281 C 3065.20874 364.235352 3065.2146 365.107422 3065.220459 366.00592 C 3065.229736 367.845459 3065.236328 369.685059 3065.240234 371.524658 C 3065.249756 374.267395 3065.280762 377.009399 3065.3125 379.751953 C 3065.4104 395.952637 3063.538574 411.694214 3059.375 427.375 C 3059.177734 428.197388 3058.980469 429.019836 3058.777344 429.867188 C 3053.911133 448.5625 3044.752197 466.02478 3035.875 483.0625 C 3034.848389 485.049866 3033.82251 487.037659 3032.797607 489.025879 C 3030.312256 493.84198 3027.817383 498.652954 3025.318115 503.461853 C 3023.497314 506.968018 3021.683594 510.477783 3019.871094 513.988281 C 3017.521973 518.535889 3015.168701 523.081116 3012.8125 527.625 C 3009.881836 533.284546 3006.96875 538.952881 3004.0625 544.625 C 3003.62915 545.470886 3003.195557 546.316772 3002.749023 547.188232 C 3000.631836 551.321228 2998.515869 555.454834 2996.401611 559.589355 C 2989.999268 572.094971 2983.499268 584.542908 2977 597 C 3024.024902 597.494995 3024.024902 597.494995 3072 598 C 3072 653.109985 3072 708.219971 3072 765 C 2948.909912 765 2825.820068 765 2699 765 C 2700.434326 760.696777 2701.779297 757.231323 2703.835938 753.28125 C 2704.399414 752.195557 2704.962891 751.109802 2705.543457 749.991211 C 2706.450195 748.263062 2706.450195 748.263062 2707.375 746.5 C 2708.007813 745.286865 2708.640381 744.073669 2709.272949 742.860352 C 2713.618652 734.544067 2718.076416 726.291626 2722.599121 718.070313 C 2726.155762 711.592041 2729.600098 705.061646 2733 698.5 C 2736.890869 690.99115 2740.863037 683.535889 2744.9375 676.125 C 2749.235596 668.305176 2753.404541 660.427734 2757.5 652.5 C 2762.068359 643.656494 2766.755371 634.890259 2771.550781 626.167969 C 2775.121582 619.656128 2778.583252 613.09375 2782 606.5 C 2785.891113 598.99115 2789.863037 591.535889 2793.9375 584.125 C 2798.235596 576.305176 2802.404541 568.427734 2806.5 560.5 C 2811.068359 551.656494 2815.755371 542.890259 2820.550781 534.167969 C 2824.121582 527.656128 2827.583252 521.09375 2831 514.5 C 2835.390625 506.027405 2839.905518 497.633057 2844.5 489.269531 C 2848.085938 482.723083 2851.565674 476.127197 2855 469.5 C 2858.912598 461.950073 2862.906006 454.453125 2867 447 C 2872.698975 436.615356 2878.223633 426.146301 2883.649902 415.616699 C 2884.513916 413.942017 2885.381104 412.269043 2886.252441 410.598145 C 2893.722656 396.270264 2899.084473 382.851685 2895.15625 366.484375 C 2892.645752 359.733398 2889.269775 354.685669 2883 351 C 2870.143311 345.492371 2857.472412 344.153931 2844.148438 348.679688 C 2832.957764 353.372559 2826.822266 361.08667 2822 372 C 2818.97998 381.509583 2820.512695 392.023193 2824.359375 400.976563 C 2826.584473 405.077026 2829.270264 408.562378 2832.328125 412.074219 C 2834 414 2834 414 2835 416 C 2834.126465 418.065186 2834.126465 418.065186 2832.710938 420.636719 C 2832.188232 421.594421 2831.665771 422.552124 2831.127197 423.538818 C 2830.549072 424.577881 2829.970703 425.616943 2829.375 426.6875 C 2828.783203 427.764587 2828.191406 428.841675 2827.581787 429.951416 C 2822.562256 439.060425 2817.450684 448.117676 2812.3125 457.160156 C 2808.871338 463.218079 2805.463867 469.294617 2802.0625 475.375 C 2801.481201 476.41394 2800.899902 477.45282 2800.301025 478.523193 C 2799.122559 480.629639 2797.944336 482.736206 2796.766113 484.842773 C 2793.269287 491.093872 2789.768799 497.342896 2786.267822 503.591553 C 2783.246826 508.984253 2780.229736 514.379028 2777.21875 519.777344 C 2776.284912 521.44989 2776.284912 521.44989 2775.332031 523.15625 C 2774.151123 525.271423 2772.971191 527.387268 2771.792969 529.503906 C 2768.308838 535.740479 2764.714111 541.897583 2761 548 C 2748.181641 541.59082 2736.993896 532.299377 2726.648438 522.472656 C 2724.750732 520.700806 2722.862305 519.036194 2720.859375 517.394531 C 2717.099121 514.245605 2714.125732 510.766113 2711 507 C 2710.361572 506.246155 2710.361572 506.246155 2709.710449 505.477051 C 2678.716797 468.761719 2663.78418 424.587463 2663.75 376.75 C 2663.749268 375.904053 2663.748535 375.058167 2663.748047 374.186584 C 2663.764648 360.920776 2664.303711 348.030334 2667 335 C 2667.249512 333.770752 2667.249512 333.770752 2667.503906 332.516602 C 2678.582764 279.80957 2711.855225 234.064331 2756.618408 204.533447 C 2833.685059 154.912109 2934.805176 166.713867 3001.875 227.1875 Z"/>
    <path id="path3" fill="#ffffff" stroke="none" d="M 2360 523 C 2441.51001 523 2523.02002 523 2607 523 C 2604.75 529.750122 2604.75 529.750122 2603.118408 533.010437 C 2602.751465 533.748474 2602.384521 534.486572 2602.006592 535.246948 C 2601.409668 536.43219 2601.409668 536.43219 2600.800781 537.641357 C 2600.166016 538.913635 2600.166016 538.913635 2599.518555 540.211609 C 2598.120361 543.011536 2596.716553 545.808533 2595.3125 548.605469 C 2594.330078 550.569031 2593.348145 552.532776 2592.366211 554.496643 C 2590.303955 558.619385 2588.239258 562.740723 2586.172363 566.861084 C 2583.550781 572.087585 2580.934082 577.316711 2578.31958 582.546753 C 2576.287598 586.610168 2574.253662 590.672546 2572.218994 594.734558 C 2571.255615 596.658447 2570.29248 598.58252 2569.330078 600.506897 C 2564.657715 609.843811 2559.947998 619.153992 2555.057373 628.378662 C 2549.844238 638.216919 2544.859863 648.164734 2539.896973 658.131104 C 2538.287354 661.363281 2536.675049 664.594116 2535.062256 667.824585 C 2531.643311 674.673584 2528.227783 681.52417 2524.8125 688.375 C 2520.838379 696.347107 2516.862793 704.318481 2512.883789 712.288208 C 2511.307617 715.447266 2509.733643 718.607544 2508.159912 721.767944 C 2507.181885 723.727356 2506.204102 725.686707 2505.22583 727.645996 C 2504.767578 728.567932 2504.309082 729.489868 2503.836914 730.439758 C 2500.782959 736.54834 2497.548096 742.499939 2494.037354 748.360474 C 2492.078125 753.345703 2494.082031 757.650879 2496.110352 762.345703 C 2496.549316 763.370789 2496.988281 764.395874 2497.440674 765.452026 C 2497.919189 766.550659 2498.397705 767.649292 2498.890625 768.78125 C 2499.386475 769.933716 2499.88208 771.086182 2500.392822 772.27356 C 2501.729004 775.375916 2503.070801 778.475647 2504.415283 781.57428 C 2505.816162 784.806519 2507.209473 788.042114 2508.603516 791.277344 C 2511.727051 798.522034 2514.862305 805.761536 2518 813 C 2518.673828 814.555969 2519.347656 816.111938 2520.021484 817.667969 C 2521.989014 822.210938 2523.958008 826.753052 2525.931396 831.293457 C 2534.10083 850.10791 2542.143555 868.977173 2550.217773 887.832703 C 2555.312988 899.731689 2560.411621 911.629028 2565.510986 923.526184 C 2568.007568 929.350708 2570.503662 935.175354 2573 941 C 2574 943.333374 2575 945.666626 2576 948 C 2586 971.333374 2596 994.666626 2606 1018 C 2606.494873 1019.154907 2606.98999 1020.309753 2607.499756 1021.499634 C 2608.500488 1023.834229 2609.500977 1026.168945 2610.501465 1028.50354 C 2612.99292 1034.31665 2615.484131 1040.129883 2617.97583 1045.942871 C 2622.847168 1057.308472 2627.717529 1068.674561 2632.584961 1080.041748 C 2634.434814 1084.36145 2636.284912 1088.680908 2638.13501 1093.000488 C 2639.162354 1095.39917 2640.189697 1097.797852 2641.217041 1100.196533 C 2645.924316 1111.187256 2650.632324 1122.17749 2655.394531 1133.144531 C 2655.714111 1133.880371 2656.033447 1134.616211 2656.362793 1135.374268 C 2657.771729 1138.617188 2659.184082 1141.858398 2660.600342 1145.098145 C 2661.062256 1146.157593 2661.52417 1147.217041 2662 1148.308594 C 2662.391846 1149.203857 2662.783691 1150.098877 2663.1875 1151.02124 C 2664 1153 2664 1153 2664 1154 C 2577.209961 1154 2490.419922 1154 2401 1154 C 2390.673828 1126.463623 2390.673828 1126.463623 2387.378906 1117.164063 C 2386.805908 1115.555176 2386.805908 1115.555176 2386.221191 1113.913818 C 2385.414551 1111.648926 2384.608887 1109.383911 2383.803955 1107.118408 C 2381.627686 1100.994141 2379.444336 1094.872192 2377.261719 1088.75 C 2376.598145 1086.887695 2376.598145 1086.887695 2375.921143 1084.988037 C 2371.596924 1072.858154 2367.240723 1060.739868 2362.875 1048.625 C 2362.506348 1047.602051 2362.137939 1046.579102 2361.758301 1045.525269 C 2359.904541 1040.380615 2358.050293 1035.236084 2356.195801 1030.091797 C 2352.565186 1020.020508 2348.938721 1009.947754 2345.3125 999.875 C 2344.94751 998.861084 2344.58252 997.847229 2344.206299 996.802612 C 2335.273926 971.991943 2326.357422 947.175537 2317.440674 922.359131 C 2312.843018 909.562683 2308.244385 896.766541 2303.645752 883.970459 C 2301.979004 879.33313 2300.3125 874.69574 2298.645996 870.05835 C 2293.193359 854.88562 2293.193359 854.88562 2287.740479 839.713013 C 2287.233154 838.301758 2286.726074 836.890381 2286.21875 835.479065 C 2284.952148 831.954773 2283.685303 828.430542 2282.418213 824.906372 C 2279.95752 818.062134 2277.499512 811.216919 2275.047119 804.369629 C 2274.11499 801.768433 2273.182617 799.167358 2272.25 796.566406 C 2272.024414 795.937073 2271.798828 795.307739 2271.566162 794.659363 C 2268.553711 786.262573 2265.487549 777.887573 2262.375 769.527344 C 2261.371582 766.81189 2260.369385 764.095886 2259.36792 761.379639 C 2258.46875 758.959351 2257.550293 756.547058 2256.630615 754.134521 C 2256.105469 752.712463 2255.581543 751.290039 2255.058594 749.867188 C 2254.60791 748.672058 2254.157471 747.476929 2253.693115 746.245605 C 2252.4646 740.492981 2255.302979 736.148499 2257.871094 731.097656 C 2258.439453 729.972778 2259.007568 728.8479 2259.593018 727.688965 C 2259.893311 727.098633 2260.193604 726.508301 2260.503174 725.900085 C 2262.10791 722.744141 2263.69873 719.581177 2265.289063 716.417969 C 2265.609375 715.781311 2265.929688 715.144653 2266.259766 714.488708 C 2269.020996 708.986816 2271.682617 703.440796 2274.3125 697.875 C 2278.903076 688.179138 2283.685059 678.585632 2288.5 669 C 2293.231201 659.580688 2297.93335 650.155701 2302.4375 640.625 C 2307.520752 629.87085 2312.85791 619.248596 2318.195557 608.619263 C 2323.167725 598.713684 2328.063477 588.782349 2332.797607 578.760254 C 2337.694092 568.444397 2342.846191 558.255005 2347.988525 548.060059 C 2348.340576 547.360046 2348.692871 546.659973 2349.055664 545.938721 C 2349.704834 544.648071 2350.355957 543.358276 2351.009033 542.06958 C 2354.171387 535.77887 2357.042969 529.406799 2360 523 Z"/>
    <path id="path4" fill="#ffffff" stroke="none" d="M 891 523 C 969.210022 523 1047.419922 523 1128 523 C 1128 731.22998 1128 939.459961 1128 1154 C 1049.790039 1154 971.580017 1154 891 1154 C 891 945.77002 891 737.539978 891 523 Z"/>
    <path id="path5" fill="#ffffff" stroke="none" d="M 3175 185 C 3228.790039 185 3282.580078 185 3338 185 C 3339.916992 186.917114 3339.124023 189.774902 3339.131104 192.326294 C 3339.128418 193.247803 3339.125732 194.169189 3339.123047 195.118652 C 3339.124268 196.092285 3339.125244 197.065918 3339.126465 198.069092 C 3339.12915 201.375244 3339.124756 204.681396 3339.120361 207.987427 C 3339.120605 210.364258 3339.121582 212.740967 3339.122803 215.117676 C 3339.124512 220.307617 3339.123291 225.497559 3339.119141 230.6875 C 3339.113281 238.404785 3339.112793 246.12207 3339.11377 253.839355 C 3339.11499 266.819092 3339.111816 279.798828 3339.105713 292.778564 C 3339.099854 305.63623 3339.095947 318.494019 3339.094971 331.351685 C 3339.094727 332.150146 3339.094727 332.94873 3339.094727 333.77124 C 3339.094238 337.82605 3339.093994 341.880859 3339.09375 345.935547 C 3339.091553 374.680115 3339.084961 403.424683 3339.075439 432.169189 C 3339.066162 460.099854 3339.059082 488.030518 3339.054932 515.961182 C 3339.054688 516.821655 3339.054688 517.682068 3339.054443 518.568604 C 3339.053223 527.209229 3339.052002 535.849976 3339.050781 544.490601 C 3339.048096 562.093811 3339.04541 579.697021 3339.042236 597.300171 C 3339.042236 598.514282 3339.042236 598.514282 3339.041992 599.75293 C 3339.037598 624.570435 3339.032227 649.387878 3339.025635 674.205322 C 3339.025391 674.910156 3339.025391 675.61499 3339.025146 676.341125 C 3339.017578 704.894104 3339.008545 733.447021 3339 762 C 3284.879883 762 3230.76001 762 3175 762 C 3175 571.589966 3175 381.179993 3175 185 Z"/>
    <path id="path6" fill="#ffffff" stroke="none" d="M 1993 290 C 2071.209961 290 2149.419922 290 2230 290 C 2230 575.119995 2230 860.23999 2230 1154 C 2151.790039 1154 2073.580078 1154 1993 1154 C 1993 868.880005 1993 583.76001 1993 290 Z"/>
    <path id="path7" fill="#ffffff" stroke="none" d="M 1095.257813 276.328125 C 1116.579224 297.102783 1128.611572 323.726807 1129.234619 353.649658 C 1129.414063 380.351257 1122.541382 406.364685 1105 427 C 1104.567871 427.509033 1104.13562 428.018066 1103.69043 428.54248 C 1084.809448 450.547485 1058.36145 464.633972 1029.43457 467.834473 C 993.508911 470.2771 958.68689 465.871582 930.34375 441.738281 C 927.855957 439.531494 925.421265 437.279358 923 435 C 922.396729 434.461182 921.793457 433.922363 921.171875 433.367188 C 903.397888 416.83905 892.863464 391.040344 891.877197 367.007568 C 891.077454 333.638672 897.874634 305.773315 921 281 C 921.494873 280.45752 921.989685 279.914917 922.499512 279.355957 C 940.897827 259.311279 965.841919 245.459351 993 242 C 993.932007 241.877563 994.864014 241.755127 995.824219 241.628906 C 1033.67395 237.703369 1067.912842 250.35022 1095.257813 276.328125 Z"/>
</svg>
